<svg width="60" height="70" viewBox="0 0 60 70" fill="none" xmlns="http://www.w3.org/2000/svg">
<g clip-path="url(#clip0_1300_1714)">
<path d="M54.2031 3.78104C54.8495 3.46105 55.3074 3.3987 55.623 3.46854C55.9263 3.53589 56.1376 3.73511 56.2793 4.04081C56.424 4.35314 56.4902 4.76634 56.4902 5.2205C56.4902 5.39547 56.4027 5.6636 56.1953 6.02128C55.9918 6.37225 55.6874 6.78574 55.29 7.24393C54.4956 8.15997 53.3426 9.24097 51.9209 10.3504C49.1064 12.5466 45.2541 14.8379 41.0732 16.1805L39.1992 14.2058C39.114 14.1162 38.9727 14.112 38.8828 14.1971C38.7933 14.2824 38.789 14.4247 38.874 14.5144L40.835 16.5818H40.8359C41.3167 17.161 41.936 18.4499 42.4336 20.6658C42.9295 22.8743 43.3008 25.9841 43.3008 30.1863C43.3008 40.7155 41.6861 65.1427 41.4492 67.3553C41.3539 68.2444 40.9746 68.8813 40.4902 69.1092C40.0317 69.3243 39.3614 69.2206 38.5566 68.3572C38.2983 68.0799 38.1473 67.7087 38.0908 67.3113C37.6637 64.3048 37.583 61.2292 37.585 58.5125C37.5869 55.8068 37.6717 53.4346 37.5742 51.8738C37.1346 44.8401 36.0628 40.9577 35.4404 37.7127L38.0039 37.3016C38.126 37.2818 38.209 37.1659 38.1895 37.0437C38.1697 36.9217 38.0548 36.8387 37.9326 36.8582L35.1396 37.3064L35.1172 37.3103L35.0947 37.3191C31.0808 38.869 24.6128 41.3551 18.6064 43.2957C15.6029 44.2661 12.7191 45.099 10.3184 45.6101C9.11802 45.8657 8.04165 46.0395 7.13477 46.1111C6.22384 46.183 5.50122 46.1499 4.99707 46.0037C4.39483 45.8287 4.03476 45.1539 4.18555 44.3113C4.20612 44.1966 4.23685 44.0791 4.27734 43.9607C4.68819 43.33 5.49196 42.7063 6.72949 42.1795C12.8173 40.105 20.3844 36.3498 25.6152 33.5926C27.0967 32.8652 28.3961 32.2154 29.4258 31.6922C30.2185 31.2894 30.8524 30.962 31.2881 30.7361C31.5055 30.6234 31.6742 30.5359 31.7881 30.4764C31.8447 30.4467 31.8888 30.4233 31.918 30.408C31.9317 30.4008 31.9429 30.3952 31.9502 30.3914C31.9536 30.3896 31.9571 30.3876 31.959 30.3865L31.9609 30.3855H31.9619L32.0234 30.3523L32.0557 30.2908L32.0566 30.2898V30.2889C32.057 30.2881 32.058 30.2869 32.0586 30.2859C32.0597 30.2838 32.0609 30.2805 32.0625 30.2771C32.066 30.27 32.0709 30.2595 32.0771 30.2459C32.0898 30.2182 32.1098 30.1753 32.1367 30.1111C32.1907 29.9822 32.2768 29.7648 32.4092 29.41C32.674 28.6999 33.1239 27.4325 33.8652 25.2L33.8818 25.1502L33.874 25.0975C33.774 24.395 33.4873 23.3649 32.9473 22.4129C32.4075 21.4614 31.6012 20.5644 30.4531 20.1746C30.0895 20.0513 29.7185 20.1742 29.4561 20.3963C27.0532 22.4299 22.9252 24.3412 19.1289 25.6707C17.2346 26.334 15.4314 26.8498 13.9795 27.1619C13.2534 27.3179 12.6178 27.4224 12.1055 27.4695C11.5988 27.5161 11.2373 27.5018 11.0264 27.4441C10.6533 27.2458 10.2068 26.6866 10.0479 26.0174C9.8927 25.3632 10.0179 24.6353 10.7461 24.076C14.6309 22.4772 21.2115 20.3823 26.6162 15.8787L26.624 15.8719L26.6318 15.8641C28.2354 14.2544 31.5621 12.1439 38.4424 11.157L38.459 11.1551L38.4756 11.1502C39.4704 10.8506 41.8052 10.3456 44.3359 9.48612C46.88 8.622 49.6971 7.37806 51.75 5.5535C52.7515 4.66332 53.5593 4.09989 54.2031 3.78104Z" fill="black"/>
<circle cx="29.1664" cy="7.62821" r="4.03846" fill="black"/>
</g>
<defs>
<clipPath id="clip0_1300_1714">
<rect width="59.2308" height="70" fill="white"/>
</clipPath>
</defs>
</svg>
