<svg width="20" height="16" viewBox="0 0 20 16" fill="none" xmlns="http://www.w3.org/2000/svg">
<path d="M12.8818 0C13.5241 0 14.1146 0.340309 14.4385 0.887695L14.5615 1.1123C14.8854 1.65969 15.4759 2 16.1182 2H18C19.1046 2 20 2.89543 20 4V14C20 15.1046 19.1046 16 18 16H2C0.895431 16 0 15.1046 0 14V4C0 2.89543 0.895431 2 2 2H3.88184C4.52413 2 5.11463 1.65969 5.43848 1.1123L5.56152 0.887695C5.88537 0.340309 6.47587 0 7.11816 0H12.8818ZM9.97266 4.5C7.48745 4.50008 5.47267 6.51478 5.47266 9L5.47852 9.23145C5.5951 11.5325 7.44017 13.3775 9.74121 13.4941L9.97266 13.5C12.3803 13.4999 14.3463 11.6091 14.4668 9.23145L14.4727 9C14.4726 6.59239 12.5818 4.62638 10.2041 4.50586L9.97266 4.5ZM9.97266 5.5C11.9056 5.50007 13.4726 7.06705 13.4727 9C13.4727 10.933 11.9056 12.4999 9.97266 12.5C8.03973 12.4999 6.47266 10.9329 6.47266 9C6.47267 7.06707 8.03974 5.50008 9.97266 5.5ZM14.0361 2.73242C13.4838 2.73242 13.0361 3.18014 13.0361 3.73242C13.0363 4.28461 13.4839 4.73242 14.0361 4.73242C14.5882 4.73224 15.036 4.28449 15.0361 3.73242C15.0361 3.18025 14.5883 2.7326 14.0361 2.73242Z" fill="#5F6DD7"/>
</svg>
