<svg width="34" height="54" viewBox="0 0 34 54" fill="none" xmlns="http://www.w3.org/2000/svg">
<g clip-path="url(#clip0_1080_1622)">
<circle cx="16.1889" cy="9.98867" r="3.1" stroke="black" stroke-width="1.37778"/>
<path d="M20.4776 31.7271H19.5751M19.5751 31.7271L18.4109 41.0271C18.0665 42.4049 13.7749 50.7575 12.0553 51.9039C11.022 52.5928 10.1442 52.9749 8.9553 51.9039C7.76643 50.8329 13.5886 42.0605 13.9331 39.9938C14.2775 37.9271 15.6554 30.3493 15.3109 29.316C14.9665 28.2827 13.0817 24.2759 12.5553 23.116C11.6054 21.0229 11.0677 18.782 9.7998 17.2605C8.07759 15.1938 6.35531 10.3716 7.0442 8.64935C7.73309 6.9271 10.7474 0.124525 12.5553 0.727117C13.5886 1.07154 14.2775 1.41602 13.9331 2.44936C13.5886 3.48269 10.8358 8.37048 10.4887 9.33823C10.1415 10.306 12.0034 15.016 12.5553 15.1938C13.1072 15.3716 17.722 15.8827 18.4109 15.8827C19.0998 15.8827 22.085 10.6012 22.1998 9.68268C22.3146 8.76416 23.2331 3.82713 23.5776 2.79379C23.922 1.76046 25.4674 1.241 26.3331 1.76046C27.1989 2.27992 25.7441 8.80095 25.4887 10.3339C25.2332 11.8668 22.1998 17.2605 21.0109 18.945C19.822 20.6296 23.4252 27.1032 23.5776 28.6271C23.73 30.151 24.3216 35.6722 24.2665 38.2716C24.8879 44.506 23.7665 50.6339 22.8887 51.7049C22.0109 52.7759 20.6332 52.7759 20.1331 51.7049C19.6331 50.6339 20.4776 43.7827 20.4776 41.716C20.4776 39.6494 19.8878 34.2809 19.5751 31.7271Z" stroke="black" stroke-width="1.72222" stroke-linecap="round"/>
<mask id="path-3-inside-1_1080_1622" fill="white">
<path d="M5.77114 2.88158C5.61716 2.84336 5.46265 2.85639 5.32472 2.90862C5.27596 2.91934 5.22749 2.93516 5.18009 2.95623L3.46324 3.7194C3.08411 3.88799 2.91377 4.33233 3.08215 4.7115C3.25076 5.09069 3.6948 5.26206 4.07401 5.09354L4.49364 4.90691L3.52882 8.79383C3.36715 8.7015 3.19061 8.62838 3.00099 8.58131C1.89328 8.30646 0.772352 8.98228 0.497394 10.09C0.222673 11.1976 0.897578 12.3183 2.00512 12.5934C3.04367 12.8511 4.09442 12.274 4.44819 11.288L4.50848 11.0856L6.31885 3.79231C6.41882 3.38953 6.17388 2.98163 5.77114 2.88158Z"/>
</mask>
<path d="M5.77114 2.88158L6.10306 1.54438L6.10333 1.54445L5.77114 2.88158ZM5.32472 2.90862L5.81266 4.1971L5.71873 4.23267L5.62063 4.25425L5.32472 2.90862ZM5.18009 2.95623L4.62044 1.69724L4.62044 1.69724L5.18009 2.95623ZM3.46324 3.7194L2.90344 2.46047L2.9036 2.4604L3.46324 3.7194ZM3.08215 4.7115L1.82322 5.2713L1.82295 5.27068L3.08215 4.7115ZM4.07401 5.09354L4.63391 6.35242L4.63353 6.35259L4.07401 5.09354ZM4.49364 4.90691L3.93374 3.64802L6.51014 2.50215L5.83084 5.23883L4.49364 4.90691ZM3.52882 8.79383L4.86602 9.12576L4.42721 10.8936L2.84554 9.99024L3.52882 8.79383ZM3.00099 8.58131L3.3328 7.24409L3.33292 7.24412L3.00099 8.58131ZM0.497394 10.09L-0.839863 9.7583L-0.839805 9.75806L0.497394 10.09ZM2.00512 12.5934L1.6732 13.9306L1.67308 13.9305L2.00512 12.5934ZM4.44819 11.288L5.76861 11.6814L5.7578 11.7177L5.74502 11.7533L4.44819 11.288ZM4.50848 11.0856L5.84568 11.4175L5.838 11.4485L5.8289 11.479L4.50848 11.0856ZM5.77114 2.88158L5.43922 4.21878C5.57046 4.25136 5.70176 4.2391 5.81266 4.1971L5.32472 2.90862L4.83679 1.62014C5.22355 1.47367 5.66386 1.43536 6.10306 1.54438L5.77114 2.88158ZM5.32472 2.90862L5.62063 4.25425C5.66247 4.24505 5.70236 4.23184 5.73973 4.21523L5.18009 2.95623L4.62044 1.69724C4.75262 1.63848 4.88945 1.59364 5.02881 1.56299L5.32472 2.90862ZM5.18009 2.95623L5.73973 4.21523L4.02289 4.97839L3.46324 3.7194L2.9036 2.4604L4.62044 1.69724L5.18009 2.95623ZM3.46324 3.7194L4.02304 4.97833C4.34061 4.83712 4.48096 4.46669 4.34135 4.15232L3.08215 4.7115L1.82295 5.27068C1.34658 4.19797 1.82761 2.93886 2.90344 2.46047L3.46324 3.7194ZM3.08215 4.7115L4.34108 4.1517C4.20137 3.83752 3.83233 3.69324 3.5145 3.83448L4.07401 5.09354L4.63353 6.35259C3.55727 6.83087 2.30016 6.34387 1.82322 5.2713L3.08215 4.7115ZM4.07401 5.09354L3.51412 3.83465L3.93374 3.64802L4.49364 4.90691L5.05354 6.16579L4.63391 6.35242L4.07401 5.09354ZM4.49364 4.90691L5.83084 5.23883L4.86602 9.12576L3.52882 8.79383L2.19162 8.46191L3.15644 4.57498L4.49364 4.90691ZM3.52882 8.79383L2.84554 9.99024C2.78715 9.9569 2.72827 9.93321 2.66907 9.91851L3.00099 8.58131L3.33292 7.24412C3.65295 7.32356 3.94715 7.44611 4.2121 7.59742L3.52882 8.79383ZM3.00099 8.58131L2.66919 9.91854C2.30062 9.82709 1.92641 10.052 1.83459 10.4219L0.497394 10.09L-0.839805 9.75806C-0.381706 7.91254 1.48594 6.78583 3.3328 7.24409L3.00099 8.58131ZM0.497394 10.09L1.83465 10.4217C1.74304 10.791 1.96814 11.1645 2.33716 11.2562L2.00512 12.5934L1.67308 13.9305C-0.172984 13.4721 -1.29769 11.6041 -0.839863 9.7583L0.497394 10.09ZM2.00512 12.5934L2.33704 11.2562C2.68286 11.342 3.0341 11.1495 3.15136 10.8227L4.44819 11.288L5.74502 11.7533C5.15475 13.3984 3.40448 14.3603 1.6732 13.9306L2.00512 12.5934ZM4.44819 11.288L3.12777 10.8946L3.18807 10.6922L4.50848 11.0856L5.8289 11.479L5.76861 11.6814L4.44819 11.288ZM4.50848 11.0856L3.17129 10.7537L4.98165 3.46038L6.31885 3.79231L7.65604 4.12423L5.84568 11.4175L4.50848 11.0856ZM6.31885 3.79231L4.98165 3.46038C4.89881 3.79412 5.10142 4.13486 5.43896 4.21871L5.77114 2.88158L6.10333 1.54445C7.24634 1.82841 7.93884 2.98494 7.65604 4.12423L6.31885 3.79231Z" fill="black" mask="url(#path-3-inside-1_1080_1622)"/>
<mask id="path-5-inside-2_1080_1622" fill="white">
<path d="M27.0753 14.709C26.9361 14.7602 26.824 14.8518 26.7448 14.9646C26.7128 14.9984 26.6835 15.0357 26.658 15.0767L25.7319 16.5656C25.5271 16.8944 25.627 17.3272 25.9559 17.532C26.2847 17.7367 26.7172 17.6359 26.9219 17.307L27.1487 16.9417L28.4384 20.4516C28.265 20.4648 28.0905 20.5014 27.9191 20.5644C26.9192 20.9318 26.4065 22.04 26.774 23.0399C27.1414 24.0398 28.2496 24.5525 29.2495 24.1851C30.2439 23.8197 30.7564 22.7216 30.4007 21.726C30.3989 21.7205 30.3976 21.7147 30.3956 21.7092L27.9762 15.1249C27.8425 14.7616 27.4388 14.5754 27.0753 14.709Z"/>
</mask>
<path d="M27.0753 14.709L26.5992 13.4161L26.6001 13.4157L27.0753 14.709ZM26.7448 14.9646L27.8727 15.7559L27.8146 15.8387L27.745 15.9122L26.7448 14.9646ZM26.658 15.0767L25.488 14.349L25.4886 14.3481L26.658 15.0767ZM25.7319 16.5656L26.9018 17.2933L26.9014 17.2938L25.7319 16.5656ZM25.9559 17.532L25.2276 18.7015L25.2275 18.7015L25.9559 17.532ZM26.9219 17.307L28.0925 18.0338L28.0915 18.0354L26.9219 17.307ZM27.1487 16.9417L25.9782 16.215L27.4679 13.8157L28.442 16.4665L27.1487 16.9417ZM28.4384 20.4516L29.7317 19.9764L30.3601 21.6866L28.5433 21.8253L28.4384 20.4516ZM27.9191 20.5644L27.4439 19.2711L27.4439 19.2711L27.9191 20.5644ZM26.774 23.0399L25.4808 23.5152L25.4807 23.5151L26.774 23.0399ZM29.2495 24.1851L29.7247 25.4783L29.7247 25.4783L29.2495 24.1851ZM30.4007 21.726L29.1033 22.1895L29.0997 22.1794L29.0962 22.1693L30.4007 21.726ZM30.3956 21.7092L29.1024 22.1844L30.3956 21.7092ZM27.9762 15.1249L29.2692 14.649L29.2694 14.6497L27.9762 15.1249ZM27.0753 14.709L27.5514 16.0019C27.6918 15.9502 27.801 15.8581 27.8727 15.7559L26.7448 14.9646L25.6168 14.1734C25.8469 13.8454 26.1805 13.5702 26.5992 13.4161L27.0753 14.709ZM26.7448 14.9646L27.745 15.9122C27.7724 15.8833 27.8008 15.8478 27.8274 15.8052L26.658 15.0767L25.4886 14.3481C25.5661 14.2236 25.6532 14.1135 25.7446 14.0171L26.7448 14.9646ZM26.658 15.0767L27.8279 15.8044L26.9018 17.2933L25.7319 16.5656L24.5619 15.8379L25.488 14.349L26.658 15.0767ZM25.7319 16.5656L26.9014 17.2938C27.0976 16.9787 27.0033 16.5611 26.6842 16.3624L25.9559 17.532L25.2275 18.7015C24.2508 18.0933 23.9565 16.81 24.5623 15.8373L25.7319 16.5656ZM25.9559 17.532L26.6842 16.3624C26.3661 16.1643 25.9493 16.2626 25.7524 16.5787L26.9219 17.307L28.0915 18.0354C27.4851 19.0091 26.2033 19.3091 25.2276 18.7015L25.9559 17.532ZM26.9219 17.307L25.7514 16.5803L25.9782 16.215L27.1487 16.9417L28.3193 17.6685L28.0925 18.0338L26.9219 17.307ZM27.1487 16.9417L28.442 16.4665L29.7317 19.9764L28.4384 20.4516L27.1452 20.9268L25.8555 17.4169L27.1487 16.9417ZM28.4384 20.4516L28.5433 21.8253C28.4925 21.8292 28.4429 21.8397 28.3943 21.8576L27.9191 20.5644L27.4439 19.2711C27.738 19.163 28.0374 19.1004 28.3335 19.0778L28.4384 20.4516ZM27.9191 20.5644L28.3943 21.8576C28.1086 21.9626 27.9622 22.279 28.0672 22.5647L26.774 23.0399L25.4807 23.5151C24.8508 21.801 25.7297 19.901 27.4439 19.2711L27.9191 20.5644ZM26.774 23.0399L28.0672 22.5647C28.1722 22.8504 28.4887 22.9968 28.7743 22.8918L29.2495 24.1851L29.7247 25.4783C28.0105 26.1082 26.1107 25.2292 25.4808 23.5152L26.774 23.0399ZM29.2495 24.1851L28.7743 22.8918C29.0584 22.7875 29.2048 22.4738 29.1033 22.1895L30.4007 21.726L31.6982 21.2624C32.308 22.9693 31.4295 24.8519 29.7247 25.4783L29.2495 24.1851ZM30.4007 21.726L29.0962 22.1693C29.0873 22.143 29.0808 22.1215 29.0773 22.1093C29.0754 22.103 29.074 22.0979 29.0732 22.0952C29.0728 22.0938 29.0725 22.0927 29.0724 22.0922C29.0721 22.0914 29.0722 22.0917 29.0723 22.0918C29.0724 22.0923 29.0732 22.0952 29.0744 22.0992C29.0755 22.1033 29.0774 22.1095 29.0797 22.1171C29.0843 22.1321 29.0918 22.1557 29.1024 22.1844L30.3956 21.7092L31.6888 21.234C31.7004 21.2654 31.7088 21.2918 31.7143 21.3096C31.7195 21.3266 31.7234 21.3404 31.7242 21.3433C31.7243 21.3438 31.7245 21.3442 31.7245 21.3445C31.7246 21.3447 31.7246 21.3448 31.7246 21.3449C31.7247 21.345 31.7247 21.345 31.7247 21.3451C31.7248 21.3453 31.7246 21.3448 31.7244 21.3442C31.7241 21.3429 31.723 21.3392 31.7216 21.3344C31.7189 21.325 31.7133 21.3063 31.7053 21.2827L30.4007 21.726ZM30.3956 21.7092L29.1024 22.1844L26.683 15.6001L27.9762 15.1249L29.2694 14.6497L31.6888 21.234L30.3956 21.7092ZM27.9762 15.1249L26.6832 15.6008C26.8127 15.9527 27.2014 16.1305 27.5505 16.0022L27.0753 14.709L26.6001 13.4157C27.6762 13.0203 28.8722 13.5705 29.2692 14.649L27.9762 15.1249Z" fill="black" mask="url(#path-5-inside-2_1080_1622)"/>
<mask id="path-7-inside-3_1080_1622" fill="white">
<path d="M9.53553 28.3112L5.24177 29.7202C5.01571 29.7945 4.86904 29.9981 4.85491 30.2219C4.83857 30.2802 4.82829 30.3414 4.83182 30.4051L5.0566 34.4556C4.92024 34.4251 4.77754 34.4124 4.63115 34.4205C3.77449 34.468 3.11837 35.2012 3.16591 36.0579C3.21359 36.9144 3.94675 37.5707 4.80332 37.5231C5.57741 37.4801 6.1853 36.8766 6.26053 36.1287C6.27023 36.0818 6.27575 36.0334 6.273 35.9833L6.26856 35.9033C6.2683 35.8975 6.26888 35.8916 6.26856 35.8857C6.26822 35.8796 6.26696 35.8733 6.26656 35.8672L5.97799 30.6672L9.31308 29.5726L9.50517 33.034C9.36859 33.0035 9.22535 32.9899 9.07869 32.998C8.22224 33.0458 7.56692 33.7789 7.61443 34.6354C7.66197 35.4919 8.39438 36.148 9.25087 36.1007C10.1075 36.0531 10.7636 35.3199 10.7161 34.4633L10.4031 28.8235C10.3858 28.5121 10.1196 28.2741 9.80828 28.2912C9.80646 28.2913 9.80424 28.2914 9.80243 28.2915C9.71572 28.2773 9.6248 28.282 9.53553 28.3112Z"/>
</mask>
<path d="M9.53553 28.3112L9.10594 27.0021L9.10617 27.0021L9.53553 28.3112ZM5.24177 29.7202L4.81198 28.4112L4.81218 28.4112L5.24177 29.7202ZM4.85491 30.2219L6.22995 30.3088L6.22078 30.454L6.18148 30.5941L4.85491 30.2219ZM4.83182 30.4051L3.45616 30.4815L3.45615 30.4813L4.83182 30.4051ZM5.0566 34.4556L6.43226 34.3792L6.53315 36.1973L4.75612 35.8002L5.0566 34.4556ZM4.63115 34.4205L4.55481 33.0448L4.555 33.0448L4.63115 34.4205ZM3.16591 36.0579L1.79026 36.1345L1.79025 36.1342L3.16591 36.0579ZM4.80332 37.5231L4.87986 38.8988L4.87966 38.8988L4.80332 37.5231ZM6.26053 36.1287L4.88967 35.9908L4.89683 35.9197L4.91132 35.8496L6.26053 36.1287ZM6.273 35.9833L7.64866 35.9069L7.64869 35.9075L6.273 35.9833ZM6.26856 35.9033L4.8929 35.9797L4.89247 35.9719L4.89213 35.9642L6.26856 35.9033ZM6.26856 35.8857L7.64422 35.8094L7.64423 35.8096L6.26856 35.8857ZM6.26656 35.8672L4.89187 35.9595L4.89134 35.9515L4.89089 35.9436L6.26656 35.8672ZM5.97799 30.6672L4.60233 30.7436L4.54374 29.6879L5.54831 29.3582L5.97799 30.6672ZM9.31308 29.5726L8.88341 28.2635L10.5893 27.7036L10.6887 29.4962L9.31308 29.5726ZM9.50517 33.034L10.8808 32.9577L10.9818 34.7764L9.20424 34.3785L9.50517 33.034ZM9.07869 32.998L9.00201 31.6224L9.00235 31.6224L9.07869 32.998ZM7.61443 34.6354L6.23877 34.7117L6.23877 34.7117L7.61443 34.6354ZM9.25087 36.1007L9.32721 37.4763L9.32687 37.4764L9.25087 36.1007ZM10.4031 28.8235L11.7788 28.7471L11.7788 28.7472L10.4031 28.8235ZM9.80828 28.2912L9.73193 26.9155L9.73291 26.9155L9.80828 28.2912ZM9.80243 28.2915L9.89177 29.6664L9.73438 29.6766L9.57874 29.651L9.80243 28.2915ZM9.53553 28.3112L9.96511 29.6203L5.67136 31.0293L5.24177 29.7202L4.81218 28.4112L9.10594 27.0021L9.53553 28.3112ZM5.24177 29.7202L5.67156 31.0293C6.00334 30.9203 6.21009 30.6233 6.22995 30.3088L4.85491 30.2219L3.47987 30.1351C3.528 29.3729 4.02807 28.6686 4.81198 28.4112L5.24177 29.7202ZM4.85491 30.2219L6.18148 30.5941C6.19156 30.5581 6.21485 30.4618 6.20749 30.329L4.83182 30.4051L3.45615 30.4813C3.44173 30.2209 3.48558 30.0023 3.52834 29.8498L4.85491 30.2219ZM4.83182 30.4051L6.20748 30.3288L6.43226 34.3792L5.0566 34.4556L3.68093 34.5319L3.45616 30.4815L4.83182 30.4051ZM5.0566 34.4556L4.75612 35.8002C4.74032 35.7966 4.72432 35.7952 4.7073 35.7962L4.63115 34.4205L4.555 33.0448C4.83075 33.0295 5.10015 33.0535 5.35707 33.1109L5.0566 34.4556ZM4.63115 34.4205L4.70749 35.7961C4.61058 35.8015 4.5362 35.8847 4.54157 35.9816L3.16591 36.0579L1.79025 36.1342C1.70055 34.5178 2.93839 33.1345 4.55481 33.0448L4.63115 34.4205ZM3.16591 36.0579L4.54156 35.9813C4.54697 36.0785 4.6304 36.1528 4.72698 36.1475L4.80332 37.5231L4.87966 38.8988C3.26311 38.9885 1.8802 37.7503 1.79026 36.1345L3.16591 36.0579ZM4.80332 37.5231L4.72679 36.1475C4.80964 36.1429 4.88093 36.0777 4.88967 35.9908L6.26053 36.1287L7.63139 36.2666C7.48968 37.6755 6.34518 38.8173 4.87986 38.8988L4.80332 37.5231ZM6.26053 36.1287L4.91132 35.8496C4.90413 35.8844 4.8918 35.9591 4.8973 36.0591L6.273 35.9833L7.64869 35.9075C7.65971 36.1076 7.63634 36.2793 7.60973 36.4079L6.26053 36.1287ZM6.273 35.9833L4.89733 36.0596L4.8929 35.9797L6.26856 35.9033L7.64422 35.827L7.64866 35.9069L6.273 35.9833ZM6.26856 35.9033L4.89213 35.9642C4.89063 35.9304 4.89062 35.9029 4.89077 35.8864C4.89085 35.878 4.89099 35.8711 4.89107 35.8669C4.89112 35.8648 4.89116 35.863 4.89119 35.862C4.8912 35.8614 4.89121 35.861 4.89122 35.8607C4.89123 35.8603 4.89123 35.8604 4.89123 35.8602C4.89124 35.8597 4.89117 35.8626 4.8911 35.8664C4.89102 35.8704 4.89092 35.877 4.89089 35.8853C4.89083 35.9016 4.89104 35.9285 4.89289 35.9618L6.26856 35.8857L7.64423 35.8096C7.64624 35.8459 7.6465 35.8757 7.64643 35.8949C7.6464 35.9047 7.64627 35.9128 7.64617 35.9183C7.64607 35.9235 7.64596 35.9278 7.64593 35.9288C7.64588 35.9309 7.64594 35.9287 7.64599 35.9265C7.64604 35.9238 7.64615 35.9184 7.64622 35.9114C7.64634 35.8978 7.64636 35.8733 7.64499 35.8425L6.26856 35.9033ZM6.26856 35.8857L4.8929 35.9621C4.89379 35.9782 4.89488 35.9924 4.89592 36.0042C4.89696 36.016 4.898 36.026 4.89885 36.0336C4.89969 36.0412 4.90043 36.0472 4.90089 36.0508C4.90132 36.0542 4.90165 36.0568 4.90159 36.0563C4.90157 36.0561 4.90157 36.0562 4.90153 36.0558C4.90149 36.0556 4.90144 36.0551 4.90137 36.0546C4.90124 36.0537 4.90103 36.052 4.90078 36.0501C4.90029 36.0463 4.89949 36.0399 4.89858 36.0322C4.89766 36.0243 4.89652 36.0141 4.89537 36.0022C4.89421 35.9902 4.89296 35.9758 4.89187 35.9595L6.26656 35.8672L7.64124 35.775C7.63931 35.7461 7.63681 35.7234 7.63541 35.7115C7.63468 35.7053 7.63407 35.7005 7.63378 35.6982C7.63356 35.6965 7.6333 35.6945 7.63358 35.6967C7.63372 35.6977 7.63426 35.7018 7.63488 35.7068C7.63553 35.7119 7.63646 35.7195 7.63747 35.7286C7.63945 35.7464 7.64229 35.7747 7.64422 35.8094L6.26856 35.8857ZM6.26656 35.8672L4.89089 35.9436L4.60233 30.7436L5.97799 30.6672L7.35365 30.5909L7.64222 35.7909L6.26656 35.8672ZM5.97799 30.6672L5.54831 29.3582L8.88341 28.2635L9.31308 29.5726L9.74276 30.8816L6.40766 31.9763L5.97799 30.6672ZM9.31308 29.5726L10.6887 29.4962L10.8808 32.9577L9.50517 33.034L8.12951 33.1104L7.93742 29.6489L9.31308 29.5726ZM9.50517 33.034L9.20424 34.3785C9.18331 34.3739 9.1671 34.373 9.15504 34.3737L9.07869 32.998L9.00235 31.6224C9.2836 31.6068 9.55386 31.6331 9.80611 31.6895L9.50517 33.034ZM9.07869 32.998L9.15537 34.3737C9.05922 34.379 8.98468 34.4615 8.9901 34.5591L7.61443 34.6354L6.23877 34.7117C6.14916 33.0963 7.38526 31.7125 9.00201 31.6224L9.07869 32.998ZM7.61443 34.6354L8.9901 34.5591C8.99551 34.6566 9.07867 34.7303 9.17487 34.725L9.25087 36.1007L9.32687 37.4764C7.71009 37.5657 6.32842 36.3272 6.23877 34.7117L7.61443 34.6354ZM9.25087 36.1007L9.17453 34.725C9.27144 34.7196 9.34582 34.6365 9.34045 34.5396L10.7161 34.4633L12.0918 34.3869C12.1815 36.0033 10.9436 37.3866 9.32721 37.4763L9.25087 36.1007ZM10.7161 34.4633L9.34045 34.5396L9.02748 28.8999L10.4031 28.8235L11.7788 28.7472L12.0918 34.3869L10.7161 34.4633ZM10.4031 28.8235L9.02748 28.8999C9.05242 29.3492 9.43687 29.6914 9.88364 29.6669L9.80828 28.2912L9.73291 26.9155C10.8023 26.8569 11.7193 27.6751 11.7788 28.7471L10.4031 28.8235ZM9.80828 28.2912L9.88462 29.6669C9.8822 29.667 9.88018 29.6671 9.87944 29.6671C9.87808 29.6672 9.87874 29.6672 9.87876 29.6672C9.87912 29.6672 9.88052 29.6671 9.88244 29.667C9.88432 29.6669 9.8876 29.6667 9.89177 29.6664L9.80243 28.2915L9.71308 26.9166C9.71815 26.9163 9.7224 26.9161 9.72526 26.9159C9.72816 26.9157 9.73057 26.9156 9.73193 26.9155C9.73265 26.9155 9.73326 26.9155 9.73362 26.9154C9.73422 26.9154 9.73402 26.9154 9.73426 26.9154C9.7345 26.9154 9.73344 26.9155 9.73193 26.9155L9.80828 28.2912ZM9.80243 28.2915L9.57874 29.651C9.69377 29.67 9.82807 29.6653 9.96489 29.6204L9.53553 28.3112L9.10617 27.0021C9.42153 26.8986 9.73766 26.8846 10.0261 26.932L9.80243 28.2915Z" fill="black" mask="url(#path-7-inside-3_1080_1622)"/>
</g>
<defs>
<clipPath id="clip0_1080_1622">
<rect width="33.6058" height="53.0444" fill="white"/>
</clipPath>
</defs>
</svg>
