<svg width="60" height="63" viewBox="0 0 60 63" fill="none" xmlns="http://www.w3.org/2000/svg">
<path d="M52.6172 5.59086C52.6172 5.59086 53.8504 3.11786 55.4307 4.31449C58.1515 6.37606 49.0465 15.55 47.8496 17.1455C47.5669 17.5225 47.1016 18.0024 46.5068 18.5567C45.7313 19.1655 44.7884 19.8588 43.7646 20.5889C41.579 22.1476 39.0213 23.8914 37.0469 25.3477L37.0273 25.3623L36.0156 26.2061C35.8465 26.3471 35.8239 26.5985 35.9648 26.7676C36.1059 26.9364 36.3573 26.9593 36.5264 26.8184L37.5273 25.9834C37.7702 25.8044 38.0213 25.621 38.2793 25.4346V27.5127C38.2793 29.7583 35.9641 35.1537 35.1855 36.9053C34.2462 36.8873 33.3368 36.8594 32.5811 36.8174C32.3612 36.8052 32.1734 36.9736 32.1611 37.1934C32.1491 37.4131 32.3174 37.6011 32.5371 37.6133C34.0667 37.6983 36.2037 37.7253 37.9521 37.7315C38.8262 37.7346 39.6057 37.7325 40.167 37.7295C42.6396 38.0887 45.0576 38.8928 45.0576 40.6709C45.0576 43.5553 46.2541 43.9959 44.2139 60.2891C43.8739 63.0016 40.1256 62.6089 39.874 61.8037C39.0306 59.1037 41.0702 47.0505 40.2451 44.3018C39.9031 43.1656 33.5797 43.6112 30.7715 43.8662C30.7586 43.864 30.7456 43.8623 30.7324 43.8614L30.668 43.8623H30.666C30.6646 43.8625 30.662 43.863 30.6592 43.8633C30.6522 43.8639 30.6404 43.8642 30.626 43.8653C30.5962 43.8674 30.5501 43.871 30.4922 43.8741C30.376 43.8802 30.2067 43.8869 30.001 43.8877C29.5876 43.8893 29.0292 43.8682 28.4443 43.7793C27.8567 43.6899 27.2594 43.5336 26.7578 43.2764C26.2586 43.0203 25.874 42.6752 25.668 42.211C25.5787 42.0098 25.3428 41.9188 25.1416 42.0079C24.9406 42.0973 24.8502 42.3331 24.9395 42.5342C25.2406 43.2126 25.7854 43.6744 26.3936 43.9864C26.9994 44.297 27.689 44.4708 28.3242 44.5674C28.4705 44.5897 28.6149 44.6064 28.7559 44.6211C27.1601 46.0698 23.0269 49.8109 18.8076 53.5147C14.475 57.0284 10.1552 60.4673 8.22559 61.794C8.06132 61.9069 8.00883 62.1207 8.09277 62.295C6.68421 62.812 2.85309 63.0371 3.46289 61.5118C4.13774 59.8245 10.1111 54.3289 14.0928 50.376C16.2861 47.8452 24.8561 37.5898 25.8096 35.2862C27.4293 31.3719 28.9612 26.3844 29.4473 24.5616C30.1184 22.0449 35.0339 20.6957 35.0889 20.6807C43.057 15.2341 46.6214 11.8214 52.6172 5.59086Z" fill="black"/>
<path d="M35.6885 12.0773C38.1107 12.0773 40.0749 14.0409 40.0752 16.463C40.0752 16.4645 40.0742 16.4664 40.0742 16.4679C38.5399 17.6418 36.8401 18.867 34.8672 20.2169C34.8304 20.2276 34.7822 20.2423 34.7246 20.2599C34.582 20.3034 34.3787 20.3679 34.1338 20.4533C34.0859 20.47 34.0364 20.4877 33.9854 20.506C32.4092 19.841 31.3027 18.2812 31.3027 16.463C31.303 14.041 33.2664 12.0775 35.6885 12.0773Z" fill="black"/>
<path d="M0.797852 62.4019L55.8232 62.4019" stroke="black" stroke-width="1.1962" stroke-linecap="round"/>
</svg>
