<svg width="40" height="68" viewBox="0 0 40 68" fill="none" xmlns="http://www.w3.org/2000/svg">
<g clip-path="url(#clip0_1303_3561)">
<circle cx="19.8705" cy="12.8061" r="3.97403" fill="black" stroke="black" stroke-width="0.883117"/>
<path d="M16.0963 19.4766C16.8039 19.7045 22.7198 20.3597 23.6029 20.3597C24.486 20.3597 28.3128 13.5891 28.46 12.4116C28.6072 11.2341 29.7847 4.90513 30.2263 3.58046C30.6678 2.25578 32.6489 1.58986 33.7587 2.25578C34.8686 2.9217 33.0037 11.2813 32.6762 13.2464C32.3487 15.2116 28.46 22.1259 26.9359 24.2854C25.4118 26.4449 30.0309 34.7438 30.2263 36.6973C30.4216 38.6509 31.1801 45.7288 31.1094 49.061C31.906 57.0532 30.4684 64.9088 29.3432 66.2818C28.2179 67.6547 26.4517 67.6547 25.8107 66.2818C25.1697 64.9088 26.2522 56.1259 26.2522 53.4766C26.2522 50.8272 25.4962 43.9452 25.0953 40.6714L23.6029 52.5934C23.1613 54.3597 17.6598 65.0673 15.4554 66.5369C14.1307 67.42 13.0054 67.9098 11.4813 66.5369C9.95727 65.1639 17.421 53.9181 17.8626 51.2688C18.3041 48.6194 20.0704 38.9051 19.6289 37.5805C19.1873 36.2558 16.7712 31.1193 16.0963 29.6324C14.8786 26.9492 14.1894 24.0765 12.5639 22.1259C10.3562 19.4766 8.14829 13.2948 9.03141 11.087C9.91453 8.87913 13.7788 0.158607 16.0963 0.931096C17.421 1.37263 18.3041 1.81423 17.8626 3.13891C17.421 4.46359 13.892 10.7295 13.447 11.9701C13.002 13.2107 15.3888 19.2486 16.0963 19.4766Z" fill="black"/>
<path d="M26.2522 40.6714H25.0953M25.0953 40.6714L23.6029 52.5934C23.1613 54.3597 17.6598 65.0673 15.4554 66.5369C14.1307 67.42 13.0054 67.9098 11.4813 66.5369C9.95727 65.1639 17.421 53.9181 17.8626 51.2688C18.3041 48.6194 20.0704 38.9051 19.6289 37.5805C19.1873 36.2558 16.7712 31.1193 16.0963 29.6324C14.8786 26.9492 14.1894 24.0765 12.5639 22.1259C10.3562 19.4766 8.14829 13.2948 9.03141 11.087C9.91453 8.87913 13.7788 0.158607 16.0963 0.931096C17.421 1.37263 18.3041 1.81423 17.8626 3.13891C17.421 4.46359 13.892 10.7295 13.447 11.9701C13.002 13.2107 15.3888 19.2486 16.0963 19.4766C16.8039 19.7045 22.7198 20.3597 23.6029 20.3597C24.486 20.3597 28.3128 13.5891 28.46 12.4116C28.6072 11.2341 29.7847 4.90513 30.2263 3.58046C30.6678 2.25578 32.6489 1.58986 33.7587 2.25578C34.8686 2.9217 33.0037 11.2813 32.6762 13.2464C32.3487 15.2116 28.46 22.1259 26.9359 24.2854C25.4118 26.4449 30.0309 34.7438 30.2263 36.6973C30.4216 38.6509 31.1801 45.7288 31.1094 49.061C31.906 57.0532 30.4684 64.9088 29.3432 66.2818C28.2179 67.6547 26.4517 67.6547 25.8107 66.2818C25.1697 64.9088 26.2522 56.1259 26.2522 53.4766C26.2522 50.8272 25.4962 43.9452 25.0953 40.6714Z" stroke="black" stroke-width="0.883117" stroke-linecap="round"/>
<path d="M7.40046 3.69357C7.19686 3.64313 6.99264 3.66214 6.81171 3.73459C6.75503 3.74816 6.69882 3.76694 6.64365 3.79148L4.4428 4.76957C3.95663 4.98575 3.73775 5.55563 3.95394 6.04181C4.17021 6.52754 4.73929 6.74625 5.22523 6.53043L5.76366 6.29079L4.52641 11.2753C4.31878 11.1565 4.09217 11.0628 3.84855 11.0024C2.42847 10.6499 0.991395 11.5154 0.638898 12.9355C0.286449 14.3555 1.15196 15.7926 2.57201 16.1451C3.95777 16.4891 5.35698 15.6724 5.75151 14.3132C5.76368 14.2802 5.77416 14.2462 5.78284 14.2113L8.10397 4.86031C8.2319 4.34404 7.91673 3.82173 7.40046 3.69357Z" fill="black"/>
<path d="M34.7085 18.8571C34.5255 18.9244 34.3779 19.0451 34.276 19.1949C34.2388 19.2355 34.2043 19.2797 34.1741 19.3281L32.9861 21.2368C32.7236 21.6584 32.8521 22.2128 33.2737 22.4754C33.6952 22.7377 34.2494 22.6083 34.5119 22.1868L34.8023 21.7201L36.4555 26.219C36.2327 26.2359 36.0082 26.2814 35.7881 26.3622C34.5065 26.8333 33.8493 28.2543 34.32 29.536C34.791 30.8179 36.2123 31.476 37.4941 31.005C38.7414 30.5467 39.3948 29.1894 38.9954 27.9356C38.9871 27.9008 38.977 27.866 38.9644 27.8315L35.8629 19.3911C35.6917 18.925 35.1746 18.6858 34.7085 18.8571Z" fill="black"/>
<path d="M12.2237 36.291L6.71868 38.0988C6.43037 38.1937 6.24349 38.4522 6.22402 38.7375C6.20213 38.8135 6.18869 38.8935 6.19329 38.9769L6.48159 44.172C6.30649 44.1328 6.12323 44.1156 5.93523 44.1261C4.83721 44.1871 3.99658 45.1265 4.05741 46.2245C4.11835 47.3227 5.05784 48.1642 6.15595 48.1033C7.15133 48.0481 7.93344 47.2703 8.02611 46.3075C8.03753 46.2494 8.04401 46.1895 8.04059 46.1277L8.03474 46.0224C8.03446 46.0163 8.03503 46.0099 8.03469 46.0038C8.03434 45.9976 8.03308 45.9915 8.03269 45.9854L7.66236 39.312L11.9398 37.9088L12.1862 42.3483C12.0107 42.3088 11.8272 42.2909 11.6388 42.3014C10.5406 42.3623 9.6991 43.3027 9.76005 44.4009C9.82116 45.4989 10.7614 46.3396 11.8595 46.2787C12.9513 46.2179 13.7887 45.2887 13.7384 44.1987C13.7382 44.1926 13.7386 44.1862 13.7383 44.1801L13.3371 36.95C13.3149 36.5507 12.9728 36.2445 12.5734 36.2667C12.5712 36.2668 12.5689 36.2669 12.5666 36.2671C12.4553 36.2486 12.3383 36.2534 12.2237 36.291Z" fill="black"/>
</g>
<defs>
<clipPath id="clip0_1303_3561">
<rect width="39.7403" height="68" fill="white"/>
</clipPath>
</defs>
</svg>
