<svg width="68" height="49" viewBox="0 0 68 49" fill="none" xmlns="http://www.w3.org/2000/svg">
<g clip-path="url(#clip0_1300_1679)">
<circle cx="6.70192" cy="6.70192" r="5.95192" transform="matrix(-1 0 0 1 45.4043 2)" fill="black" stroke="black" stroke-width="1.5"/>
<path d="M65.9043 48.1432H3" stroke="black" stroke-width="2" stroke-linecap="round"/>
<path d="M10.998 10.8193C13.2058 11.6241 14.6911 12.1129 16.1836 12.0908C17.6673 12.0688 19.0547 11.538 21.0039 10.8174L19.9629 8.00293C17.8397 8.78789 16.9956 9.07901 16.1396 9.0918C15.2923 9.10431 14.3276 8.84011 12.0254 8.00098L10.998 10.8193Z" fill="black"/>
<mask id="path-4-inside-1_1300_1679" fill="white">
<path d="M15.6299 5.80539C14.862 5.79085 14.195 6.15999 13.6006 6.74094L13.3506 7.00266L13.2871 7.0798C13.1476 7.26773 13.0607 7.50227 13.0029 7.67746C12.9249 7.91437 12.8511 8.20701 12.7812 8.53586C12.6409 9.19653 12.5045 10.063 12.3848 11.0573C12.1451 13.0487 11.9634 15.6024 11.9395 18.1521C11.9157 20.694 12.0481 23.2717 12.4512 25.2956C12.6521 26.3044 12.9288 27.2198 13.3135 27.9333C13.6932 28.6375 14.2418 29.2586 15.0342 29.4568C16.3852 29.7945 17.7976 29.5478 19.0996 29.0661C20.4067 28.5825 21.6687 27.8373 22.7549 27.0915C23.6616 26.469 24.4633 25.8325 25.083 25.3279C25.072 25.4179 25.0616 25.5115 25.0498 25.6071C24.9205 26.6514 24.7428 28.0056 24.5488 29.4148C24.1591 32.2457 23.7093 35.2605 23.46 36.4587C23.1852 37.7792 23.1285 40.5895 23.1318 42.9773C23.1335 44.191 23.1507 45.3278 23.168 46.1599C23.1766 46.5757 23.185 46.9164 23.1914 47.153C23.1946 47.2712 23.1974 47.3646 23.1992 47.4275C23.2001 47.4584 23.2017 47.4826 23.2021 47.4987V47.5241L23.2256 48.2448H43.0723L42.5791 47.1862C42.2827 46.5499 42.0076 45.9048 41.7461 45.2439C42.0588 45.3641 42.3894 45.3826 42.6904 45.3542C43.0634 45.3189 43.4568 45.2088 43.8438 45.0632C44.6181 44.7717 45.481 44.2915 46.3115 43.7575C47.9738 42.6888 49.6386 41.3191 50.4307 40.5271C51.1766 39.7811 52.0561 38.8632 52.5752 37.7507C53.1154 36.5927 53.2565 35.2446 52.5869 33.7038C52.1489 32.6961 50.9054 30.7341 49.416 28.5769C48.2324 26.8627 46.8639 24.9827 45.5518 23.279C43.7532 20.9438 41.9961 18.8541 40.9648 18.029L40.876 17.9577L40.7695 17.9167C36.8062 16.3741 34.417 15.7464 30.0488 14.8806C28.7966 14.6324 27.4998 14.8317 26.293 15.2165C25.0828 15.6025 23.913 16.1909 22.8936 16.7741C21.8819 17.353 20.9681 17.9576 20.335 18.3493C20.2361 18.4105 20.1441 18.4644 20.0615 18.5134C20.0405 18.2738 20.0178 17.9856 19.999 17.654C19.9439 16.6813 19.8932 15.3585 19.793 14.0075C19.6925 12.6535 19.5401 11.2216 19.2734 9.99094C19.14 9.37527 18.9735 8.79127 18.7627 8.28391C18.5547 7.78341 18.2843 7.31124 17.918 6.96164C17.2327 6.30771 16.4795 5.82161 15.6299 5.80539ZM39.4521 29.03C39.9158 29.5847 40.6687 30.5134 41.4736 31.532C42.6166 32.9783 43.7961 34.5165 44.2959 35.2566C44.2672 35.3052 44.208 35.3918 44.083 35.5124C43.7296 35.8531 43.1534 36.228 42.4404 36.698C41.7642 37.1437 40.9888 37.6614 40.377 38.239C40.1527 38.4507 39.9329 38.6869 39.7432 38.947C39.614 38.4573 39.484 37.9523 39.3535 37.4304C38.886 35.5603 38.8588 33.0035 39.0801 31.0241C39.1736 30.1875 39.3076 29.4983 39.4521 29.03Z"/>
</mask>
<path d="M15.6299 5.80539C14.862 5.79085 14.195 6.15999 13.6006 6.74094L13.3506 7.00266L13.2871 7.0798C13.1476 7.26773 13.0607 7.50227 13.0029 7.67746C12.9249 7.91437 12.8511 8.20701 12.7812 8.53586C12.6409 9.19653 12.5045 10.063 12.3848 11.0573C12.1451 13.0487 11.9634 15.6024 11.9395 18.1521C11.9157 20.694 12.0481 23.2717 12.4512 25.2956C12.6521 26.3044 12.9288 27.2198 13.3135 27.9333C13.6932 28.6375 14.2418 29.2586 15.0342 29.4568C16.3852 29.7945 17.7976 29.5478 19.0996 29.0661C20.4067 28.5825 21.6687 27.8373 22.7549 27.0915C23.6616 26.469 24.4633 25.8325 25.083 25.3279C25.072 25.4179 25.0616 25.5115 25.0498 25.6071C24.9205 26.6514 24.7428 28.0056 24.5488 29.4148C24.1591 32.2457 23.7093 35.2605 23.46 36.4587C23.1852 37.7792 23.1285 40.5895 23.1318 42.9773C23.1335 44.191 23.1507 45.3278 23.168 46.1599C23.1766 46.5757 23.185 46.9164 23.1914 47.153C23.1946 47.2712 23.1974 47.3646 23.1992 47.4275C23.2001 47.4584 23.2017 47.4826 23.2021 47.4987V47.5241L23.2256 48.2448H43.0723L42.5791 47.1862C42.2827 46.5499 42.0076 45.9048 41.7461 45.2439C42.0588 45.3641 42.3894 45.3826 42.6904 45.3542C43.0634 45.3189 43.4568 45.2088 43.8438 45.0632C44.6181 44.7717 45.481 44.2915 46.3115 43.7575C47.9738 42.6888 49.6386 41.3191 50.4307 40.5271C51.1766 39.7811 52.0561 38.8632 52.5752 37.7507C53.1154 36.5927 53.2565 35.2446 52.5869 33.7038C52.1489 32.6961 50.9054 30.7341 49.416 28.5769C48.2324 26.8627 46.8639 24.9827 45.5518 23.279C43.7532 20.9438 41.9961 18.8541 40.9648 18.029L40.876 17.9577L40.7695 17.9167C36.8062 16.3741 34.417 15.7464 30.0488 14.8806C28.7966 14.6324 27.4998 14.8317 26.293 15.2165C25.0828 15.6025 23.913 16.1909 22.8936 16.7741C21.8819 17.353 20.9681 17.9576 20.335 18.3493C20.2361 18.4105 20.1441 18.4644 20.0615 18.5134C20.0405 18.2738 20.0178 17.9856 19.999 17.654C19.9439 16.6813 19.8932 15.3585 19.793 14.0075C19.6925 12.6535 19.5401 11.2216 19.2734 9.99094C19.14 9.37527 18.9735 8.79127 18.7627 8.28391C18.5547 7.78341 18.2843 7.31124 17.918 6.96164C17.2327 6.30771 16.4795 5.82161 15.6299 5.80539ZM39.4521 29.03C39.9158 29.5847 40.6687 30.5134 41.4736 31.532C42.6166 32.9783 43.7961 34.5165 44.2959 35.2566C44.2672 35.3052 44.208 35.3918 44.083 35.5124C43.7296 35.8531 43.1534 36.228 42.4404 36.698C41.7642 37.1437 40.9888 37.6614 40.377 38.239C40.1527 38.4507 39.9329 38.6869 39.7432 38.947C39.614 38.4573 39.484 37.9523 39.3535 37.4304C38.886 35.5603 38.8588 33.0035 39.0801 31.0241C39.1736 30.1875 39.3076 29.4983 39.4521 29.03Z" fill="black"/>
<path d="M15.6299 5.80539L15.6488 4.80557L15.649 4.80557L15.6299 5.80539ZM13.6006 6.74094L12.8775 6.0502L12.8893 6.03779L12.9016 6.0258L13.6006 6.74094ZM13.3506 7.00266L12.5784 6.36729L12.6019 6.3387L12.6275 6.31192L13.3506 7.00266ZM13.2871 7.0798L12.4843 6.48362L12.4991 6.46365L12.5149 6.44444L13.2871 7.0798ZM13.0029 7.67746L12.0531 7.36463L12.0532 7.36443L13.0029 7.67746ZM12.7812 8.53586L11.8031 8.32808L11.8031 8.32804L12.7812 8.53586ZM12.3848 11.0573L11.3919 10.9378L11.3919 10.9378L12.3848 11.0573ZM11.9395 18.1521L10.9395 18.1427L10.9395 18.1427L11.9395 18.1521ZM12.4512 25.2956L11.4704 25.491L11.4704 25.4909L12.4512 25.2956ZM13.3135 27.9333L12.4333 28.4079L12.4332 28.4079L13.3135 27.9333ZM15.0342 29.4568L14.7917 30.4269L14.7916 30.4269L15.0342 29.4568ZM19.0996 29.0661L19.4466 30.004L19.4466 30.004L19.0996 29.0661ZM22.7549 27.0915L23.3209 27.9159L23.3209 27.9159L22.7549 27.0915ZM25.083 25.3279L24.4516 24.5524L26.3758 22.9855L26.0757 25.4488L25.083 25.3279ZM25.0498 25.6071L26.0422 25.73V25.73L25.0498 25.6071ZM24.5488 29.4148L25.5395 29.5512L25.5395 29.5512L24.5488 29.4148ZM23.46 36.4587L22.4809 36.255L22.4809 36.2549L23.46 36.4587ZM23.1318 42.9773L22.1318 42.9787V42.9787L23.1318 42.9773ZM23.168 46.1599L22.1682 46.1807V46.1807L23.168 46.1599ZM23.1914 47.153L22.1918 47.1801V47.1801L23.1914 47.153ZM23.1992 47.4275L22.1997 47.4573L22.1997 47.4571L23.1992 47.4275ZM23.2021 47.4987L24.2017 47.468L24.2021 47.4834V47.4987H23.2021ZM23.2021 47.5241L22.2027 47.5566L22.2021 47.5404V47.5241H23.2021ZM23.2256 48.2448V49.2448H22.2576L22.2261 48.2773L23.2256 48.2448ZM43.0723 48.2448L43.9787 47.8226L44.6413 49.2448H43.0723V48.2448ZM42.5791 47.1862L41.6726 47.6085L41.6726 47.6085L42.5791 47.1862ZM41.7461 45.2439L40.8163 45.6118L39.9776 43.4927L42.1049 44.3105L41.7461 45.2439ZM42.6904 45.3542L42.7846 46.3498L42.7845 46.3498L42.6904 45.3542ZM43.8438 45.0632L44.1961 45.9991L44.196 45.9991L43.8438 45.0632ZM46.3115 43.7575L46.8523 44.5987L46.8523 44.5987L46.3115 43.7575ZM50.4307 40.5271L51.1378 41.2342L51.1377 41.2342L50.4307 40.5271ZM52.5752 37.7507L53.4814 38.1735L53.4814 38.1736L52.5752 37.7507ZM52.5869 33.7038L53.504 33.3052L53.504 33.3052L52.5869 33.7038ZM49.416 28.5769L50.2389 28.0087L50.2389 28.0087L49.416 28.5769ZM45.5518 23.279L46.344 22.6688L46.344 22.6688L45.5518 23.279ZM40.9648 18.029L40.3401 18.8099L40.3391 18.8091L40.9648 18.029ZM40.876 17.9577L41.2355 17.0246L41.3805 17.0805L41.5017 17.1777L40.876 17.9577ZM40.7695 17.9167L40.41 18.8498L40.4068 18.8486L40.7695 17.9167ZM30.0488 14.8806L30.2432 13.8997L30.2432 13.8997L30.0488 14.8806ZM26.293 15.2165L25.9891 14.2638L25.9892 14.2638L26.293 15.2165ZM22.8936 16.7741L22.3969 15.9062L22.3969 15.9062L22.8936 16.7741ZM20.335 18.3493L20.8611 19.1997L20.861 19.1998L20.335 18.3493ZM20.0615 18.5134L20.5722 19.3731L19.2044 20.1857L19.0653 18.6008L20.0615 18.5134ZM19.999 17.654L19.0006 17.7106L19.0006 17.7106L19.999 17.654ZM19.793 14.0075L20.7902 13.9335V13.9335L19.793 14.0075ZM19.2734 9.99094L20.2508 9.77913L20.2508 9.77917L19.2734 9.99094ZM18.7627 8.28391L19.6861 7.90017L19.6862 7.90025L18.7627 8.28391ZM17.918 6.96164L18.6083 6.23819L18.6084 6.23825L17.918 6.96164ZM39.4521 29.03L38.4966 28.7351L39.0393 26.9769L40.2194 28.3887L39.4521 29.03ZM41.4736 31.532L42.2582 30.9119L42.2582 30.9119L41.4736 31.532ZM44.2959 35.2566L45.1246 34.6969L45.4787 35.2211L45.1566 35.7657L44.2959 35.2566ZM44.083 35.5124L44.7773 36.2322L44.7771 36.2323L44.083 35.5124ZM42.4404 36.698L41.8901 35.863L41.8901 35.863L42.4404 36.698ZM40.377 38.239L39.6904 37.5119L39.6905 37.5118L40.377 38.239ZM39.7432 38.947L40.5511 39.5363L39.3123 41.2345L38.7762 39.202L39.7432 38.947ZM39.3535 37.4304L38.3834 37.6729L38.3834 37.6729L39.3535 37.4304ZM39.0801 31.0241L38.0863 30.913L38.0863 30.913L39.0801 31.0241ZM15.6299 5.80539L15.611 6.80521C15.2072 6.79757 14.7845 6.98205 14.2996 7.45607L13.6006 6.74094L12.9016 6.0258C13.6054 5.33794 14.5168 4.78414 15.6488 4.80557L15.6299 5.80539ZM13.6006 6.74094L14.3237 7.43167L14.0737 7.69339L13.3506 7.00266L12.6275 6.31192L12.8775 6.0502L13.6006 6.74094ZM13.3506 7.00266L14.1228 7.63802L14.0593 7.71517L13.2871 7.0798L12.5149 6.44444L12.5784 6.36729L13.3506 7.00266ZM13.2871 7.0798L14.09 7.67599C14.0772 7.69322 14.055 7.72932 14.0277 7.79065C14.001 7.85045 13.9769 7.91693 13.9527 7.99049L13.0029 7.67746L12.0532 7.36443C12.1149 7.17729 12.242 6.80981 12.4843 6.48362L13.2871 7.0798ZM13.0029 7.67746L13.9527 7.99029C13.8907 8.17871 13.8256 8.43214 13.7594 8.74368L12.7812 8.53586L11.8031 8.32804C11.8766 7.98188 11.9591 7.65002 12.0531 7.36463L13.0029 7.67746ZM12.7812 8.53586L13.7594 8.74364C13.6274 9.36505 13.4952 10.1998 13.3776 11.1769L12.3848 11.0573L11.3919 10.9378C11.5137 9.92627 11.6544 9.02802 11.8031 8.32808L12.7812 8.53586ZM12.3848 11.0573L13.3776 11.1768C13.1423 13.1321 12.963 15.649 12.9394 18.1614L11.9395 18.1521L10.9395 18.1427C10.9638 15.5558 11.1479 12.9653 11.3919 10.9378L12.3848 11.0573ZM11.9395 18.1521L12.9394 18.1614C12.9159 20.6763 13.0485 23.175 13.4319 25.1003L12.4512 25.2956L11.4704 25.4909C11.0477 23.3683 10.9154 20.7117 10.9395 18.1427L11.9395 18.1521ZM12.4512 25.2956L13.4319 25.1003C13.6238 26.0637 13.8762 26.8698 14.1937 27.4588L13.3135 27.9333L12.4332 28.4079C11.9815 27.5699 11.6804 26.5451 11.4704 25.491L12.4512 25.2956ZM13.3135 27.9333L14.1937 27.4587C14.5139 28.0525 14.8785 28.387 15.2768 28.4866L15.0342 29.4568L14.7916 30.4269C13.6052 30.1302 12.8725 29.2225 12.4333 28.4079L13.3135 27.9333ZM15.0342 29.4568L15.2767 28.4866C16.3579 28.7569 17.5515 28.5726 18.7527 28.1283L19.0996 29.0661L19.4466 30.004C18.0437 30.523 16.4124 30.8321 14.7917 30.4269L15.0342 29.4568ZM19.0996 29.0661L18.7526 28.1283C19.9517 27.6846 21.1373 26.9891 22.1889 26.2671L22.7549 27.0915L23.3209 27.9159C22.2002 28.6854 20.8616 29.4805 19.4466 30.004L19.0996 29.0661ZM22.7549 27.0915L22.1888 26.2672C23.0621 25.6675 23.8392 25.0511 24.4516 24.5524L25.083 25.3279L25.7144 26.1033C25.0874 26.6139 24.261 27.2704 23.3209 27.9159L22.7549 27.0915ZM25.083 25.3279L26.0757 25.4488C26.0684 25.5086 26.0522 25.6493 26.0422 25.73L25.0498 25.6071L24.0574 25.4843C24.0711 25.3738 24.0757 25.3273 24.0903 25.2069L25.083 25.3279ZM25.0498 25.6071L26.0422 25.73C25.9123 26.7797 25.734 28.1385 25.5395 29.5512L24.5488 29.4148L23.5582 29.2784C23.7517 27.8727 23.9288 26.5231 24.0574 25.4843L25.0498 25.6071ZM24.5488 29.4148L25.5395 29.5512C25.1511 32.3722 24.6968 35.4239 24.439 36.6625L23.46 36.4587L22.4809 36.2549C22.7219 35.0972 23.167 32.1193 23.5582 29.2784L24.5488 29.4148ZM23.46 36.4587L24.439 36.6624C24.19 37.8592 24.1285 40.552 24.1318 42.9759L23.1318 42.9773L22.1318 42.9787C22.1286 40.627 22.1805 37.6992 22.4809 36.255L23.46 36.4587ZM23.1318 42.9773L24.1318 42.9759C24.1335 44.1816 24.1505 45.3117 24.1678 46.1391L23.168 46.1599L22.1682 46.1807C22.1508 45.3439 22.1335 44.2004 22.1318 42.9787L23.1318 42.9773ZM23.168 46.1599L24.1678 46.1391C24.1764 46.5529 24.1847 46.8916 24.191 47.126L23.1914 47.153L22.1918 47.1801C22.1853 46.9413 22.1769 46.5985 22.1682 46.1807L23.168 46.1599ZM23.1914 47.153L24.191 47.126C24.1942 47.2428 24.1969 47.3352 24.1988 47.3979L23.1992 47.4275L22.1997 47.4571C22.1978 47.394 22.195 47.2995 22.1918 47.1801L23.1914 47.153ZM23.1992 47.4275L24.1988 47.3976C24.199 47.4048 24.1993 47.4121 24.1998 47.4222C24.1999 47.426 24.2003 47.4343 24.2006 47.4402C24.2009 47.4468 24.2013 47.4568 24.2017 47.468L23.2021 47.4987L22.2026 47.5295C22.2027 47.5326 22.2028 47.5336 22.2026 47.53C22.2024 47.5259 22.2023 47.5232 22.2019 47.5151C22.2013 47.5014 22.2004 47.4811 22.1997 47.4573L23.1992 47.4275ZM23.2021 47.4987H24.2021V47.5241H23.2021H22.2021V47.4987H23.2021ZM23.2021 47.5241L24.2016 47.4916L24.2251 48.2123L23.2256 48.2448L22.2261 48.2773L22.2027 47.5566L23.2021 47.5241ZM23.2256 48.2448V47.2448H43.0723V48.2448V49.2448H23.2256V48.2448ZM43.0723 48.2448L42.1658 48.6671L41.6726 47.6085L42.5791 47.1862L43.4856 46.764L43.9787 47.8226L43.0723 48.2448ZM42.5791 47.1862L41.6726 47.6085C41.3669 46.9522 41.0842 46.2888 40.8163 45.6118L41.7461 45.2439L42.6759 44.8759C42.9311 45.5208 43.1985 46.1476 43.4856 46.764L42.5791 47.1862ZM41.7461 45.2439L42.1049 44.3105C42.2314 44.3591 42.3968 44.3775 42.5964 44.3587L42.6904 45.3542L42.7845 46.3498C42.382 46.3878 41.8862 46.3691 41.3873 46.1773L41.7461 45.2439ZM42.6904 45.3542L42.5962 44.3587C42.8489 44.3348 43.1508 44.2555 43.4915 44.1273L43.8438 45.0632L44.196 45.9991C43.7629 46.1621 43.278 46.3031 42.7846 46.3498L42.6904 45.3542ZM43.8438 45.0632L43.4914 44.1273C44.1707 43.8716 44.9659 43.4338 45.7708 42.9164L46.3115 43.7575L46.8523 44.5987C45.996 45.1492 45.0654 45.6718 44.1961 45.9991L43.8438 45.0632ZM46.3115 43.7575L45.7707 42.9164C47.3805 41.8814 48.9879 40.5555 49.7236 39.8199L50.4307 40.5271L51.1377 41.2342C50.2892 42.0826 48.5672 43.4962 46.8523 44.5987L46.3115 43.7575ZM50.4307 40.5271L49.7236 39.82C50.474 39.0695 51.2329 38.2624 51.669 37.3278L52.5752 37.7507L53.4814 38.1736C52.8792 39.464 51.8792 40.4928 51.1378 41.2342L50.4307 40.5271ZM52.5752 37.7507L51.669 37.3279C52.0975 36.4092 52.2166 35.3606 51.6698 34.1024L52.5869 33.7038L53.504 33.3052C54.2965 35.1285 54.1333 36.7762 53.4814 38.1735L52.5752 37.7507ZM52.5869 33.7038L51.6698 34.1025C51.2774 33.1997 50.0932 31.3178 48.5931 29.145L49.416 28.5769L50.2389 28.0087C51.7176 30.1503 53.0203 32.1925 53.504 33.3052L52.5869 33.7038ZM49.416 28.5769L48.5931 29.145C47.4191 27.4447 46.0608 25.5788 44.7595 23.8892L45.5518 23.279L46.344 22.6688C47.667 24.3867 49.0458 26.2806 50.2389 28.0087L49.416 28.5769ZM45.5518 23.279L44.7595 23.8892C42.9442 21.5322 41.2599 19.5458 40.3401 18.8099L40.9648 18.029L41.5896 17.2482C42.7322 18.1624 44.5622 20.3553 46.344 22.6688L45.5518 23.279ZM40.9648 18.029L40.3391 18.8091L40.2502 18.7378L40.876 17.9577L41.5017 17.1777L41.5906 17.249L40.9648 18.029ZM40.876 17.9577L40.5164 18.8909L40.41 18.8498L40.7695 17.9167L41.1291 16.9836L41.2355 17.0246L40.876 17.9577ZM40.7695 17.9167L40.4068 18.8486C36.5108 17.3322 34.1803 16.7189 29.8544 15.8615L30.0488 14.8806L30.2432 13.8997C34.6536 14.7738 37.1016 15.416 41.1322 16.9848L40.7695 17.9167ZM30.0488 14.8806L29.8544 15.8615C28.8278 15.6581 27.713 15.8133 26.5968 16.1693L26.293 15.2165L25.9892 14.2638C27.2866 13.8501 28.7653 13.6068 30.2432 13.8997L30.0488 14.8806ZM26.293 15.2165L26.5968 16.1692C25.4817 16.5249 24.3809 17.0753 23.3902 17.6421L22.8936 16.7741L22.3969 15.9062C23.4451 15.3065 24.6838 14.6801 25.9891 14.2638L26.293 15.2165ZM22.8936 16.7741L23.3902 17.6421C22.397 18.2104 21.5299 18.7859 20.8611 19.1997L20.335 18.3493L19.8088 17.4989C20.4063 17.1293 21.3668 16.4956 22.3969 15.9062L22.8936 16.7741ZM20.335 18.3493L20.861 19.1998C20.7522 19.2671 20.6482 19.328 20.5722 19.3731L20.0615 18.5134L19.5508 17.6536C19.64 17.6007 19.7201 17.5538 19.8089 17.4989L20.335 18.3493ZM20.0615 18.5134L19.0653 18.6008C19.0437 18.3538 19.0201 18.055 19.0006 17.7106L19.999 17.654L20.9974 17.5975C21.0155 17.9162 21.0373 18.1937 21.0577 18.426L20.0615 18.5134ZM19.999 17.654L19.0006 17.7106C18.944 16.7112 18.8952 15.4227 18.7957 14.0815L19.793 14.0075L20.7902 13.9335C20.8912 15.2943 20.9439 16.6515 20.9974 17.5975L19.999 17.654ZM19.793 14.0075L18.7957 14.0816C18.6963 12.7415 18.5479 11.3646 18.2961 10.2027L19.2734 9.99094L20.2508 9.77917C20.5323 11.0785 20.6887 12.5654 20.7902 13.9335L19.793 14.0075ZM19.2734 9.99094L18.2961 10.2027C18.1705 9.62284 18.0194 9.10119 17.8392 8.66756L18.7627 8.28391L19.6862 7.90025C19.9276 8.48135 20.1096 9.1277 20.2508 9.77913L19.2734 9.99094ZM18.7627 8.28391L17.8393 8.66764C17.6584 8.23232 17.4537 7.90086 17.2275 7.68503L17.918 6.96164L18.6084 6.23825C19.1149 6.72163 19.4511 7.33449 19.6861 7.90017L18.7627 8.28391ZM17.918 6.96164L17.2276 7.68509C16.601 7.08712 16.0807 6.81418 15.6108 6.80521L15.6299 5.80539L15.649 4.80557C16.8784 4.82905 17.8644 5.52831 18.6083 6.23819L17.918 6.96164ZM39.4521 29.03L40.2194 28.3887C40.6908 28.9527 41.4498 29.889 42.2582 30.9119L41.4736 31.532L40.6891 32.152C39.8876 31.1378 39.1407 30.2167 38.6849 29.6713L39.4521 29.03ZM41.4736 31.532L42.2582 30.9119C43.3973 32.3533 44.6004 33.9207 45.1246 34.6969L44.2959 35.2566L43.4672 35.8163C42.9918 35.1124 41.8359 33.6032 40.6891 32.152L41.4736 31.532ZM44.2959 35.2566L45.1566 35.7657C45.0805 35.8944 44.9646 36.0514 44.7773 36.2322L44.083 35.5124L43.3888 34.7927C43.4217 34.7609 43.4377 34.7416 43.4425 34.7356C43.4464 34.7306 43.4427 34.7348 43.4352 34.7475L44.2959 35.2566ZM44.083 35.5124L44.7771 36.2323C44.3397 36.654 43.6626 37.0901 42.9907 37.5329L42.4404 36.698L41.8901 35.863C42.6442 35.366 43.1195 35.0523 43.389 34.7925L44.083 35.5124ZM42.4404 36.698L42.9907 37.5329C42.3043 37.9854 41.602 38.4577 41.0634 38.9661L40.377 38.239L39.6905 37.5118C40.3756 36.865 41.2241 36.302 41.8901 35.863L42.4404 36.698ZM40.377 38.239L41.0635 38.966C40.8704 39.1484 40.6951 39.3388 40.5511 39.5363L39.7432 38.947L38.9353 38.3577C39.1706 38.0351 39.435 37.753 39.6904 37.5119L40.377 38.239ZM39.7432 38.947L38.7762 39.202C38.646 38.7084 38.5149 38.1992 38.3834 37.6729L39.3535 37.4304L40.3237 37.1879C40.453 37.7053 40.582 38.2062 40.7101 38.6919L39.7432 38.947ZM39.3535 37.4304L38.3834 37.6729C37.8771 35.6476 37.8572 32.9618 38.0863 30.913L39.0801 31.0241L40.0739 31.1353C39.8604 33.0452 39.895 35.473 40.3237 37.1879L39.3535 37.4304ZM39.0801 31.0241L38.0863 30.913C38.1837 30.0419 38.3268 29.2851 38.4966 28.7351L39.4521 29.03L40.4077 29.3249C40.2884 29.7115 40.1636 30.3332 40.0739 31.1353L39.0801 31.0241Z" fill="black" mask="url(#path-4-inside-1_1300_1679)"/>
<path d="M10.8447 4.42726L8.21735 3.8903C7.40587 3.72472 6.61323 4.24808 6.44738 5.05957L5.01386 12.0738C4.84801 12.8853 5.37174 13.6777 6.18313 13.8437L8.81046 14.3807C9.62211 14.5466 10.4146 14.0231 10.5804 13.2114L12.014 6.19724C12.1798 5.38559 11.6563 4.59314 10.8447 4.42726Z" fill="black" stroke="black"/>
<path d="M23.9828 3.67247L21.3114 3.90624C20.4864 3.9787 19.8757 4.70618 19.9479 5.53129L20.572 12.6632C20.6442 13.4883 21.3719 14.0987 22.197 14.0267L24.8685 13.793C25.6937 13.7208 26.3042 12.9932 26.232 12.1679L25.6079 5.036C25.5357 4.21073 24.8081 3.60026 23.9828 3.67247Z" fill="black" stroke="black"/>
</g>
<defs>
<clipPath id="clip0_1300_1679">
<rect width="68" height="49" fill="white"/>
</clipPath>
</defs>
</svg>
