<svg width="73" height="75" viewBox="0 0 73 75" fill="none" xmlns="http://www.w3.org/2000/svg">
<g clip-path="url(#clip0_1300_1683)">
<path d="M41.081 19.0909C41.081 22.1034 38.6389 24.5454 35.6264 24.5454C32.614 24.5454 30.1719 22.1034 30.1719 19.0909C30.1719 16.0784 32.614 13.6364 35.6264 13.6364C38.6389 13.6364 41.081 16.0784 41.081 19.0909Z" fill="black"/>
<path d="M41.0821 27.0437C35.5684 26.682 32.1267 26.9888 29.3766 28.0144C28.4253 28.3691 27.6982 29.1171 27.0242 29.8763C23.9371 33.3537 17.7273 35.8579 17.7273 34.7727C17.7273 31.233 18.3927 28.0331 21.0381 21.3829C21.1022 21.2217 21.1394 21.0467 21.1277 20.8736C20.9583 18.3657 18.3643 17.7497 17.0455 18.4091C14.4582 19.7027 8.42599 40.3493 13.6364 42.9545C16.3637 44.3182 27.9546 37.5 28.6364 36.8182C28.7701 36.6846 29.6068 44.8161 28.6364 47.7273C28.1515 49.182 27.2444 50.7292 26.5706 51.9263C26.1906 52.6015 26.5083 53.4215 27.2277 53.7093L35.6676 57.0852C35.9701 57.2062 36.3059 57.2149 36.6143 57.1097L44.824 54.3092C45.5427 54.064 45.9184 53.2805 45.6264 52.5794C44.5915 50.0944 42.9546 46.6713 42.9546 44.3182C42.9546 40.4373 43.3901 36.6627 43.565 35.3033C43.6091 34.9604 43.7855 34.6535 44.0535 34.4351C45.0255 33.6429 47.4808 31.6102 49.091 30C61.3637 15.6818 60.448 10.8268 58.6364 9.54548C56.0751 7.73383 54.6426 10.0955 54.3336 10.9449C54.3043 11.0253 54.2736 11.1068 54.2353 11.1833C49.615 20.4095 47.902 22.1133 42.0265 26.7514C41.76 26.9617 41.4208 27.0659 41.0821 27.0437Z" fill="black"/>
<path d="M63.6961 12.4782L65.1855 13.0173C66.2478 13.4017 66.7975 14.575 66.4131 15.6373L64.7063 20.3535C64.3218 21.4158 63.1485 21.9655 62.0863 21.5811L60.5968 21.0421C59.5346 20.6577 58.9848 19.4843 59.3692 18.4221L61.0761 13.7058C61.4605 12.6436 62.6338 12.0938 63.6961 12.4782Z" fill="black" stroke="black" stroke-width="1.36364"/>
<path d="M50.7996 6.11176L52.2049 6.84265C53.2071 7.36391 53.5972 8.59953 53.076 9.60176L50.7616 14.0515C50.2404 15.0537 49.0047 15.4438 48.0025 14.9226L46.5972 14.1917C45.595 13.6704 45.2049 12.4348 45.7262 11.4326L48.0405 6.98282C48.5618 5.98059 49.7974 5.59051 50.7996 6.11176Z" fill="black" stroke="black" stroke-width="1.36364"/>
<rect x="23.7785" y="18.7058" width="5.67553" height="9.10712" rx="2.04545" transform="rotate(22.6054 23.7785 18.7058)" fill="black" stroke="black" stroke-width="1.36364"/>
<path d="M12.8183 14.1491L14.219 14.8887C15.2179 15.4162 15.6003 16.6542 15.0728 17.6532L12.7309 22.0885C12.2034 23.0874 10.9654 23.4698 9.96639 22.9423L8.56569 22.2027C7.56673 21.6752 7.18434 20.4372 7.71182 19.4382L10.0538 15.003C10.5813 14.004 11.8193 13.6216 12.8183 14.1491Z" fill="black" stroke="black" stroke-width="1.36364"/>
<path d="M2.0459 53.1818C2.0459 53.1818 8.22915 57.2727 12.955 57.2727C17.6808 57.2727 19.8201 53.1818 24.5459 53.1818C29.2717 53.1818 31.411 57.2727 36.1368 57.2727C40.8626 57.2727 43.0019 53.1818 47.7277 53.1818C52.4536 53.1818 54.5928 57.2727 59.3186 57.2727C64.0445 57.2727 70.2277 53.1818 70.2277 53.1818" stroke="black" stroke-width="2.72727" stroke-linecap="square"/>
</g>
<defs>
<clipPath id="clip0_1300_1683">
<rect width="72.2727" height="75" fill="white"/>
</clipPath>
</defs>
</svg>
