<svg width="67" height="40" viewBox="0 0 67 40" fill="none" xmlns="http://www.w3.org/2000/svg">
<g clip-path="url(#clip0_1652_4479)">
<path d="M58.1557 0.846925C63.2169 1.5635 66.739 6.24754 66.0228 11.3088C65.5575 14.5955 63.4181 17.2309 60.5899 18.4804C60.1929 17.378 59.6562 16.3363 58.9971 15.3798C60.8576 14.6364 62.2806 12.9473 62.5815 10.8216C63.0286 7.66134 60.8287 4.73664 57.6684 4.28917C54.5082 3.84196 51.5838 6.04121 51.1361 9.20134C51.1023 9.43993 51.0841 9.67744 51.0798 9.91239C50.6455 9.80632 50.202 9.72008 49.7501 9.65609C49.0323 9.55448 48.3195 9.51135 47.6168 9.52276C47.6313 9.25476 47.6555 8.98476 47.6938 8.71405C48.4106 3.65295 53.0945 0.130607 58.1557 0.846925Z" fill="#222222"/>
<path d="M49.7502 9.6569L49.9939 7.93591L49.9938 7.9359L49.7502 9.6569ZM61.2521 24.9523L62.9731 25.196L62.9731 25.1959L61.2521 24.9523ZM45.9567 36.4542L45.713 38.1752L45.7131 38.1752L45.9567 36.4542ZM34.4548 21.1588L32.7338 20.9151L32.7338 20.9152L34.4548 21.1588ZM49.7502 9.6569L49.5065 11.3779C55.9558 12.291 60.4441 18.2594 59.5311 24.7087L61.2521 24.9523L62.9731 25.1959C64.1552 16.8457 58.344 9.11812 49.9939 7.93591L49.7502 9.6569ZM61.2521 24.9523L59.5311 24.7086C58.618 31.1579 52.6495 35.6461 46.2003 34.7332L45.9567 36.4542L45.7131 38.1752C54.0632 39.3571 61.7909 33.5461 62.9731 25.196L61.2521 24.9523ZM45.9567 36.4542L46.2003 34.7332C39.751 33.8202 35.2629 27.8517 36.1758 21.4024L34.4548 21.1588L32.7338 20.9152C31.5518 29.2654 37.3627 36.9931 45.713 38.1752L45.9567 36.4542ZM34.4548 21.1588L36.1758 21.4024C37.0888 14.953 43.0572 10.4649 49.5066 11.3779L49.7502 9.6569L49.9938 7.9359C41.6435 6.75379 33.9159 12.5648 32.7338 20.9151L34.4548 21.1588Z" fill="#222222"/>
<path d="M54.3781 18.3385C56.727 18.6712 58.3619 20.8451 58.0294 23.1941L57.7283 25.3213L57.6915 25.539C57.2594 27.7701 55.1482 29.2946 52.8726 28.9727L52.6549 28.9359C50.4955 28.5179 48.9987 26.5269 49.1962 24.3364L49.2213 24.117L49.25 23.914L46.0592 23.4623L46.0305 23.6653L45.9937 23.883C45.5616 26.1142 43.4505 27.6388 41.1748 27.3167L40.9571 27.2799C38.7978 26.8618 37.3008 24.8709 37.4983 22.6804L37.5235 22.461L37.8246 20.3338C38.1572 17.9848 40.3312 16.3501 42.6802 16.6825C45.0294 17.015 46.6641 19.189 46.3316 21.5381L46.3028 21.7411L49.4937 22.1929L49.5224 21.9898C49.855 19.6407 52.0289 18.0059 54.3781 18.3385ZM54.1344 20.0596C52.7358 19.8616 51.4416 20.8348 51.2436 22.2335L50.9424 24.3607C50.7448 25.7591 51.7178 27.0536 53.1163 27.2515C54.5146 27.4493 55.8089 26.4759 56.0072 25.0777L56.3083 22.9504C56.5063 21.5519 55.5329 20.2578 54.1344 20.0596ZM42.4366 18.4036C41.0381 18.2058 39.7437 19.1789 39.5457 20.5775L39.2446 22.7047C39.0469 24.1031 40.0201 25.3974 41.4185 25.5955C42.817 25.7935 44.1111 24.8201 44.3093 23.4217L44.6105 21.2944C44.8085 19.8958 43.8353 18.6016 42.4366 18.4036Z" fill="#222222"/>
<path d="M12.548 7.24982L12.1817 5.5507L12.1817 5.55069L12.548 7.24982ZM2.1712 23.3298L0.472073 23.696L0.47207 23.696L2.1712 23.3298ZM18.2511 33.7066L18.6174 35.4057L18.6174 35.4057L18.2511 33.7066ZM28.6279 17.6266L30.3271 17.2604L30.3271 17.2604L28.6279 17.6266ZM12.548 7.24982L12.9143 8.94894C6.54695 10.3216 2.49776 16.5962 3.87033 22.9635L2.1712 23.3298L0.47207 23.696C-1.30508 15.4519 3.93764 7.32794 12.1817 5.5507L12.548 7.24982ZM2.1712 23.3298L3.87032 22.9635C5.24294 29.3308 11.5176 33.3799 17.8849 32.0074L18.2511 33.7066L18.6174 35.4057C10.3733 37.1827 2.24928 31.9401 0.472073 23.696L2.1712 23.3298ZM18.2511 33.7066L17.8849 32.0074C24.2522 30.6349 28.3013 24.3603 26.9288 17.9929L28.6279 17.6266L30.3271 17.2604C32.1041 25.5045 26.8616 33.6285 18.6174 35.4057L18.2511 33.7066ZM28.6279 17.6266L26.9288 17.9929C25.5562 11.6255 19.2817 7.57636 12.9143 8.94895L12.548 7.24982L12.1817 5.55069C20.4259 3.77353 28.5499 9.01614 30.3271 17.2604L28.6279 17.6266Z" fill="#222222"/>
<path d="M8.23655 16.6929C10.5558 16.1929 12.8413 17.6678 13.3412 19.9871L13.3844 20.1876L16.5338 19.5087L16.9001 21.2079L13.7507 21.8868L13.794 22.0873L13.8347 22.3043C14.2005 24.5473 12.7466 26.7076 10.4998 27.192L10.2828 27.2327C8.11194 27.587 6.01911 26.2362 5.44732 24.1123L5.39509 23.8978L4.94236 21.7976C4.44242 19.4783 5.91727 17.1929 8.23655 16.6929ZM19.7857 14.2033C22.1048 13.7036 24.3905 15.1784 24.8904 17.4975L25.3431 19.5977L25.3839 19.8147C25.7497 22.0576 24.2955 24.2179 22.0489 24.7024L21.832 24.7432C19.6611 25.0974 17.5683 23.7466 16.9965 21.6227L16.9443 21.4082L16.4915 19.308C15.9916 16.9887 17.4664 14.7033 19.7857 14.2033ZM20.152 15.9026C18.7711 16.2002 17.8931 17.5608 18.1908 18.9417L18.6435 21.0419C18.9414 22.4225 20.3019 23.3007 21.6826 23.0031C23.0631 22.7053 23.9412 21.3446 23.6439 19.964L23.1911 17.8638C22.8935 16.4831 21.5327 15.6052 20.152 15.9026ZM8.60284 18.3921C7.22197 18.6898 6.34396 20.0504 6.64161 21.4313L7.09434 23.5315C7.3922 24.9121 8.75273 25.7903 10.1335 25.4927C11.5142 25.1951 12.3921 23.8343 12.0947 22.4536L11.642 20.3534C11.3443 18.9725 9.98373 18.0945 8.60284 18.3921Z" fill="#222222"/>
</g>
<defs>
<clipPath id="clip0_1652_4479">
<rect width="66.718" height="39.4861" fill="white"/>
</clipPath>
</defs>
</svg>
