<svg width="67" height="54" viewBox="0 0 67 54" fill="none" xmlns="http://www.w3.org/2000/svg">
<g clip-path="url(#clip0_1652_4479)">
<path d="M57.8969 9.01642C62.9582 9.73292 66.4802 14.417 65.764 19.4783C65.2988 22.7648 63.16 25.4005 60.3321 26.65C59.9351 25.5475 59.3975 24.5059 58.7383 23.5493C60.5988 22.8059 62.0218 21.1169 62.3228 18.9911C62.7698 15.8308 60.57 12.9061 57.4096 12.4587C54.2494 12.0115 51.325 14.2107 50.8773 17.3708C50.8435 17.6095 50.8263 17.847 50.822 18.082C50.3874 17.9759 49.9436 17.8896 49.4913 17.8256C48.7734 17.724 48.0607 17.6808 47.3581 17.6923C47.3725 17.4242 47.3967 17.1543 47.4351 16.8835C48.1518 11.8224 52.8357 8.3001 57.8969 9.01642Z" fill="#222222"/>
<path d="M49.4914 17.8264L49.735 16.1054L49.735 16.1054L49.4914 17.8264ZM60.9933 33.1218L62.7143 33.3655L62.7143 33.3654L60.9933 33.1218ZM45.6979 44.6237L45.4542 46.3447L45.4542 46.3447L45.6979 44.6237ZM34.196 29.3283L32.475 29.0846L32.475 29.0847L34.196 29.3283ZM49.4914 17.8264L49.2478 19.5474C55.6971 20.4604 60.1853 26.4288 59.2723 32.8782L60.9933 33.1218L62.7143 33.3654C63.8964 25.0151 58.0854 17.2875 49.735 16.1054L49.4914 17.8264ZM60.9933 33.1218L59.2723 32.8781C58.3591 39.3274 52.3907 43.8156 45.9415 42.9027L45.6979 44.6237L45.4542 46.3447C53.8045 47.5268 61.532 41.7155 62.7143 33.3655L60.9933 33.1218ZM45.6979 44.6237L45.9415 42.9027C39.4924 41.9896 35.0042 36.0211 35.917 29.5718L34.196 29.3283L32.475 29.0847C31.2932 37.4347 37.1041 45.1625 45.4542 46.3447L45.6979 44.6237ZM34.196 29.3283L35.917 29.5719C36.83 23.1226 42.7985 18.6345 49.2478 19.5474L49.4914 17.8264L49.735 16.1054C41.3848 14.9234 33.6571 20.7343 32.475 29.0846L34.196 29.3283Z" fill="#222222"/>
<path d="M54.1193 26.508C56.4683 26.8406 58.1031 29.0145 57.7706 31.3636L57.4695 33.4908L57.4327 33.7085C57.0006 35.9396 54.8894 37.4642 52.6139 37.1422L52.3961 37.1054C50.2367 36.6874 48.7399 34.6964 48.9374 32.5059L48.9625 32.2865L48.9913 32.0835L45.8004 31.6318L45.7717 31.8348L45.7349 32.0525C45.3028 34.2837 43.1917 35.8083 40.916 35.4862L40.6983 35.4494C38.5391 35.0313 37.042 33.0403 37.2396 30.8499L37.2647 30.6305L37.5658 28.5033C37.8984 26.1543 40.0725 24.5197 42.4215 24.852C44.7706 25.1845 46.4053 27.3584 46.0728 29.7076L46.0441 29.9106L49.2349 30.3624L49.2636 30.1593C49.5962 27.8102 51.7701 26.1754 54.1193 26.508ZM53.8756 28.2291C52.477 28.0311 51.1828 29.0043 50.9848 30.403L50.6836 32.5302C50.486 33.9286 51.4591 35.2231 52.8575 35.421C54.2559 35.6189 55.5501 34.6454 55.7484 33.2472L56.0495 31.1199C56.2475 29.7213 55.2742 28.4272 53.8756 28.2291ZM42.1778 26.5731C40.7793 26.3754 39.4849 27.3485 39.2869 28.747L38.9858 30.8742C38.7881 32.2725 39.7614 33.5668 41.1597 33.765C42.5582 33.963 43.8523 32.9896 44.0505 31.5912L44.3517 29.4639C44.5497 28.0653 43.5765 26.7711 42.1778 26.5731Z" fill="#222222"/>
<path d="M12.2892 15.4193L11.9229 13.7202L11.9229 13.7202L12.2892 15.4193ZM1.91241 31.4993L0.213283 31.8655L0.213281 31.8655L1.91241 31.4993ZM17.9923 41.8761L18.3586 43.5752L18.3586 43.5752L17.9923 41.8761ZM28.3691 25.7961L30.0683 25.4298L30.0683 25.4299L28.3691 25.7961ZM12.2892 15.4193L12.6555 17.1184C6.28823 18.4912 2.23898 24.7657 3.61154 31.133L1.91241 31.4993L0.213281 31.8655C-1.56386 23.6214 3.67896 15.4975 11.9229 13.7202L12.2892 15.4193ZM1.91241 31.4993L3.61153 31.133C4.98413 37.5002 11.2588 41.5493 17.6261 40.1769L17.9923 41.8761L18.3586 43.5752C10.1146 45.3521 1.99047 40.1096 0.213283 31.8655L1.91241 31.4993ZM17.9923 41.8761L17.6261 40.1769C23.9934 38.8043 28.0426 32.5298 26.67 26.1624L28.3691 25.7961L30.0683 25.4299C31.8454 33.674 26.6028 41.798 18.3586 43.5752L17.9923 41.8761ZM28.3691 25.7961L26.67 26.1624C25.2974 19.795 19.0229 15.7459 12.6555 17.1184L12.2892 15.4193L11.9229 13.7202C20.1671 11.943 28.2911 17.1856 30.0683 25.4298L28.3691 25.7961Z" fill="#222222"/>
<path d="M7.97776 24.8624C10.297 24.3624 12.5825 25.8373 13.0824 28.1566L13.1257 28.357L16.275 27.6782L16.6413 29.3774L13.492 30.0563L13.5352 30.2568L13.576 30.4738C13.9417 32.7168 12.4878 34.8771 10.241 35.3615L10.024 35.4022C7.85315 35.7565 5.76032 34.4057 5.18853 32.2818L5.1363 32.0673L4.68357 29.9671C4.18363 27.6478 5.65848 25.3624 7.97776 24.8624ZM19.5269 22.3728C21.8461 21.873 24.1316 23.3478 24.6316 25.667L25.0843 27.7672L25.1251 27.9842C25.4909 30.2272 24.0368 32.3874 21.7901 32.8719L21.5732 32.9126C19.4023 33.2669 17.3095 31.9161 16.7377 29.7922L16.6855 29.5777L16.2327 27.4775C15.7328 25.1582 17.2077 22.8728 19.5269 22.3728ZM19.8932 24.072C18.5124 24.3697 17.6344 25.7303 17.932 27.1112L18.3847 29.2114C18.6826 30.592 20.0431 31.4702 21.4239 31.1726C22.8044 30.8748 23.6825 29.5141 23.3851 28.1335L22.9324 26.0333C22.6347 24.6525 21.274 23.7746 19.8932 24.072ZM8.34405 26.5616C6.96318 26.8593 6.08517 28.2199 6.38282 29.6008L6.83555 31.701C7.13341 33.0816 8.49394 33.9598 9.87469 33.6622C11.2554 33.3646 12.1333 32.0038 11.8359 30.6231L11.3832 28.5229C11.0855 27.142 9.72494 26.264 8.34405 26.5616Z" fill="#222222"/>
</g>
<defs>
<clipPath id="clip0_1652_4479">
<rect width="66.718" height="53.102" fill="white"/>
</clipPath>
</defs>
</svg>
