<svg width="98" height="78" viewBox="0 0 98 78" fill="none" xmlns="http://www.w3.org/2000/svg">
<g clip-path="url(#clip0_1378_1941)">
<path d="M85.4232 13.2454C92.8578 14.298 98.0315 21.1779 96.979 28.6125C96.2953 33.4402 93.1539 37.3128 88.9997 39.1479C88.4165 37.5279 87.6277 35.9969 86.6592 34.5913C89.3916 33.4997 91.4807 31.019 91.9229 27.8968C92.5801 23.2544 89.3499 18.9577 84.7075 18.3005C80.0652 17.6434 75.7683 20.8745 75.1111 25.5168C75.0615 25.8669 75.0369 26.2151 75.0305 26.5598C74.3921 26.4038 73.7399 26.2784 73.0755 26.1844C72.0208 26.0351 70.9737 25.9714 69.9412 25.9882C69.9625 25.5947 69.9997 25.1987 70.056 24.8012C71.1085 17.3666 77.9885 12.193 85.4232 13.2454Z" fill="black"/>
<path d="M73.0762 26.1846L73.4341 23.6567L73.4341 23.6567L73.0762 26.1846ZM89.9709 48.6515L92.4988 49.0094L92.4988 49.0093L89.9709 48.6515ZM67.5041 65.5461L67.1462 68.074L67.1462 68.074L67.5041 65.5461ZM50.6094 43.0793L48.0815 42.7214L48.0815 42.7215L50.6094 43.0793ZM73.0762 26.1846L72.7184 28.7126C82.1916 30.0537 88.784 38.8203 87.4429 48.2936L89.9709 48.6515L92.4988 49.0093C94.2352 36.7438 85.6996 25.3931 73.4341 23.6567L73.0762 26.1846ZM89.9709 48.6515L87.443 48.2936C86.1018 57.7668 77.3351 64.3592 67.8619 63.0182L67.5041 65.5461L67.1462 68.074C79.4117 69.8104 90.7623 61.2747 92.4988 49.0094L89.9709 48.6515ZM67.5041 65.5461L67.862 63.0182C58.3889 61.677 51.7964 52.9102 53.1373 43.4371L50.6094 43.0793L48.0815 42.7215C46.3453 54.9868 54.8809 66.3375 67.1462 68.074L67.5041 65.5461ZM50.6094 43.0793L53.1373 43.4371C54.4784 33.964 63.2452 27.3716 72.7184 28.7126L73.0762 26.1846L73.4341 23.6567C61.1687 21.9206 49.8179 30.4559 48.0815 42.7214L50.6094 43.0793Z" fill="black"/>
<path d="M80.1942 38.9898C83.4718 39.6244 85.7103 42.7265 85.2371 46.0693L84.7949 49.1925C84.3064 52.6428 81.1135 55.0446 77.6631 54.5563L77.3422 54.503C74.0651 53.8681 71.8263 50.766 72.2994 47.4235L72.3416 47.1257L67.6559 46.4624L67.6137 46.7602C67.1252 50.2107 63.9323 52.6123 60.4819 52.1241L60.161 52.0707C56.8835 51.436 54.645 48.334 55.1182 44.9913L55.5603 41.8681C56.0488 38.4175 59.2425 36.0159 62.6931 36.5044L63.013 36.5576C66.2906 37.1922 68.529 40.2942 68.0558 43.637L68.0137 43.9349L72.6994 44.5982L72.7415 44.3004C73.23 40.8499 76.4239 38.4485 79.8743 38.9367L80.1942 38.9898ZM79.5165 41.4642C77.4622 41.1736 75.5599 42.6039 75.2691 44.6582L74.8269 47.7813C74.5362 49.8356 75.9668 51.7377 78.0209 52.0288C80.0752 52.3194 81.9765 50.8889 82.2674 48.8346L82.7095 45.7115C83.0003 43.6571 81.5708 41.7552 79.5165 41.4642ZM62.3353 39.0319C60.2808 38.7411 58.3787 40.1715 58.0878 42.2259L57.6457 45.3491C57.3549 47.4036 58.7852 49.3057 60.8397 49.5965C62.894 49.8871 64.7953 48.4567 65.0862 46.4024L65.5283 43.2792C65.8191 41.2249 64.3895 39.323 62.3353 39.0319Z" fill="black"/>
<path d="M18.4305 22.6491L17.8924 20.1533L17.8925 20.1533L18.4305 22.6491ZM3.18841 46.2683L0.692613 46.8063L0.692607 46.8063L3.18841 46.2683ZM26.8076 61.5103L27.3456 64.0061L27.3455 64.0062L26.8076 61.5103ZM42.0506 37.891L44.5464 37.3529L44.5464 37.353L42.0506 37.891ZM18.4305 22.6491L18.9685 25.1449C9.61581 27.1612 3.6681 36.3776 5.6842 45.7303L3.18841 46.2683L0.692607 46.8063C-1.91779 34.6967 5.78312 22.7639 17.8924 20.1533L18.4305 22.6491ZM3.18841 46.2683L5.6842 45.7302C7.70039 55.0828 16.9169 61.0304 26.2696 59.0145L26.8076 61.5103L27.3455 64.0062C15.2362 66.6162 3.3031 58.9157 0.692613 46.8063L3.18841 46.2683ZM26.8076 61.5103L26.2696 59.0145C35.6225 56.9984 41.5708 47.7816 39.5548 38.4289L42.0506 37.891L44.5464 37.353C47.1567 49.4627 39.4551 61.3958 27.3456 64.0061L26.8076 61.5103ZM42.0506 37.891L39.5548 38.429C37.5387 29.0762 28.3215 23.1287 18.9685 25.1449L18.4305 22.6491L17.8925 20.1533C30.002 17.5429 41.936 25.2431 44.5464 37.3529L42.0506 37.891Z" fill="black"/>
<path d="M29.3807 32.802C32.6756 32.2646 35.8484 34.4016 36.5598 37.7019L37.2245 40.7854C37.9588 44.192 35.7929 47.5492 32.3864 48.2838L32.0669 48.3447C28.772 48.882 25.5992 46.745 24.8878 43.4448L24.8244 43.1507L20.1973 44.1482L20.2607 44.4422C20.995 47.8488 18.8291 51.2061 15.4225 51.9406L15.103 52.0015C11.8082 52.5388 8.63534 50.4018 7.92391 47.1016L7.25923 44.0181C6.52485 40.6113 8.69154 37.2538 12.0983 36.5195L12.4169 36.4588C15.7118 35.9213 18.8845 38.0584 19.596 41.3587L19.6593 41.6528L24.2865 40.6553L24.2231 40.3613C23.4887 36.9545 25.6554 33.597 29.0621 32.8627L29.3807 32.802ZM29.6001 35.3581C27.5717 35.7953 26.2813 37.795 26.7185 39.8234L27.3832 42.9068C27.8204 44.9352 29.8201 46.2256 31.8485 45.7884C33.8766 45.351 35.1663 43.3515 34.7291 41.3233L34.0644 38.2398C33.6272 36.2116 31.6283 34.9211 29.6001 35.3581ZM12.6362 39.0149C10.6078 39.4521 9.3174 41.4518 9.75464 43.4802L10.4193 46.5636C10.8566 48.592 12.8563 49.8825 14.8846 49.4452C16.9128 49.0078 18.2025 47.0084 17.7652 44.9801L17.1006 41.8966C16.6633 39.8684 14.6644 38.5779 12.6362 39.0149Z" fill="black"/>
</g>
<defs>
<clipPath id="clip0_1378_1941">
<rect width="98" height="78" fill="white"/>
</clipPath>
</defs>
</svg>
