<svg width="18" height="18" viewBox="0 0 18 18" fill="none" xmlns="http://www.w3.org/2000/svg">
<path d="M4.125 16.5C3.8125 16.5 3.54688 16.3906 3.32812 16.1719C3.10938 15.9531 3 15.6875 3 15.375V7.2375C3 6.925 3.10938 6.65937 3.32812 6.44062C3.54688 6.22187 3.8125 6.1125 4.125 6.1125H5.4375V4.3125C5.4375 3.325 5.78437 2.48438 6.47812 1.79063C7.17188 1.09688 8.0125 0.75 9 0.75C9.9875 0.75 10.8281 1.09688 11.5219 1.79063C12.2156 2.48438 12.5625 3.325 12.5625 4.3125V6.1125H13.875C14.1875 6.1125 14.4531 6.22187 14.6719 6.44062C14.8906 6.65937 15 6.925 15 7.2375V15.375C15 15.6875 14.8906 15.9531 14.6719 16.1719C14.4531 16.3906 14.1875 16.5 13.875 16.5H4.125ZM4.125 15.375H13.875V7.2375H4.125V15.375ZM9 12.75C9.4 12.75 9.74063 12.6125 10.0219 12.3375C10.3031 12.0625 10.4438 11.7312 10.4438 11.3438C10.4438 10.9688 10.3031 10.6281 10.0219 10.3219C9.74063 10.0156 9.4 9.8625 9 9.8625C8.6 9.8625 8.25937 10.0156 7.97812 10.3219C7.69687 10.6281 7.55625 10.9688 7.55625 11.3438C7.55625 11.7312 7.69687 12.0625 7.97812 12.3375C8.25937 12.6125 8.6 12.75 9 12.75ZM6.5625 6.1125H11.4375V4.3125C11.4375 3.6375 11.2 3.0625 10.725 2.5875C10.25 2.1125 9.675 1.875 9 1.875C8.325 1.875 7.75 2.1125 7.275 2.5875C6.8 3.0625 6.5625 3.6375 6.5625 4.3125V6.1125ZM4.125 15.375V7.2375V15.375Z" fill="#ACACAC"/>
</svg>
