<svg width="64" height="21" viewBox="0 0 64 21" fill="none" xmlns="http://www.w3.org/2000/svg">
<g clip-path="url(#clip0_112_279)">
<path d="M62.0067 12.834L63.7822 14.0176C63.206 14.8664 61.8277 16.3226 59.4449 16.3226C56.4859 16.3226 54.2822 14.0333 54.2822 11.1209C54.2822 8.02175 56.5092 5.91925 59.1957 5.91925C61.8977 5.91925 63.2215 8.06838 63.6498 9.22863L63.8835 9.8205L56.922 12.7016C57.4515 13.7451 58.277 14.2746 59.4449 14.2746C60.613 14.2746 61.4227 13.6984 62.0067 12.834ZM56.5482 10.9575L61.197 9.02625C60.94 8.38 60.177 7.92063 59.2657 7.92063C58.1056 7.92063 56.4937 8.9485 56.5482 10.9575Z" fill="#FF302F"/>
<path d="M50.9258 0.616394H53.1683V15.8476H50.9258V0.616394Z" fill="#20B15A"/>
<path d="M47.3905 6.32412H49.5553V15.575C49.5553 19.4139 47.2893 20.9946 44.6105 20.9946C42.0876 20.9946 40.5693 19.2971 40.0008 17.9189L41.9864 17.0934C42.3445 17.9421 43.2089 18.9467 44.6105 18.9467C46.3314 18.9467 47.3905 17.8799 47.3905 15.8865V15.139H47.3126C46.7986 15.7619 45.8175 16.3225 44.5716 16.3225C41.9708 16.3225 39.5879 14.0565 39.5879 11.1365C39.5879 8.20075 41.9708 5.9115 44.5716 5.9115C45.8098 5.9115 46.7986 6.46437 47.3126 7.07175H47.3905V6.32412ZM47.5461 11.1365C47.5461 9.29875 46.3236 7.95937 44.7663 7.95937C43.1933 7.95937 41.8695 9.29875 41.8695 11.1365C41.8695 12.9507 43.1933 14.2667 44.7663 14.2667C46.3238 14.2746 47.5463 12.9507 47.5463 11.1365" fill="#3686F7"/>
<path d="M27.2768 11.0975C27.2768 14.0955 24.9408 16.2991 22.0752 16.2991C19.2097 16.2991 16.8735 14.0877 16.8735 11.0975C16.8735 8.084 19.2097 5.88812 22.0752 5.88812C24.9408 5.88812 27.2768 8.084 27.2768 11.0975ZM25.003 11.0975C25.003 9.22875 23.648 7.94375 22.0752 7.94375C20.5023 7.94375 19.1473 9.22875 19.1473 11.0975C19.1473 12.9507 20.5023 14.2512 22.0752 14.2512C23.6482 14.2512 25.003 12.9507 25.003 11.0975Z" fill="#FF302F"/>
<path d="M38.6381 11.1209C38.6381 14.1189 36.302 16.3225 33.4365 16.3225C30.5709 16.3225 28.2349 14.1188 28.2349 11.1209C28.2349 8.10738 30.5709 5.91925 33.4365 5.91925C36.302 5.91925 38.6381 8.09963 38.6381 11.1209ZM36.3565 11.1209C36.3565 9.25213 35.0016 7.96713 33.4286 7.96713C31.8556 7.96713 30.5007 9.25213 30.5007 11.1209C30.5007 12.9741 31.8557 14.2746 33.4286 14.2746C35.0094 14.2746 36.3565 12.9664 36.3565 11.1209Z" fill="#FFBA40"/>
<path d="M8.32352 14.041C5.06077 14.041 2.50677 11.409 2.50677 8.14623C2.50677 4.8836 5.06077 2.2516 8.32352 2.2516C10.0834 2.2516 11.3681 2.9446 12.3181 3.83235L13.8834 2.26723C12.5596 0.997977 10.792 0.0322266 8.32352 0.0322266C3.8539 0.0323516 0.0927734 3.67673 0.0927734 8.14623C0.0927734 12.6157 3.8539 16.2602 8.32352 16.2602C10.7375 16.2602 12.5596 15.466 13.9846 13.9865C15.4485 12.5225 15.9001 10.4667 15.9001 8.80035C15.9001 8.2786 15.8379 7.74135 15.7678 7.34423H8.32352V9.50898H13.6264C13.4706 10.864 13.0424 11.7906 12.4116 12.4212C11.6485 13.1922 10.4416 14.041 8.32352 14.041Z" fill="#3686F7"/>
</g>
<defs>
<clipPath id="clip0_112_279">
<rect width="64" height="21" fill="white"/>
</clipPath>
</defs>
</svg>
