<svg width="40" height="40" viewBox="0 0 40 40" fill="none" xmlns="http://www.w3.org/2000/svg">
<rect width="40" height="40" rx="10" fill="url(#paint0_linear_152_46)" fill-opacity="0.45"/>
<path d="M28.9444 18.4167H11.0556C10.4726 18.4167 10 18.8775 10 19.4459V19.5542C10 20.1226 10.4726 20.5834 11.0556 20.5834H28.9444C29.5274 20.5834 30 20.1226 30 19.5542V19.4459C30 18.8775 29.5274 18.4167 28.9444 18.4167Z" fill="white"/>
<path d="M28.9444 23.8333H11.0556C10.4726 23.8333 10 24.294 10 24.8624V24.9708C10 25.5391 10.4726 25.9999 11.0556 25.9999H28.9444C29.5274 25.9999 30 25.5391 30 24.9708V24.8624C30 24.294 29.5274 23.8333 28.9444 23.8333Z" fill="white"/>
<path d="M28.9444 13H11.0556C10.4726 13 10 13.4608 10 14.0292V14.1375C10 14.7059 10.4726 15.1667 11.0556 15.1667H28.9444C29.5274 15.1667 30 14.7059 30 14.1375V14.0292C30 13.4608 29.5274 13 28.9444 13Z" fill="white"/>
<defs>
<linearGradient id="paint0_linear_152_46" x1="20" y1="-2" x2="20" y2="123.5" gradientUnits="userSpaceOnUse">
<stop stop-color="white" stop-opacity="0.4"/>
<stop offset="1" stop-color="white" stop-opacity="0.1"/>
</linearGradient>
</defs>
</svg>
