<svg width="67" height="70" viewBox="0 0 67 70" fill="none" xmlns="http://www.w3.org/2000/svg">
<path d="M1 68.1432H63.9043" stroke="black" stroke-width="2" stroke-linecap="round"/>
<path d="M45.7031 25.8654C46.5735 25.817 47.2955 26.2656 47.958 27.0012C48.1442 27.2079 48.3776 27.5809 48.6182 28.0012C48.8721 28.4448 49.1726 29.0102 49.4961 29.6535C50.1435 30.9409 50.8935 32.5624 51.5625 34.1867C52.2291 35.8053 52.8268 37.4538 53.1562 38.7883C53.3197 39.4506 53.427 40.0753 53.4307 40.5969C53.4338 41.0554 53.3606 41.7127 52.8516 42.0949C52.4463 42.3989 51.9252 42.6059 51.3789 42.7541C50.8237 42.9046 50.1908 43.0086 49.5264 43.0803C48.1979 43.2235 46.6742 43.2448 45.252 43.2267C43.8401 43.2088 42.464 43.1499 41.5059 43.1281C41.1723 43.1205 40.8914 43.12 40.668 43.1232C40.709 44.1964 40.8143 46.4529 40.957 48.8547C41.1446 52.0126 41.3921 55.2964 41.6338 56.4582C41.8914 57.6957 42.4067 60.4276 42.8555 62.84C43.0802 64.048 43.2889 65.1798 43.4414 66.009C43.5176 66.4233 43.5799 66.7628 43.623 66.9982C43.6445 67.1154 43.6614 67.2073 43.6729 67.2697C43.6785 67.3005 43.6826 67.3249 43.6855 67.341C43.687 67.3488 43.6887 67.3555 43.6895 67.3596C43.6898 67.3613 43.6902 67.3634 43.6904 67.3644V67.3654L43.8506 68.2443H22.9639L23.457 67.1848C24.7734 64.3586 25.6943 61.383 26.6826 57.4299C27.1483 55.5666 27.1568 52.7907 26.9121 50.5773C26.8265 49.8025 26.711 49.1256 26.585 48.6008C26.469 48.9309 26.3256 49.3274 26.1357 49.7736C25.5581 51.1312 24.5741 52.9501 22.6924 55.1008C20.8288 57.2305 18.2013 59.6384 15.7314 61.4445C14.4974 62.3469 13.2808 63.116 12.2021 63.6232C11.6629 63.8768 11.1393 64.0737 10.6533 64.1857C10.1745 64.296 9.67993 64.3356 9.22461 64.2219C8.43128 64.0235 7.83481 63.7689 7.41504 63.4367C6.96851 63.0833 6.73693 62.6521 6.68164 62.1877C6.6318 61.7678 6.73671 61.383 6.80859 61.1379C6.85129 60.9923 6.87779 60.911 6.90234 60.8166C6.92457 60.731 6.92667 60.7003 6.92676 60.7004C6.92685 60.5187 6.9853 60.3736 7.02344 60.2941C7.06569 60.2062 7.11715 60.1283 7.16309 60.0656C7.25531 59.9398 7.37441 59.809 7.49902 59.6828C7.75149 59.4272 8.10186 59.1152 8.50684 58.7687C9.31022 58.0815 10.4368 57.1687 11.583 56.2053C12.746 55.2277 13.967 54.1669 15.0322 53.1242C16.1058 52.0733 16.9838 51.0757 17.4932 50.2267C18.2346 48.991 19.6912 46.4699 21.2676 44.0197C22.0567 42.7932 22.8833 41.572 23.6748 40.5275C24.4573 39.495 25.2391 38.5889 25.9395 38.0285L26.0264 37.9592L26.1279 37.9182C31.1339 35.9158 32.1882 35.3942 37.2588 34.3801L37.416 34.3625C37.462 34.3611 37.5011 34.3629 37.5273 34.3644C37.5915 34.3683 37.6568 34.3767 37.7168 34.3859C37.8375 34.4045 37.9799 34.4339 38.1318 34.4689C38.438 34.5396 38.8326 34.6444 39.2754 34.7687C40.1633 35.0181 41.2885 35.3568 42.3809 35.6848C43.4121 35.9943 44.4134 36.2925 45.1787 36.5041C45.0781 36.2845 44.9681 36.0413 44.8467 35.7785C44.433 34.8832 43.9384 33.8042 43.5225 32.7238C43.1101 31.6526 42.7542 30.5299 42.6416 29.5529C42.5351 28.6279 42.6152 27.5356 43.458 26.9035C44.1694 26.37 44.9092 25.9099 45.7031 25.8654Z" fill="black"/>
<path d="M8.46777 30C8.20318 30.0001 7.95886 30.0849 7.75781 30.2266C7.68752 30.2621 7.61918 30.3043 7.55469 30.3545L5.11621 32.2539C4.57753 32.6735 4.4809 33.4505 4.90039 33.9893C5.31994 34.5279 6.09703 34.6246 6.63574 34.2051L7.23145 33.7402V40.3291C6.93679 40.2458 6.626 40.2002 6.30469 40.2002C4.42695 40.2002 2.90432 41.7228 2.9043 43.6006C2.9043 45.4784 4.42693 47.0009 6.30469 47.001C8.18247 47.001 9.70508 45.4784 9.70508 43.6006C9.70508 43.5889 9.70422 43.5771 9.7041 43.5654V31.2363C9.70385 30.5537 9.15045 30 8.46777 30Z" fill="black"/>
<path d="M56.5049 43C56.2078 43.0001 55.9333 43.0953 55.708 43.2549C55.6306 43.2943 55.5554 43.3411 55.4844 43.3965L52.7588 45.5195C52.157 45.9885 52.0497 46.857 52.5186 47.459C52.9876 48.0606 53.8551 48.168 54.457 47.6992L55.124 47.1797V54.5449C54.7944 54.4516 54.4464 54.4004 54.0869 54.4004C51.9886 54.4006 50.2873 56.1019 50.2871 58.2002C50.2871 60.2987 51.9884 62.0007 54.0869 62.001C56.1856 62.001 57.8877 60.2989 57.8877 58.2002C57.8877 58.1872 57.8869 58.1741 57.8867 58.1611V44.3818C57.8865 43.6189 57.2679 43 56.5049 43Z" fill="black"/>
<path d="M39.6035 6.02734C39.4394 5.9895 39.2639 5.98958 39.0898 6.03613L30.8564 8.24219C30.4246 8.35803 30.1277 8.72354 30.0762 9.1416C30.0384 9.25072 30.0166 9.3673 30.0166 9.48926V17.1426C29.7623 17.0706 29.4942 17.0303 29.2168 17.0303C27.5989 17.0305 26.2871 18.342 26.2871 19.96C26.2872 21.5778 27.5989 22.8895 29.2168 22.8896C30.6738 22.8896 31.8802 21.8257 32.1064 20.4326C32.1324 20.3406 32.1465 20.2438 32.1465 20.1436V10.1025L38.5391 8.38965V14.9287C38.285 14.8568 38.0174 14.8164 37.7402 14.8164C36.1222 14.8164 34.8106 16.128 34.8105 17.7461C34.8105 19.3642 36.1222 20.6758 37.7402 20.6758C39.3583 20.6757 40.6699 19.3641 40.6699 17.7461V7.09277C40.6699 6.50438 40.1929 6.02734 39.6045 6.02734H39.6035Z" fill="black"/>
<path d="M38.0947 23.6396L46.9319 20.3547C47.1492 20.2741 47.3926 20.3737 47.4919 20.5831L48.581 22.8811C48.6788 23.0874 48.6049 23.3342 48.4104 23.4537L40.3612 28.399C40.3471 28.4076 40.3313 28.4121 40.3167 28.419L38.0598 23.6572C38.0715 23.6517 38.0824 23.6442 38.0947 23.6396ZM43.2325 24.1279C43.3383 24.351 43.605 24.4462 43.8282 24.3405C44.0513 24.2347 44.1465 23.9679 44.0408 23.7447C43.935 23.5217 43.6682 23.4264 43.4451 23.5321C43.2219 23.6379 43.1268 23.9047 43.2325 24.1279ZM40.4033 25.4688C40.5091 25.6918 40.7759 25.7871 40.999 25.6814L42.6157 24.9151C42.8388 24.8094 42.9339 24.5426 42.8283 24.3194C42.7224 24.0963 42.4557 24.0011 42.2326 24.1068L40.6159 24.873C40.3927 24.9788 40.2976 25.2456 40.4033 25.4688ZM34.3407 28.3421C33.6002 26.7796 34.2665 24.9126 35.829 24.172C36.2641 23.9658 36.7222 23.873 37.1733 23.8753L39.592 28.9786C39.308 29.3289 38.9457 29.6243 38.5108 29.8304C36.9483 30.5709 35.0813 29.9046 34.3407 28.3421Z" fill="black"/>
<path d="M26.6064 23C30.3077 23.0001 33.3086 26.0009 33.3086 29.7021C33.3085 33.4033 30.3076 36.4042 26.6064 36.4043C22.9052 36.4043 19.9044 33.4034 19.9043 29.7021C19.9043 26.0008 22.9051 23 26.6064 23ZM30.4971 30.5586C29.9458 29.6018 28.9151 29.3943 28.1973 29.8076C27.4796 30.221 27.3465 31.0986 27.8975 32.0557C28.4485 33.0128 29.4774 33.4541 30.1953 33.041C30.9132 32.6276 31.0482 31.5158 30.4971 30.5586Z" fill="black"/>
</svg>
