<svg width="24" height="24" viewBox="0 0 24 24" fill="none" xmlns="http://www.w3.org/2000/svg">
<path d="M12 22.5C9.21523 22.5 6.54451 21.3938 4.57538 19.4246C2.60625 17.4555 1.5 14.7848 1.5 12C1.5 9.21523 2.60625 6.54451 4.57538 4.57538C6.54451 2.60625 9.21523 1.5 12 1.5C14.7848 1.5 17.4555 2.60625 19.4246 4.57538C21.3938 6.54451 22.5 9.21523 22.5 12C22.5 14.7848 21.3938 17.4555 19.4246 19.4246C17.4555 21.3938 14.7848 22.5 12 22.5ZM12 24C15.1826 24 18.2348 22.7357 20.4853 20.4853C22.7357 18.2348 24 15.1826 24 12C24 8.8174 22.7357 5.76516 20.4853 3.51472C18.2348 1.26428 15.1826 0 12 0C8.8174 0 5.76516 1.26428 3.51472 3.51472C1.26428 5.76516 0 8.8174 0 12C0 15.1826 1.26428 18.2348 3.51472 20.4853C5.76516 22.7357 8.8174 24 12 24Z" fill="black" fill-opacity="0.3"/>
<path d="M6.96936 6.969C7.03903 6.89915 7.1218 6.84374 7.21291 6.80593C7.30403 6.76812 7.40171 6.74866 7.50036 6.74866C7.59901 6.74866 7.6967 6.76812 7.78781 6.80593C7.87893 6.84374 7.9617 6.89915 8.03136 6.969L12.0004 10.9395L15.9694 6.969C16.0391 6.89927 16.1219 6.84395 16.213 6.80621C16.3041 6.76847 16.4017 6.74905 16.5004 6.74905C16.599 6.74905 16.6966 6.76847 16.7877 6.80621C16.8788 6.84395 16.9616 6.89927 17.0314 6.969C17.1011 7.03873 17.1564 7.12151 17.1941 7.21262C17.2319 7.30373 17.2513 7.40138 17.2513 7.5C17.2513 7.59861 17.2319 7.69626 17.1941 7.78737C17.1564 7.87848 17.1011 7.96127 17.0314 8.031L13.0609 12L17.0314 15.969C17.1011 16.0387 17.1564 16.1215 17.1941 16.2126C17.2319 16.3037 17.2513 16.4014 17.2513 16.5C17.2513 16.5986 17.2319 16.6963 17.1941 16.7874C17.1564 16.8785 17.1011 16.9613 17.0314 17.031C16.9616 17.1007 16.8788 17.156 16.7877 17.1938C16.6966 17.2315 16.599 17.2509 16.5004 17.2509C16.4017 17.2509 16.3041 17.2315 16.213 17.1938C16.1219 17.156 16.0391 17.1007 15.9694 17.031L12.0004 13.0605L8.03136 17.031C7.96163 17.1007 7.87885 17.156 7.78774 17.1938C7.69663 17.2315 7.59898 17.2509 7.50036 17.2509C7.40175 17.2509 7.3041 17.2315 7.21299 17.1938C7.12188 17.156 7.0391 17.1007 6.96936 17.031C6.89963 16.9613 6.84432 16.8785 6.80658 16.7874C6.76884 16.6963 6.74942 16.5986 6.74942 16.5C6.74942 16.4014 6.76884 16.3037 6.80658 16.2126C6.84432 16.1215 6.89963 16.0387 6.96936 15.969L10.9399 12L6.96936 8.031C6.89952 7.96133 6.8441 7.87857 6.80629 7.78745C6.76849 7.69633 6.74902 7.59865 6.74902 7.5C6.74902 7.40135 6.76849 7.30366 6.80629 7.21255C6.8441 7.12143 6.89952 7.03867 6.96936 6.969Z" fill="black" fill-opacity="0.3"/>
</svg>
