<svg width="20" height="15" viewBox="0 0 20 15" fill="none" xmlns="http://www.w3.org/2000/svg">
<g clip-path="url(#clip0_350_181)">
<path d="M10 2.00008C6.97706 2.03985 4.19353 4.20909 2.54592 5.811C1.57564 6.75437 1.56858 8.25202 2.53454 9.19981C4.16501 10.7996 6.92776 12.9576 10 13.0001C13.2497 13.0451 16.0345 10.7685 17.613 9.13101C18.503 8.20782 18.4957 6.80043 17.601 5.88186C16.0055 4.24395 13.2001 1.95799 10 2.00008Z" stroke="#5F6DD7" stroke-width="2.5"/>
<path d="M13 7C13 8.65685 11.6569 10 10 10C8.34315 10 7 8.65685 7 7C7 5.34315 8.34315 4 10 4C11.6569 4 13 5.34315 13 7Z" fill="#5F6DD7"/>
</g>
<defs>
<clipPath id="clip0_350_181">
<rect width="20" height="15" fill="white"/>
</clipPath>
</defs>
</svg>
