<svg width="48" height="48" viewBox="0 0 48 48" fill="none" xmlns="http://www.w3.org/2000/svg">
<rect x="4" y="4" width="40" height="40" rx="10" fill="#7B86DE"/>
<path d="M24 23.5604C22.2125 23.5604 20.75 22.9742 19.6125 21.8019C18.475 20.6296 17.9062 19.1224 17.9062 17.2802C17.9062 15.438 18.475 13.9308 19.6125 12.7585C20.75 11.5862 22.2125 11 24 11C25.7875 11 27.25 11.5862 28.3875 12.7585C29.525 13.9308 30.0938 15.438 30.0938 17.2802C30.0938 19.1224 29.525 20.6296 28.3875 21.8019C27.25 22.9742 25.7875 23.5604 24 23.5604ZM34.5625 37H13.4375C12.7604 37 12.1849 36.7558 11.7109 36.2673C11.237 35.7789 11 35.1857 11 34.4879V33.0644C11 32.0038 11.2573 31.0966 11.7719 30.343C12.2865 29.5894 12.95 29.0172 13.7625 28.6264C15.5771 27.789 17.3172 27.161 18.9828 26.7424C20.6484 26.3237 22.3208 26.1143 24 26.1143C25.6792 26.1143 27.3448 26.3307 28.9969 26.7633C30.649 27.1959 32.3823 27.817 34.1969 28.6264C35.0365 29.0172 35.7135 29.5894 36.2281 30.343C36.7427 31.0966 37 32.0038 37 33.0644V34.4879C37 35.1857 36.763 35.7789 36.2891 36.2673C35.8151 36.7558 35.2396 37 34.5625 37ZM13.4375 34.4879H34.5625V33.0644C34.5625 32.6178 34.4339 32.1922 34.1766 31.7874C33.9193 31.3827 33.601 31.0827 33.2219 30.8873C31.4885 30.022 29.9042 29.4289 28.4688 29.1079C27.0333 28.7869 25.5437 28.6264 24 28.6264C22.4563 28.6264 20.9531 28.7869 19.4906 29.1079C18.0281 29.4289 16.4438 30.022 14.7375 30.8873C14.3583 31.0827 14.0469 31.3827 13.8031 31.7874C13.5594 32.1922 13.4375 32.6178 13.4375 33.0644V34.4879ZM24 21.0483C25.0562 21.0483 25.9297 20.6924 26.6203 19.9807C27.3109 19.2689 27.6562 18.3688 27.6562 17.2802C27.6562 16.1916 27.3109 15.2915 26.6203 14.5797C25.9297 13.868 25.0562 13.5121 24 13.5121C22.9438 13.5121 22.0703 13.868 21.3797 14.5797C20.6891 15.2915 20.3438 16.1916 20.3438 17.2802C20.3438 18.3688 20.6891 19.2689 21.3797 19.9807C22.0703 20.6924 22.9438 21.0483 24 21.0483Z" fill="white"/>
</svg>
