<svg width="40" height="40" viewBox="0 0 40 40" fill="none" xmlns="http://www.w3.org/2000/svg">
<path d="M20 19.5604C18.2125 19.5604 16.75 18.9742 15.6125 17.8019C14.475 16.6296 13.9062 15.1224 13.9062 13.2802C13.9062 11.438 14.475 9.93076 15.6125 8.75845C16.75 7.58615 18.2125 7 20 7C21.7875 7 23.25 7.58615 24.3875 8.75845C25.525 9.93076 26.0938 11.438 26.0938 13.2802C26.0938 15.1224 25.525 16.6296 24.3875 17.8019C23.25 18.9742 21.7875 19.5604 20 19.5604V19.5604ZM30.5625 33H9.4375C8.76042 33 8.1849 32.7558 7.71094 32.2673C7.23698 31.7789 7 31.1857 7 30.4879V29.0644C7 28.0038 7.25729 27.0966 7.77187 26.343C8.28646 25.5894 8.95 25.0172 9.7625 24.6264C11.5771 23.789 13.3172 23.161 14.9828 22.7424C16.6484 22.3237 18.3208 22.1143 20 22.1143C21.6792 22.1143 23.3448 22.3307 24.9969 22.7633C26.649 23.1959 28.3823 23.817 30.1969 24.6264C31.0365 25.0172 31.7135 25.5894 32.2281 26.343C32.7427 27.0966 33 28.0038 33 29.0644V30.4879C33 31.1857 32.763 31.7789 32.2891 32.2673C31.8151 32.7558 31.2396 33 30.5625 33ZM9.4375 30.4879H30.5625V29.0644C30.5625 28.6178 30.4339 28.1922 30.1766 27.7874C29.9193 27.3827 29.601 27.0827 29.2219 26.8873C27.4885 26.022 25.9042 25.4289 24.4688 25.1079C23.0333 24.7869 21.5437 24.6264 20 24.6264C18.4563 24.6264 16.9531 24.7869 15.4906 25.1079C14.0281 25.4289 12.4438 26.022 10.7375 26.8873C10.3583 27.0827 10.0469 27.3827 9.80312 27.7874C9.55937 28.1922 9.4375 28.6178 9.4375 29.0644V30.4879ZM20 17.0483C21.0562 17.0483 21.9297 16.6924 22.6203 15.9807C23.3109 15.2689 23.6562 14.3688 23.6562 13.2802C23.6562 12.1916 23.3109 11.2915 22.6203 10.5797C21.9297 9.86796 21.0562 9.51208 20 9.51208C18.9438 9.51208 18.0703 9.86796 17.3797 10.5797C16.6891 11.2915 16.3438 12.1916 16.3438 13.2802C16.3438 14.3688 16.6891 15.2689 17.3797 15.9807C18.0703 16.6924 18.9438 17.0483 20 17.0483Z" fill="white"/>
<rect width="40" height="40" rx="10" fill="url(#paint0_linear_178_42)" fill-opacity="0.45"/>
<defs>
<linearGradient id="paint0_linear_178_42" x1="20" y1="-2" x2="20" y2="123.5" gradientUnits="userSpaceOnUse">
<stop stop-color="white" stop-opacity="0.4"/>
<stop offset="1" stop-color="white" stop-opacity="0.1"/>
</linearGradient>
</defs>
</svg>
