<svg width="54" height="52" viewBox="0 0 54 52" fill="none" xmlns="http://www.w3.org/2000/svg">
<path d="M27.913 15.1974C26.3183 13.6027 15.5958 14.7569 14.0924 16.2603C11.9661 18.3866 9.15633 27.4231 7.56164 32.2072C6.47898 35.4551 2.24604 43.37 1.18289 46.0278C0.11975 48.6856 3.99274 48.6859 5.05586 48.1542C6.11897 47.6225 12.4977 35.3967 12.4977 35.3967C12.4977 35.3967 15.535 25.2969 16.0666 24.7653C16.4435 24.3884 16.3792 35.3342 16.0666 37.5228C15.535 41.2437 15.9802 41.7269 16.5981 43.9016C17.216 46.0762 21.0031 49.7488 22.066 49.7488C23.1289 49.7489 32.0714 50.1659 32.697 49.7488C34.2917 48.6857 26.3184 42.307 26.85 41.2439C30.5866 42.4894 39.6071 50.2804 42.2651 50.2804C43.4535 50.2804 55.1063 51.1196 52.3648 49.7488C49.1754 48.1541 29.508 35.3967 29.508 35.3967C27.6038 31.2782 25.9538 27.7613 27.3814 22.6392C27.3814 22.6392 35.8862 28.4864 37.4811 26.8917C39.076 25.297 43.295 19.7987 44.923 15.7289C45.9861 13.0711 46.044 11.3182 43.3283 10.4132C41.7336 9.88172 36.9493 21.0445 35.3546 21.0445C33.76 21.0445 29.5077 16.792 27.913 15.1974Z" fill="black"/>
<path d="M26.8501 41.2439C26.3184 42.307 34.2917 48.6857 32.697 49.7488C32.0714 50.1659 23.1289 49.7489 22.066 49.7488C21.0031 49.7488 17.216 46.0762 16.5981 43.9015C15.9802 41.7269 15.535 41.2437 16.0666 37.5228C16.3792 35.3342 16.4435 24.3884 16.0666 24.7653C15.535 25.2969 12.4977 35.3967 12.4977 35.3967C12.4977 35.3967 6.11897 47.6225 5.05586 48.1542C3.99274 48.6859 0.11975 48.6856 1.18289 46.0278C2.24604 43.37 6.47898 35.4551 7.56164 32.2072C9.15633 27.4231 11.9661 18.3866 14.0924 16.2603C15.5958 14.7569 26.3183 13.6027 27.913 15.1974C29.5077 16.792 33.76 21.0445 35.3546 21.0445C36.9493 21.0445 41.7336 9.88172 43.3283 10.4132C46.044 11.3182 45.9861 13.0711 44.923 15.7289C43.295 19.7987 39.076 25.297 37.4811 26.8917C35.8862 28.4864 27.3814 22.6392 27.3814 22.6392M26.8501 41.2439C26.8316 40.722 28.0222 40.257 29.1282 40.1809M26.8501 41.2439C30.5866 42.4894 39.6071 50.2804 42.2651 50.2804C43.4535 50.2804 55.1063 51.1196 52.3648 49.7488C49.1754 48.1541 29.508 35.3967 29.508 35.3967C27.6038 31.2782 25.9538 27.7613 27.3814 22.6392M27.5334 19.4499L27.3814 22.6392" stroke="black" stroke-width="1.06312" stroke-linecap="round"/>
<path d="M20.8711 3.93774C22.5177 4.69376 23.6621 6.35586 23.6621 8.28638C23.662 10.9284 21.52 13.0705 18.8779 13.0706C16.9448 13.0706 15.2809 11.9229 14.5264 10.2727C14.6703 10.0187 14.7734 9.72888 14.8633 9.46509C15.1565 8.60435 15.4809 7.49908 16.4688 6.38013C17.4392 5.28127 18.6968 4.79526 19.6602 4.45728C19.8942 4.37515 20.1264 4.29663 20.3184 4.22192C20.5031 4.15001 20.7051 4.06123 20.8633 3.94458C20.866 3.94255 20.8683 3.93984 20.8711 3.93774Z" fill="black"/>
<path d="M20.4708 2.97102C21.5712 3.94249 18.2066 3.60866 16.0694 6.02949C13.9322 8.45032 14.6608 10.8528 13.0289 10.4129C11.397 9.973 11.4233 6.45497 13.5605 4.03414C15.6977 1.61331 19.3704 1.99955 20.4708 2.97102Z" fill="black"/>
<circle cx="11.9655" cy="4.56532" r="1.06312" fill="black"/>
<path d="M42.6464 5.22399C43.3187 5.08226 43.6783 4.93646 44.229 4.33942C44.229 4.33942 46.3944 8.47294 47.035 9.45176C47.4884 10.1445 48.5666 11.5853 49.1572 12.3668C49.3746 12.6548 49.2931 13.0474 48.9798 13.2228C48.6571 13.4031 48.2282 13.2756 48.0545 12.9518C47.6911 12.275 47.043 11.1161 46.2432 9.89432C44.9923 7.98322 42.6464 5.22399 42.6464 5.22399ZM41.1726 2.16941C42.5262 1.90754 43.5322 2.24364 43.9259 3.24605C44.1792 3.89134 43.8195 4.63674 43.1227 4.91041C42.426 5.18384 41.6562 4.88206 41.4028 4.23697C41.1493 3.59167 41.7002 2.77137 41.1726 2.16941Z" fill="black"/>
</svg>
