<svg width="18" height="18" viewBox="0 0 18 18" fill="none" xmlns="http://www.w3.org/2000/svg">
<path d="M9 8.69565C7.7625 8.69565 6.75 8.28986 5.9625 7.47826C5.175 6.66667 4.78125 5.62319 4.78125 4.34783C4.78125 3.07246 5.175 2.02899 5.9625 1.21739C6.75 0.405797 7.7625 0 9 0C10.2375 0 11.25 0.405797 12.0375 1.21739C12.825 2.02899 13.2188 3.07246 13.2188 4.34783C13.2188 5.62319 12.825 6.66667 12.0375 7.47826C11.25 8.28986 10.2375 8.69565 9 8.69565ZM16.3125 18H1.6875C1.21875 18 0.820312 17.8309 0.492188 17.4928C0.164063 17.1546 0 16.744 0 16.2609V15.2754C0 14.5411 0.178125 13.913 0.534375 13.3913C0.890625 12.8696 1.35 12.4734 1.9125 12.2029C3.16875 11.6232 4.37344 11.1884 5.52656 10.8986C6.67969 10.6087 7.8375 10.4638 9 10.4638C10.1625 10.4638 11.3156 10.6135 12.4594 10.913C13.6031 11.2126 14.8031 11.6425 16.0594 12.2029C16.6406 12.4734 17.1094 12.8696 17.4656 13.3913C17.8219 13.913 18 14.5411 18 15.2754V16.2609C18 16.744 17.8359 17.1546 17.5078 17.4928C17.1797 17.8309 16.7812 18 16.3125 18ZM1.6875 16.2609H16.3125V15.2754C16.3125 14.9662 16.2234 14.6715 16.0453 14.3913C15.8672 14.1111 15.6469 13.9034 15.3844 13.7681C14.1844 13.1691 13.0875 12.7585 12.0938 12.5362C11.1 12.314 10.0688 12.2029 9 12.2029C7.93125 12.2029 6.89063 12.314 5.87813 12.5362C4.86563 12.7585 3.76875 13.1691 2.5875 13.7681C2.325 13.9034 2.10938 14.1111 1.94062 14.3913C1.77187 14.6715 1.6875 14.9662 1.6875 15.2754V16.2609ZM9 6.95652C9.73125 6.95652 10.3359 6.71014 10.8141 6.21739C11.2922 5.72464 11.5312 5.10145 11.5312 4.34783C11.5312 3.5942 11.2922 2.97101 10.8141 2.47826C10.3359 1.98551 9.73125 1.73913 9 1.73913C8.26875 1.73913 7.66406 1.98551 7.18594 2.47826C6.70781 2.97101 6.46875 3.5942 6.46875 4.34783C6.46875 5.10145 6.70781 5.72464 7.18594 6.21739C7.66406 6.71014 8.26875 6.95652 9 6.95652Z" fill="#ACACAC"/>
</svg>
