<svg width="62" height="78" viewBox="0 0 62 78" fill="none" xmlns="http://www.w3.org/2000/svg">
<path d="M58.4143 2.25732C59.2303 2.19463 59.86 2.50583 60.3264 2.94385C60.7154 3.30929 61.0276 3.80766 61.2375 4.12256C61.7566 4.9012 61.4501 5.76368 61.2581 6.18213C61.0211 6.69856 60.6335 7.24614 60.176 7.7876C59.2487 8.88505 57.8474 10.1793 56.1497 11.4927C53.0951 13.8556 48.9413 16.3802 44.5549 17.9966C44.993 18.9331 45.4047 20.1634 45.7493 21.6978C46.3314 24.2902 46.7512 27.8693 46.7512 32.6353C46.7512 44.4265 44.9489 71.6989 44.6799 74.2114C44.5473 75.4502 43.9759 76.7909 42.7571 77.3638C41.3929 78.0048 39.9715 77.3763 38.8674 76.1919C38.322 75.6067 38.0562 74.8829 37.9612 74.2144C37.4702 70.7585 37.3799 67.2474 37.3821 64.1968C37.3843 61.086 37.4782 58.572 37.3733 56.894C36.9426 50.0033 35.9674 45.9382 35.259 42.5142C30.7479 44.2381 24.204 46.6545 18.0588 48.606C14.6564 49.6864 11.3526 50.6328 8.57349 51.2397C7.18452 51.5431 5.90532 51.7659 4.7981 51.8765C3.71375 51.9848 2.69844 51.9959 1.88306 51.814L1.57153 51.7446L1.3313 51.5337C0.830835 51.095 0.414859 50.5269 0.28833 49.8198C0.157997 49.0915 0.371052 48.4185 0.740478 47.8628C1.42437 46.8344 2.77395 45.9992 4.41821 45.2993L4.4602 45.2817L4.50415 45.2661C10.1956 43.3267 17.018 39.9163 22.4543 36.9634C25.164 35.4916 27.5137 34.1418 29.1858 33.1606C30.0215 32.6703 30.6875 32.2717 31.1438 31.9966C31.3719 31.8591 31.548 31.7523 31.6663 31.6802C31.7253 31.6441 31.7703 31.6164 31.8 31.5981C31.8148 31.5891 31.826 31.5821 31.8333 31.5776C31.8367 31.5755 31.8393 31.5738 31.8411 31.5728L31.843 31.5718L31.9553 31.5024L31.9915 31.4888C31.9971 31.4848 32.0045 31.4807 32.012 31.4751C32.0868 31.4183 32.2566 31.2729 32.4944 30.9683C32.9522 30.3816 33.6447 29.223 34.3987 27.0366C34.2492 26.5478 33.8496 25.7609 33.1799 24.9438C32.4527 24.0567 31.5611 23.3206 30.6692 22.9731C27.767 25.3773 23.0749 27.4966 18.885 28.9507C16.7396 29.6952 14.6769 30.2821 12.9807 30.6538C12.134 30.8394 11.3621 30.9748 10.7073 31.0474C10.0857 31.1162 9.45595 31.1432 8.95239 31.0425L8.78833 31.0093L8.63794 30.9341C7.89659 30.5632 7.17843 29.8551 6.82153 29.0435C6.63737 28.6245 6.50942 28.0816 6.63208 27.5015C6.76319 26.882 7.14727 26.38 7.6936 26.0444L7.77856 25.9927L7.87134 25.9546C9.02415 25.4792 10.3658 25.0642 11.7678 24.6421C13.1882 24.2144 14.6907 23.7738 16.2444 23.2349C19.3338 22.1632 22.5357 20.7284 25.3635 18.3813C27.3158 16.4297 31.7796 12.4413 39.7346 11.2759C41.0286 10.8946 43.2382 10.4003 45.8528 9.47119C48.4952 8.53216 51.2949 7.2246 53.3674 5.38232C54.5124 4.36457 55.4436 3.62798 56.219 3.13135C56.9741 2.64772 57.7001 2.31229 58.4143 2.25732ZM58.5979 4.75146C58.4917 4.76223 58.1856 4.83944 57.5667 5.23584C56.9515 5.62983 56.1325 6.26838 55.0276 7.25049C52.6002 9.40808 49.4475 10.8466 46.6897 11.8267C43.9692 12.7934 41.375 13.3913 40.3606 13.6968L40.2708 13.7241L40.177 13.7368C32.8476 14.7881 28.8214 18.4538 27.0833 20.1987L27.0422 20.2397L26.9973 20.2769C23.8333 22.9134 20.2996 24.4737 17.0637 25.5962C15.4488 26.1564 13.8852 26.6151 12.4885 27.0356C11.2253 27.416 10.1118 27.7618 9.1604 28.1313C9.21015 28.2154 9.2817 28.3127 9.37622 28.4097C9.45197 28.4873 9.53032 28.5528 9.60376 28.605C9.76812 28.6119 10.0375 28.6067 10.4319 28.563C10.9722 28.5031 11.6528 28.3852 12.4456 28.2114C14.0292 27.8643 15.9957 27.3064 18.0647 26.5884C22.2443 25.1379 26.6508 23.1017 29.178 20.9634L29.3752 20.814C29.828 20.5073 30.4401 20.3228 31.0901 20.481L31.2405 20.5239L31.5334 20.6274C32.9851 21.1805 34.2211 22.2702 35.1135 23.3589C36.0462 24.4968 36.7809 25.8528 36.9348 26.9341L36.9768 27.2251L36.884 27.5034C36.0286 30.0798 35.1713 31.6015 34.4651 32.5063C34.1103 32.9609 33.7895 33.2649 33.5227 33.4673C33.3894 33.5684 33.2702 33.6441 33.1682 33.6997C33.1423 33.7138 33.1165 33.7252 33.093 33.7368C33.0623 33.7556 33.0207 33.7818 32.968 33.814C32.8462 33.8882 32.6668 33.9974 32.4348 34.1372C31.9708 34.417 31.2966 34.8209 30.4514 35.3169C28.7613 36.3086 26.3867 37.6719 23.6477 39.1597C18.2045 42.1163 11.2582 45.598 5.37036 47.6118C3.82306 48.2736 3.07428 48.8674 2.82153 49.2476C2.77354 49.3198 2.75644 49.3635 2.75122 49.3843C2.75447 49.3926 2.76125 49.407 2.77368 49.4272C3.1972 49.4707 3.78505 49.4655 4.54907 49.3892C5.5265 49.2915 6.70452 49.0891 8.04028 48.7974C10.7108 48.2142 13.9314 47.2935 17.302 46.2231C24.0389 44.0838 31.2833 41.3735 35.7473 39.6499L35.8694 39.603L35.9993 39.5825L39.1106 39.0825L39.2375 39.0679C39.87 39.031 40.4404 39.4787 40.5432 40.1177C40.6527 40.7993 40.1887 41.4408 39.5071 41.5503L37.675 41.8442C38.3751 45.2418 39.4193 49.5519 39.8684 56.7378C39.9797 58.5177 39.8842 61.2472 39.8821 64.1987C39.8799 67.2106 39.9698 70.5827 40.4358 73.8628C40.4774 74.1553 40.5801 74.3619 40.6965 74.4868C41.0679 74.8852 41.3457 75.0377 41.5012 75.0894C41.6323 75.1328 41.6777 75.1086 41.6936 75.1011C41.7811 75.0599 42.1051 74.7714 42.1936 73.9458C42.4541 71.5118 44.2512 44.3283 44.2512 32.6353C44.2512 28.0082 43.8427 24.6188 43.3098 22.2456C42.7716 19.8488 42.1297 18.5977 41.7434 18.1255L40.5754 16.8413L40.4944 16.7427C40.1173 16.2335 40.1799 15.5114 40.6584 15.0757C41.169 14.6112 41.9595 14.6483 42.4241 15.1587L43.0745 15.8735C47.3866 14.385 51.5699 11.8749 54.6204 9.51514C56.235 8.26609 57.4901 7.09145 58.2659 6.17334C58.622 5.75188 58.8382 5.42644 58.9514 5.20557C58.797 4.97755 58.7074 4.85246 58.6155 4.76611C58.609 4.76007 58.6027 4.75558 58.5979 4.75146ZM30.5002 0.999512C33.5375 0.999659 36 3.46223 36.0002 6.49951C36.0002 9.53699 33.5377 11.9994 30.5002 11.9995C27.4627 11.9995 25.0002 9.53708 25.0002 6.49951C25.0005 3.46214 27.4628 0.999512 30.5002 0.999512ZM30.5002 2.99951C28.5674 2.99951 27.0005 4.56671 27.0002 6.49951C27.0002 8.43251 28.5672 9.99951 30.5002 9.99951C32.4331 9.99936 34.0002 8.43242 34.0002 6.49951C34 4.5668 32.433 2.99966 30.5002 2.99951Z" fill="black"/>
</svg>
