<svg width="66" height="78" viewBox="0 0 66 78" fill="none" xmlns="http://www.w3.org/2000/svg">
<path d="M60.3994 4.21187C61.1196 3.85531 61.6298 3.78631 61.9814 3.86422C62.3191 3.93922 62.5549 4.16057 62.7129 4.50093C62.8742 4.84896 62.9472 5.31027 62.9472 5.81636C62.9471 6.01135 62.8492 6.30942 62.6181 6.70797C62.3913 7.09911 62.0522 7.55958 61.6093 8.07027C60.724 9.09105 59.4397 10.2959 57.8554 11.5322C54.7194 13.9793 50.4278 16.5322 45.7695 18.0283L43.6806 15.8271L43.5 16L43.3183 16.1718L45.5097 18.4824C46.0447 19.1308 46.7325 20.5648 47.2851 23.0253C47.8377 25.4862 48.2509 28.9522 48.2509 33.6347C48.2509 45.3666 46.4525 72.5843 46.1884 75.0517C46.0823 76.0429 45.6581 76.7521 45.1181 77.0058C44.6072 77.2456 43.8615 77.1307 42.9648 76.1689C42.6769 75.8599 42.5082 75.4457 42.4453 75.0029C41.9694 71.6528 41.8796 68.2254 41.8818 65.1982C41.884 62.1833 41.9787 59.5398 41.8701 57.8007C41.3802 49.9628 40.1856 45.6365 39.4921 42.0205L42.3486 41.5625C42.4846 41.5403 42.5774 41.4124 42.5556 41.2763C42.5335 41.1402 42.4047 41.0474 42.2685 41.0693L39.1572 41.5693L39.1318 41.5732L39.1074 41.583C34.6348 43.3099 27.4273 46.0797 20.7343 48.2421C17.3876 49.3234 14.1741 50.2507 11.499 50.8203C10.1615 51.105 8.96262 51.3 7.95211 51.3798C6.93677 51.46 6.13115 51.4227 5.5693 51.2597C4.8982 51.0646 4.49779 50.313 4.66598 49.374C4.68899 49.2457 4.72317 49.1147 4.76852 48.9824C5.22672 48.2803 6.12225 47.5864 7.49996 47C14.2809 44.6893 22.7086 40.5066 28.5371 37.4345C30.1908 36.6224 31.6409 35.8963 32.79 35.3125C33.6734 34.8636 34.3798 34.4997 34.8652 34.248C35.1078 34.1222 35.2959 34.0243 35.4228 33.958C35.486 33.9249 35.5339 33.8988 35.5664 33.8818L35.6132 33.8584L35.6152 33.8564H35.6162L35.6845 33.8203L35.7207 33.7519V33.7509L35.7216 33.749C35.7221 33.7481 35.723 33.7472 35.7236 33.7461C35.7249 33.7435 35.7266 33.7402 35.7285 33.7363C35.7324 33.7282 35.738 33.7165 35.7451 33.7011C35.7592 33.6702 35.7805 33.6223 35.8105 33.5507C35.8707 33.407 35.9667 33.165 36.1142 32.7695C36.4093 31.9782 36.9112 30.5659 37.7373 28.0781L37.7548 28.0224L37.747 27.9648C37.6356 27.182 37.3156 26.0334 36.7138 24.9726C36.1124 23.9125 35.2137 22.9127 33.9345 22.4785C33.5294 22.3413 33.1165 22.4791 32.8242 22.7265C30.1467 24.9926 25.5467 27.122 21.3164 28.6035C19.2054 29.3427 17.196 29.9169 15.5781 30.2646C14.7689 30.4385 14.0611 30.5549 13.4902 30.6074C12.9276 30.6591 12.5254 30.6447 12.29 30.581C11.8737 30.3611 11.3746 29.7365 11.1972 28.9892C11.0245 28.2605 11.1644 27.4502 11.9755 26.8271C16.3045 25.0456 23.6365 22.7101 29.6591 17.6914L29.6689 17.6845L29.6767 17.6757C31.4635 15.882 35.1708 13.5303 42.8379 12.4306L42.8564 12.4277L42.874 12.4228C43.9825 12.089 46.5834 11.527 49.4033 10.5693C52.2385 9.60633 55.3783 8.21995 57.666 6.18648C58.782 5.1945 59.6819 4.56711 60.3994 4.21187ZM43.6806 15.8271C43.5855 15.7277 43.427 15.7235 43.3271 15.8183C43.2274 15.9132 43.2238 16.0717 43.3183 16.1718L43.6806 15.8271Z" fill="black"/>
<circle cx="32.5" cy="8.5" r="4.5" fill="black"/>
</svg>
