<svg width="68" height="70" viewBox="0 0 68 70" fill="none" xmlns="http://www.w3.org/2000/svg">
<path d="M1.80859 68.1433H64.7129" stroke="black" stroke-width="2" stroke-linecap="round"/>
<path d="M46.511 25.8658C47.3815 25.8172 48.1033 26.2658 48.7659 27.0015C48.9522 27.2083 49.1855 27.5812 49.4261 28.0015C49.68 28.4451 49.9805 29.0105 50.304 29.6539C50.9514 30.9413 51.7014 32.5627 52.3704 34.1871C53.0371 35.8057 53.6347 37.4541 53.9642 38.7886C54.1277 39.4511 54.235 40.0756 54.2386 40.5972C54.2417 41.0559 54.1689 41.7131 53.6595 42.0953C53.2541 42.3993 52.7333 42.6063 52.1868 42.7544C51.6315 42.905 50.9988 43.0089 50.3343 43.0806C49.0057 43.2239 47.4823 43.2452 46.0599 43.2271C44.6478 43.2092 43.2719 43.1503 42.3138 43.1285C41.98 43.1209 41.6993 43.1204 41.4759 43.1236C41.5169 44.1968 41.6223 46.4531 41.7649 48.855C41.9526 52.0132 42.2 55.2969 42.4417 56.4585C42.6993 57.6961 43.2146 60.4279 43.6634 62.8404C43.8881 64.0485 44.0968 65.1801 44.2493 66.0093C44.3256 66.4238 44.3878 66.7631 44.431 66.9986C44.4525 67.116 44.4694 67.2077 44.4808 67.2701C44.4864 67.301 44.4905 67.3253 44.4935 67.3414C44.4949 67.3493 44.4966 67.3558 44.4974 67.3599C44.4977 67.3618 44.4982 67.3638 44.4983 67.3648V67.3658L44.6585 68.2447H23.7718L24.265 67.1851C25.5815 64.3589 26.5022 61.3835 27.4905 57.4302C27.9563 55.567 27.9647 52.7913 27.72 50.5777C27.6344 49.8028 27.519 49.126 27.3929 48.6011C27.2769 48.9314 27.1336 49.3275 26.9437 49.774C26.366 51.1316 25.3822 52.9503 23.5003 55.1011C21.6367 57.231 19.0093 59.6387 16.5394 61.4449C15.3052 62.3474 14.0889 63.1164 13.0101 63.6236C12.4706 63.8772 11.9474 64.0741 11.4612 64.1861C10.9824 64.2964 10.4879 64.336 10.0325 64.2222C9.23918 64.0239 8.64273 63.7693 8.22296 63.4371C7.77645 63.0836 7.54485 62.6524 7.48956 62.188C7.43964 61.7681 7.54461 61.3834 7.61651 61.1382C7.65928 60.9924 7.68568 60.9115 7.71026 60.8169C7.73258 60.7311 7.73459 60.7007 7.73468 60.7007C7.7347 60.5189 7.7932 60.374 7.83136 60.2945C7.87365 60.2064 7.925 60.1288 7.97101 60.066C8.06327 59.9401 8.1822 59.8095 8.30694 59.6832C8.55944 59.4275 8.90959 59.1157 9.31476 58.7691C10.1182 58.0818 11.2445 57.1692 12.3909 56.2056C13.5541 55.2279 14.7748 54.1674 15.8401 53.1246C16.9139 52.0735 17.7917 51.0761 18.3011 50.2271C19.0424 48.9915 20.4989 46.4706 22.0755 44.0201C22.8647 42.7934 23.6911 41.5725 24.4827 40.5279C25.2653 39.4952 26.0469 38.5893 26.7474 38.0289L26.8343 37.9595L26.9359 37.9185C31.9422 35.916 32.9959 35.3946 38.0667 34.3804L38.2239 34.3628C38.2701 34.3614 38.3089 34.3632 38.3353 34.3648C38.3995 34.3687 38.4646 34.377 38.5247 34.3863C38.6455 34.4049 38.7877 34.4342 38.9398 34.4693C39.246 34.54 39.6404 34.6447 40.0833 34.7691C40.9712 35.0185 42.0964 35.3572 43.1888 35.6851C44.2201 35.9947 45.2212 36.2928 45.9866 36.5044C45.886 36.2848 45.7761 36.0417 45.6546 35.7789C45.2409 34.8836 44.7464 33.8046 44.3304 32.7242C43.918 31.6529 43.5621 30.5303 43.4495 29.5533C43.3429 28.6281 43.423 27.536 44.2659 26.9039C44.9775 26.3702 45.717 25.9102 46.511 25.8658Z" fill="black"/>
<path d="M9.27637 30C9.01177 30.0001 8.76745 30.0849 8.56641 30.2266C8.49611 30.2621 8.42777 30.3043 8.36328 30.3545L5.9248 32.2539C5.38612 32.6735 5.28949 33.4505 5.70898 33.9893C6.12854 34.5279 6.90563 34.6246 7.44434 34.2051L8.04004 33.7402V40.3291C7.74539 40.2458 7.4346 40.2002 7.11328 40.2002C5.23554 40.2002 3.71292 41.7228 3.71289 43.6006C3.71289 45.4784 5.23552 47.0009 7.11328 47.001C8.99107 47.001 10.5137 45.4784 10.5137 43.6006C10.5137 43.5889 10.5128 43.5771 10.5127 43.5654V31.2363C10.5124 30.5537 9.95904 30 9.27637 30Z" fill="black"/>
<path d="M57.3135 43C57.0164 43.0001 56.7419 43.0953 56.5166 43.2549C56.4392 43.2943 56.364 43.3411 56.293 43.3965L53.5674 45.5195C52.9656 45.9885 52.8583 46.857 53.3271 47.459C53.7962 48.0606 54.6637 48.168 55.2656 47.6992L55.9326 47.1797V54.5449C55.603 54.4516 55.255 54.4004 54.8955 54.4004C52.7972 54.4006 51.0959 56.1019 51.0957 58.2002C51.0957 60.2987 52.797 62.0007 54.8955 62.001C56.9942 62.001 58.6963 60.2989 58.6963 58.2002C58.6963 58.1872 58.6954 58.1741 58.6953 58.1611V44.3818C58.6951 43.6189 58.0765 43 57.3135 43Z" fill="black"/>
<path d="M40.4121 6.02734C40.248 5.9895 40.0725 5.98958 39.8984 6.03613L31.665 8.24219C31.2332 8.35803 30.9363 8.72354 30.8848 9.1416C30.847 9.25072 30.8252 9.3673 30.8252 9.48926V17.1426C30.5709 17.0706 30.3027 17.0303 30.0254 17.0303C28.4075 17.0305 27.0957 18.342 27.0957 19.96C27.0958 21.5778 28.4075 22.8895 30.0254 22.8896C31.4824 22.8896 32.6888 21.8257 32.915 20.4326C32.941 20.3406 32.955 20.2438 32.9551 20.1436V10.1025L39.3477 8.38965V14.9287C39.0935 14.8568 38.826 14.8164 38.5488 14.8164C36.9308 14.8164 35.6191 16.128 35.6191 17.7461C35.6191 19.3642 36.9308 20.6758 38.5488 20.6758C40.1669 20.6757 41.4785 19.3641 41.4785 17.7461V7.09277C41.4785 6.50438 41.0015 6.02734 40.4131 6.02734H40.4121Z" fill="black"/>
<path d="M38.9039 23.6405L47.7411 20.3555C47.9584 20.275 48.2013 20.3737 48.3006 20.5831L49.3898 22.8811C49.4874 23.0873 49.414 23.3351 49.2196 23.4545L41.1699 28.399C41.1559 28.4076 41.14 28.4121 41.1254 28.419L38.869 23.6581C38.8806 23.6526 38.8915 23.6451 38.9039 23.6405ZM44.0412 24.1278C44.147 24.3509 44.4138 24.4462 44.6369 24.3405C44.86 24.2347 44.9551 23.9679 44.8495 23.7447C44.7436 23.5217 44.4769 23.4264 44.2538 23.5321C44.0307 23.6379 43.9356 23.9047 44.0412 24.1278ZM41.212 25.4687C41.3179 25.6918 41.5846 25.7871 41.8077 25.6813L43.4244 24.9151C43.6475 24.8094 43.7426 24.5426 43.637 24.3194C43.5312 24.0963 43.2644 24.001 43.0413 24.1068L41.4246 24.873C41.2015 24.9788 41.1064 25.2456 41.212 25.4687ZM35.1495 28.3421C34.4089 26.7796 35.0753 24.9125 36.6377 24.172C37.0728 23.9658 37.5309 23.873 37.982 23.8753L40.4007 28.9786C40.1167 29.3288 39.7544 29.6243 39.3195 29.8304C37.757 30.5709 35.89 29.9046 35.1495 28.3421Z" fill="black"/>
<path d="M27.415 23C31.1163 23.0001 34.1172 26.0009 34.1172 29.7021C34.1171 33.4033 31.1162 36.4042 27.415 36.4043C23.7137 36.4043 20.713 33.4034 20.7129 29.7021C20.7129 26.0008 23.7137 23 27.415 23ZM31.3057 30.5586C30.7544 29.6018 29.7237 29.3943 29.0059 29.8076C28.2882 30.221 28.1551 31.0986 28.7061 32.0557C29.2571 33.0128 30.286 33.4541 31.0039 33.041C31.7218 32.6276 31.8568 31.5158 31.3057 30.5586Z" fill="black"/>
</svg>
