<svg width="65" height="70" viewBox="0 0 65 70" fill="none" xmlns="http://www.w3.org/2000/svg">
<circle cx="26" cy="30" r="6" stroke="black" stroke-width="2"/>
<path d="M29.4975 30.559C30.0486 31.5162 29.9134 32.6273 29.1955 33.0407C28.4776 33.454 27.4488 33.0132 26.8976 32.0559C26.3465 31.0987 26.4796 30.2208 27.1975 29.8074C27.9154 29.3941 28.9463 29.6017 29.4975 30.559Z" fill="black"/>
<path d="M1 69H63.9043" stroke="black" stroke-width="2" stroke-linecap="round"/>
<path d="M45.6597 26.1119C46.8557 26.045 47.7826 26.679 48.519 27.4967C48.7819 27.7886 49.0594 28.2675 49.2934 28.6978C49.5587 29.1856 49.8693 29.8037 50.2007 30.5016C50.8642 31.8987 51.6329 33.6606 52.3198 35.4264C53.0026 37.1816 53.6242 38.9905 53.9731 40.4654C54.1454 41.1936 54.2693 41.9161 54.2768 42.5416C54.2806 42.8539 54.2572 43.2103 54.1577 43.5592C54.0589 43.9056 53.8501 44.3621 53.3999 44.6998C52.8361 45.1226 52.1493 45.3314 51.5298 45.4459C50.8883 45.5644 50.1784 45.6062 49.4614 45.6051C48.0272 45.6027 46.3959 45.4266 44.8999 45.2184C43.478 45.0204 42.097 44.782 41.1069 44.6236C41.1185 44.7815 41.1298 44.9483 41.1431 45.1227C41.2343 46.3274 41.3614 47.895 41.5044 49.5172C41.7952 52.8162 42.1394 56.1835 42.3725 57.3043C42.6322 58.5515 43.1489 61.2921 43.5972 63.7018C43.822 64.9106 44.0314 66.043 44.1841 66.8727C44.2603 67.2871 44.3225 67.6263 44.3657 67.8619C44.3873 67.9796 44.4041 68.0719 44.4155 68.1344C44.4212 68.1655 44.4253 68.1896 44.4282 68.2057C44.4297 68.2137 44.4314 68.2201 44.4321 68.2242C44.4324 68.2258 44.4329 68.2272 44.4331 68.2281V68.2301L44.7563 69.9996H21.7778L22.772 67.8668C24.0588 65.1044 24.9658 62.1821 25.9497 58.2467C26.3398 56.6859 26.3908 54.3722 26.2241 52.3434C25.5903 53.5544 24.6668 54.9907 23.2602 56.5982C21.3588 58.7713 18.6907 61.2173 16.1772 63.0553C14.9221 63.973 13.6619 64.7717 12.5229 65.3072C11.9535 65.5749 11.3777 65.7936 10.8227 65.9215C10.282 66.0461 9.65587 66.1085 9.04051 65.9547C8.19791 65.744 7.48479 65.4555 6.94579 65.0289C6.35298 64.5596 6.01156 63.9528 5.93114 63.2779C5.86138 62.6919 6.00977 62.1767 6.08348 61.9254C6.13412 61.7528 6.15045 61.707 6.17137 61.6266C6.17231 61.623 6.17357 61.6197 6.1743 61.6168C6.19013 61.3156 6.28533 61.0851 6.34129 60.9684C6.41086 60.8234 6.4911 60.7035 6.55321 60.6187C6.6774 60.4493 6.82639 60.2887 6.96141 60.1519C7.23751 59.8724 7.6078 59.5434 8.01512 59.1949C8.81606 58.5097 9.97144 57.5729 11.0962 56.6275C12.2548 55.6537 13.4586 54.6073 14.5034 53.5846C15.5652 52.5453 16.3868 51.6025 16.8452 50.8385C17.2067 50.2359 17.6838 49.3817 18.2583 48.3639C18.8253 47.3591 19.474 46.2188 20.1577 45.0904C20.84 43.9643 21.5685 42.8299 22.2964 41.8394C23.0106 40.8676 23.7827 39.953 24.563 39.3287L24.7143 39.2076L24.8911 39.1295C29.0869 37.2647 29.9947 36.0711 35.2056 35.0289C35.4709 34.9759 35.7345 34.988 35.8784 34.9967C36.059 35.0076 36.2598 35.0295 36.4634 35.0572C36.8725 35.113 37.3762 35.2011 37.9243 35.3062C39.0242 35.5172 40.3857 35.8126 41.6899 36.0973C42.4753 36.2687 43.239 36.4338 43.9223 36.5797C43.5629 35.7943 43.164 34.8973 42.8169 33.9957C42.3982 32.9081 42.0148 31.7132 41.8911 30.6393C41.7795 29.6699 41.8141 28.1934 43.0044 27.3004C43.7181 26.7651 44.6182 26.1704 45.6597 26.1119ZM45.8227 29.107C45.8023 29.1094 45.7218 29.1242 45.5581 29.2066C45.3839 29.2944 45.1638 29.4345 44.8745 29.648C44.8559 29.7168 44.8261 29.9022 44.8716 30.2965C44.951 30.9855 45.223 31.8949 45.6167 32.9176C46.0032 33.9216 46.4686 34.9401 46.8833 35.8375C47.266 36.6657 47.6741 37.5285 47.8374 38.0562C47.9603 38.4537 47.931 38.9582 47.6206 39.3902C47.3699 39.739 47.0477 39.8791 46.9145 39.9293C46.6457 40.0305 46.4031 40.0345 46.3423 40.0357C46.1548 40.0396 45.9578 40.0173 45.8149 39.9986C45.4979 39.9571 45.0708 39.8794 44.5981 39.7857C43.6412 39.5962 42.3491 39.3114 41.0503 39.0279C39.7394 38.7418 38.415 38.4551 37.3589 38.2525C36.8295 38.151 36.3875 38.0748 36.0581 38.0299C35.8932 38.0074 35.7756 37.9954 35.6997 37.9908C31.0708 38.9268 30.8849 39.7252 26.3081 41.7799C25.8619 42.1682 25.3216 42.7905 24.7143 43.6168C24.0606 44.5063 23.3839 45.5562 22.7241 46.6451C22.0657 47.7317 21.4351 48.8383 20.8706 49.8385C20.3136 50.8255 19.8059 51.735 19.4175 52.3824C18.7565 53.4839 17.7113 54.6423 16.602 55.7281C15.4757 56.8306 14.2035 57.9344 13.0268 58.9234C11.8164 59.9409 10.7759 60.7808 9.96532 61.4742C9.57205 61.8106 9.28463 62.0694 9.10204 62.2535C9.09141 62.3011 9.08423 62.3447 9.07469 62.3814C9.0398 62.5157 8.9828 62.697 8.96239 62.7662C9.10665 62.8386 9.3558 62.9414 9.76805 63.0445C9.74964 63.0399 9.85472 63.0664 10.1489 62.9986C10.43 62.9338 10.7968 62.8029 11.2466 62.5914C12.1464 62.1683 13.2348 61.4904 14.4067 60.6334C16.7477 58.9215 19.2511 56.6241 21.0024 54.6227C22.7167 52.6634 23.5781 51.0508 24.0698 49.8951C24.3199 49.3072 24.479 48.8303 24.6225 48.4156C24.69 48.2208 24.7677 47.9994 24.853 47.8043C24.927 47.6351 25.0745 47.3191 25.3442 47.0494L25.4448 46.9566C25.6997 46.7363 26.0962 46.5103 26.6196 46.5201C27.1992 46.5312 27.6056 46.826 27.8227 47.0377C28.2119 47.4172 28.4201 47.9374 28.5386 48.2779C28.8114 49.0622 29.014 50.1637 29.1431 51.3316C29.401 53.6656 29.4179 56.7418 28.8598 58.9742C28.091 62.0497 27.3448 64.6111 26.4048 66.9996H41.1557C41.0134 66.2269 40.8368 65.2657 40.6479 64.2506C40.1976 61.8299 39.6877 59.1258 39.436 57.9166C39.1579 56.5805 38.7995 52.9956 38.5161 49.7809C38.2326 46.5656 38.0005 43.4377 38.0005 42.9996C38.0007 42.1452 38.6285 41.7286 38.894 41.6041C39.1493 41.4845 39.3846 41.4586 39.477 41.4498C39.6966 41.4288 39.9245 41.4429 40.0874 41.4566C40.4436 41.4867 40.9177 41.5564 41.4302 41.6373C42.4976 41.8059 43.8536 42.0435 45.313 42.2467C46.769 42.4493 48.2397 42.6031 49.4663 42.6051C50.0794 42.6061 50.5898 42.5687 50.9848 42.4957C51.0966 42.475 51.1901 42.4518 51.2681 42.4303C51.2483 42.1305 51.1832 41.7053 51.0532 41.1559C50.7515 39.8804 50.188 38.2214 49.5239 36.5143C48.8639 34.8177 48.124 33.1222 47.4907 31.7887C47.1737 31.1212 46.8883 30.5555 46.6577 30.1314C46.3982 29.6544 46.279 29.4923 46.2895 29.5035C46.0669 29.2564 45.9234 29.1584 45.8559 29.1227C45.8392 29.1138 45.8283 29.109 45.8227 29.107Z" fill="black"/>
<path d="M9.44922 28L9.4492 27H9.44922V28ZM8.60938 28.2686L9.18786 29.0843L9.12844 29.1264L9.06355 29.1595L8.60938 28.2686ZM8.375 28.417L7.76041 27.6281L7.7608 27.6278L8.375 28.417ZM5.50586 30.6523L4.89125 29.8635L4.89127 29.8635L5.50586 30.6523ZM5.25195 32.6934L4.46304 33.3079L4.46301 33.3078L5.25195 32.6934ZM7.29297 32.9473L7.90744 33.7362L7.90717 33.7364L7.29297 32.9473ZM7.99512 32.4004L7.38065 31.6115L8.99512 30.354V32.4004H7.99512ZM7.99512 40.1523H8.99512V41.4746L7.72283 41.1146L7.99512 40.1523ZM6.9043 40.001V39.001H6.90437L6.9043 40.001ZM2.9043 44.001L1.9043 44.0011V44.001H2.9043ZM6.9043 48.001L6.90437 49.001H6.9043V48.001ZM10.9043 44.001H11.9043V44.0011L10.9043 44.001ZM10.9033 43.9658L9.90332 43.9743V43.9658H10.9033ZM9.44922 28L9.44923 29C9.35337 29 9.26447 29.0299 9.18786 29.0843L8.60938 28.2686L8.03089 27.4529C8.42896 27.1706 8.91884 27 9.4492 27L9.44922 28ZM8.60938 28.2686L9.06355 29.1595C9.03446 29.1743 9.00998 29.19 8.9892 29.2061L8.375 28.417L7.7608 27.6278C7.88908 27.528 8.02203 27.4455 8.1552 27.3776L8.60938 28.2686ZM8.375 28.417L8.98959 29.2058L6.12045 31.4412L5.50586 30.6523L4.89127 29.8635L7.76041 27.6281L8.375 28.417ZM5.50586 30.6523L6.12047 31.4412C5.92212 31.5957 5.88693 31.8812 6.04089 32.0789L5.25195 32.6934L4.46301 33.3078C3.62985 32.2381 3.82242 30.6963 4.89125 29.8635L5.50586 30.6523ZM5.25195 32.6934L6.04087 32.0789C6.19498 32.2767 6.48059 32.3124 6.67877 32.1581L7.29297 32.9473L7.90717 33.7364C6.83787 34.5687 5.29597 34.3772 4.46304 33.3079L5.25195 32.6934ZM7.29297 32.9473L6.6785 32.1583L7.38065 31.6115L7.99512 32.4004L8.60959 33.1893L7.90744 33.7362L7.29297 32.9473ZM7.99512 32.4004H8.99512V40.1523H7.99512H6.99512V32.4004H7.99512ZM7.99512 40.1523L7.72283 41.1146C7.46246 41.0409 7.1883 41.001 6.90422 41.001L6.9043 40.001L6.90437 39.001C7.37683 39.001 7.83408 39.0675 8.26741 39.1901L7.99512 40.1523ZM6.9043 40.001V41.001C5.24744 41.001 3.9043 42.3441 3.9043 44.001H2.9043H1.9043C1.9043 41.2396 4.14287 39.001 6.9043 39.001V40.001ZM2.9043 44.001L3.9043 44.0009C3.90445 45.6577 5.24766 47.001 6.9043 47.001V48.001V49.001C4.14291 49.001 1.90455 46.7622 1.9043 44.0011L2.9043 44.001ZM6.9043 48.001L6.90422 47.001C8.56085 47.0008 9.90414 45.6575 9.9043 44.0009L10.9043 44.001L11.9043 44.0011C11.904 46.7621 9.66548 49.0008 6.90437 49.001L6.9043 48.001ZM10.9043 44.001H9.9043C9.9043 44.0104 9.90447 44.0175 9.90457 44.0208C9.90465 44.0237 9.90473 44.0255 9.90462 44.0227C9.90457 44.0214 9.90428 44.0144 9.90405 44.0074C9.9038 43.9997 9.90347 43.9881 9.90336 43.9743L10.9033 43.9658L11.9033 43.9573C11.9032 43.9494 11.903 43.9436 11.903 43.9418C11.9029 43.9406 11.9029 43.9395 11.9031 43.9441C11.9032 43.9471 11.9035 43.9548 11.9038 43.9637C11.904 43.9728 11.9043 43.9858 11.9043 44.001H10.9043ZM10.9033 43.9658H9.90332V29.4551H10.9033H11.9033V43.9658H10.9033ZM10.9033 29.4551H9.90332C9.90332 29.2032 9.69938 29 9.44922 29V28V27C10.8057 27 11.9033 28.1003 11.9033 29.4551H10.9033Z" fill="black"/>
<path d="M59.5449 38L59.5449 37H59.5449V38ZM58.7051 38.2686L59.2836 39.0843L59.2241 39.1264L59.1593 39.1595L58.7051 38.2686ZM58.4707 38.417L57.8561 37.6281L57.8565 37.6278L58.4707 38.417ZM55.6016 40.6523L54.987 39.8635L54.987 39.8635L55.6016 40.6523ZM55.3477 42.6934L54.5587 43.3079L54.5587 43.3078L55.3477 42.6934ZM57.3887 42.9473L58.0031 43.7362L58.0029 43.7364L57.3887 42.9473ZM58.0908 42.4004L57.4763 41.6115L59.0908 40.354V42.4004H58.0908ZM58.0908 50.1523H59.0908V51.4746L57.8185 51.1146L58.0908 50.1523ZM57 50.001V49.001H57.0001L57 50.001ZM53 54.001L52 54.0011V54.001H53ZM57 58.001L57.0001 59.001H57V58.001ZM61 54.001H62V54.0011L61 54.001ZM60.999 53.9658L59.999 53.9743V53.9658H60.999ZM59.5449 38L59.5449 39C59.4491 39 59.3602 39.0299 59.2836 39.0843L58.7051 38.2686L58.1266 37.4529C58.5247 37.1706 59.0145 37 59.5449 37L59.5449 38ZM58.7051 38.2686L59.1593 39.1595C59.1302 39.1743 59.1057 39.19 59.0849 39.2061L58.4707 38.417L57.8565 37.6278C57.9848 37.528 58.1177 37.4455 58.2509 37.3776L58.7051 38.2686ZM58.4707 38.417L59.0853 39.2058L56.2162 41.4412L55.6016 40.6523L54.987 39.8635L57.8561 37.6281L58.4707 38.417ZM55.6016 40.6523L56.2162 41.4412C56.0178 41.5957 55.9826 41.8812 56.1366 42.0789L55.3477 42.6934L54.5587 43.3078C53.7256 42.2381 53.9181 40.6963 54.987 39.8635L55.6016 40.6523ZM55.3477 42.6934L56.1366 42.0789C56.2907 42.2767 56.5763 42.3124 56.7745 42.1581L57.3887 42.9473L58.0029 43.7364C56.9336 44.5687 55.3917 44.3772 54.5587 43.3079L55.3477 42.6934ZM57.3887 42.9473L56.7742 42.1583L57.4763 41.6115L58.0908 42.4004L58.7053 43.1893L58.0031 43.7362L57.3887 42.9473ZM58.0908 42.4004H59.0908V50.1523H58.0908H57.0908V42.4004H58.0908ZM58.0908 50.1523L57.8185 51.1146C57.5582 51.0409 57.284 51.001 56.9999 51.001L57 50.001L57.0001 49.001C57.4725 49.001 57.9298 49.0675 58.3631 49.1901L58.0908 50.1523ZM57 50.001V51.001C55.3431 51.001 54 52.3441 54 54.001H53H52C52 51.2396 54.2386 49.001 57 49.001V50.001ZM53 54.001L54 54.0009C54.0002 55.6577 55.3434 57.001 57 57.001V58.001V59.001C54.2386 59.001 52.0003 56.7622 52 54.0011L53 54.001ZM57 58.001L56.9999 57.001C58.6566 57.0008 59.9998 55.6575 60 54.0009L61 54.001L62 54.0011C61.9997 56.7621 59.7612 59.0008 57.0001 59.001L57 58.001ZM61 54.001H60C60 54.0104 60.0002 54.0175 60.0003 54.0208C60.0004 54.0237 60.0004 54.0255 60.0003 54.0227C60.0003 54.0214 60 54.0144 59.9998 54.0074C59.9995 53.9997 59.9992 53.9881 59.9991 53.9743L60.999 53.9658L61.999 53.9573C61.9989 53.9494 61.9987 53.9436 61.9987 53.9418C61.9986 53.9406 61.9986 53.9395 61.9988 53.9441C61.9989 53.9471 61.9992 53.9548 61.9995 53.9637C61.9997 53.9728 62 53.9858 62 54.001H61ZM60.999 53.9658H59.999V39.4551H60.999H61.999V53.9658H60.999ZM60.999 39.4551H59.999C59.999 39.2032 59.7951 39 59.5449 39V38V37C60.9014 37 61.999 38.1003 61.999 39.4551H60.999Z" fill="black"/>
<path d="M43.2197 1.0293L43.1698 2.02805L43.081 2.02361L42.9944 2.00358L43.2197 1.0293ZM42.666 1.03906L42.9248 2.00499L42.9248 2.00499L42.666 1.03906ZM33.8164 3.41016L33.5575 2.44425L33.5576 2.44423L33.8164 3.41016ZM32.9775 4.37598L33.9699 4.49921L33.9569 4.60403L33.9223 4.70381L32.9775 4.37598ZM32.9131 4.75098H31.9131V4.75095L32.9131 4.75098ZM32.9131 12.9756H33.9131V14.2977L32.6409 13.9378L32.9131 12.9756ZM32.0537 12.8564L32.0536 11.8564H32.0537V12.8564ZM28.9043 16.0059H27.9043V16.0057L28.9043 16.0059ZM32.0537 19.1553V20.1553H32.0536L32.0537 19.1553ZM35.167 16.4854L34.1784 16.3345L34.1858 16.2865L34.1977 16.2396L35.167 16.4854ZM35.2031 5.41016H34.2031V4.64288L34.9442 4.44425L35.2031 5.41016ZM42.0752 3.56836L41.8163 2.60245L43.0752 2.26506V3.56836H42.0752ZM42.0752 10.5967H43.0752V11.919L41.8028 11.5589L42.0752 10.5967ZM41.2158 10.4775L41.2158 9.47754H41.2158V10.4775ZM38.0664 13.627L37.0664 13.6271V13.627H38.0664ZM41.2158 16.7764V17.7764H41.2158L41.2158 16.7764ZM44.3613 13.7891L45.361 13.8132L45.3607 13.8265L45.36 13.8398L44.3613 13.7891ZM44.3652 13.627H45.3652V13.639L45.3649 13.651L44.3652 13.627ZM44.3652 2.17383L45.3652 2.17348V2.17383H44.3652ZM43.3369 1.03516L43.3869 0.0364039L43.4124 0.0376804L43.4378 0.0402597L43.3369 1.03516ZM43.2197 1.0293L42.9944 2.00358C42.9724 1.99849 42.9494 1.9984 42.9248 2.00499L42.666 1.03906L42.4072 0.0731367C42.7577 -0.0207844 43.1134 -0.0216819 43.445 0.0550099L43.2197 1.0293ZM42.666 1.03906L42.9248 2.00499L34.0752 4.37609L33.8164 3.41016L33.5576 2.44423L42.4072 0.0731325L42.666 1.03906ZM33.8164 3.41016L34.0753 4.37606C34.0204 4.39078 33.9775 4.43776 33.9699 4.49921L32.9775 4.37598L31.9852 4.25274C32.089 3.41619 32.6846 2.67823 33.5575 2.44425L33.8164 3.41016ZM32.9775 4.37598L33.9223 4.70381C33.9148 4.72526 33.9131 4.7404 33.9131 4.75101L32.9131 4.75098L31.9131 4.75095C31.9131 4.49846 31.9586 4.26199 32.0328 4.04814L32.9775 4.37598ZM32.9131 4.75098H33.9131V12.9756H32.9131H31.9131V4.75098H32.9131ZM32.9131 12.9756L32.6409 13.9378C32.4543 13.8851 32.2575 13.8564 32.0537 13.8564V12.8564V11.8564C32.4456 11.8564 32.8256 11.9116 33.1853 12.0134L32.9131 12.9756ZM32.0537 12.8564L32.0538 13.8564C30.8669 13.8565 29.9044 14.819 29.9043 16.006L28.9043 16.0059L27.9043 16.0057C27.9046 13.7145 29.7623 11.8566 32.0536 11.8564L32.0537 12.8564ZM28.9043 16.0059H29.9043C29.9043 17.1928 30.8667 18.1552 32.0538 18.1553L32.0537 19.1553L32.0536 20.1553C29.7623 20.1551 27.9043 18.2975 27.9043 16.0059H28.9043ZM32.0537 19.1553V18.1553C33.1289 18.1553 34.0211 17.3653 34.1784 16.3345L35.167 16.4854L36.1555 16.6362C35.8513 18.6293 34.1315 20.1553 32.0537 20.1553V19.1553ZM35.167 16.4854L34.1977 16.2396C34.2023 16.2214 34.2031 16.2096 34.2031 16.2031H35.2031H36.2031C36.2031 16.3915 36.1775 16.5687 36.1363 16.7311L35.167 16.4854ZM35.2031 16.2031H34.2031V5.41016H35.2031H36.2031V16.2031H35.2031ZM35.2031 5.41016L34.9442 4.44425L41.8163 2.60245L42.0752 3.56836L42.3341 4.53427L35.462 6.37607L35.2031 5.41016ZM42.0752 3.56836H43.0752V10.5967H42.0752H41.0752V3.56836H42.0752ZM42.0752 10.5967L41.8028 11.5589C41.6164 11.5061 41.4198 11.4775 41.2158 11.4775V10.4775V9.47754C41.6078 9.47754 41.9876 9.53258 42.3476 9.63449L42.0752 10.5967ZM41.2158 10.4775L41.2158 11.4775C40.0288 11.4775 39.0664 12.4399 39.0664 13.627H38.0664H37.0664C37.0664 11.3353 38.9242 9.47756 41.2158 9.47754L41.2158 10.4775ZM38.0664 13.627L39.0664 13.6268C39.0666 14.8139 40.029 15.7764 41.2158 15.7764L41.2158 16.7764L41.2158 17.7764C38.9242 17.7763 37.0667 15.9183 37.0664 13.6271L38.0664 13.627ZM41.2158 16.7764V15.7764C42.3653 15.7764 43.3049 14.8731 43.3626 13.7383L44.3613 13.7891L45.36 13.8398C45.2486 16.0327 43.436 17.7764 41.2158 17.7764V16.7764ZM44.3613 13.7891L43.3616 13.765L43.3655 13.6029L44.3652 13.627L45.3649 13.651L45.361 13.8132L44.3613 13.7891ZM44.3652 13.627H43.3652V2.17383H44.3652H45.3652V13.627H44.3652ZM44.3652 2.17383L43.3652 2.17418C43.3652 2.09993 43.3085 2.0374 43.236 2.03005L43.3369 1.03516L43.4378 0.0402597C44.5202 0.150034 45.3648 1.06206 45.3652 2.17348L44.3652 2.17383ZM43.3369 1.03516L43.287 2.03391L43.1698 2.02805L43.2197 1.0293L43.2697 0.0305445L43.3869 0.0364039L43.3369 1.03516Z" fill="black"/>
<path d="M38.3061 23.3942L38.0912 22.4175L38.0912 22.4175L38.3061 23.3942ZM47.514 21.369L47.3001 20.3921L47.2991 20.3923L47.514 21.369ZM48.0365 21.6721L48.9909 21.3735L48.9906 21.3726L48.0365 21.6721ZM48.7958 24.0991L49.7505 23.8015L49.7502 23.8005L48.7958 24.0991ZM48.5475 24.6433L48.9475 25.5599L48.9475 25.5598L48.5475 24.6433ZM39.889 28.4214L40.2889 29.338L40.2889 29.3379L39.889 28.4214ZM39.8421 28.435L38.8877 28.7336L39.1859 29.6868L40.1395 29.3898L39.8421 28.435ZM38.2691 23.4068L37.9703 22.4525L37.0162 22.7512L37.3147 23.7054L38.2691 23.4068ZM33.9348 27.5286L32.9804 27.8271L32.9804 27.8271L33.9348 27.5286ZM35.9881 23.6057L35.6895 22.6513L35.6895 22.6513L35.9881 23.6057ZM37.3605 23.4987L38.3149 23.2001L38.1271 22.5997L37.5046 22.5091L37.3605 23.4987ZM39.0467 28.8885L39.7283 29.6202L40.1891 29.191L40.0011 28.5899L39.0467 28.8885ZM37.8577 29.5818L38.1563 30.5362L38.1563 30.5362L37.8577 29.5818ZM38.3061 23.3942L38.5209 24.3709L47.7288 22.3456L47.514 21.369L47.2991 20.3923L38.0912 22.4175L38.3061 23.3942ZM47.514 21.369L47.7278 22.3458C47.4478 22.4071 47.1681 22.2445 47.0824 21.9716L48.0365 21.6721L48.9906 21.3726C48.7661 20.6577 48.0327 20.2317 47.3001 20.3921L47.514 21.369ZM48.0365 21.6721L47.0821 21.9707L47.8414 24.3976L48.7958 24.0991L49.7502 23.8005L48.9909 21.3735L48.0365 21.6721ZM48.7958 24.0991L47.8411 24.3966C47.7577 24.1291 47.8876 23.8403 48.1475 23.7268L48.5475 24.6433L48.9475 25.5598C49.6256 25.2639 49.9696 24.5046 49.7505 23.8015L48.7958 24.0991ZM48.5475 24.6433L48.1476 23.7268L39.4891 27.5048L39.889 28.4214L40.2889 29.3379L48.9475 25.5599L48.5475 24.6433ZM39.889 28.4214L39.4892 27.5048C39.5265 27.4885 39.5583 27.4777 39.5804 27.4708C39.6018 27.4641 39.618 27.46 39.622 27.459C39.6239 27.4585 39.6253 27.4582 39.6228 27.4588C39.6215 27.4591 39.6161 27.4604 39.6103 27.4619C39.5986 27.4648 39.5743 27.4711 39.5447 27.4803L39.8421 28.435L40.1395 29.3898C40.1177 29.3966 40.1012 29.4007 40.0973 29.4017C40.0954 29.4022 40.094 29.4025 40.0966 29.4019C40.0981 29.4015 40.1034 29.4002 40.1094 29.3987C40.1297 29.3936 40.203 29.3754 40.2889 29.338L39.889 28.4214ZM39.8421 28.435L40.7965 28.1365L39.2234 23.1082L38.2691 23.4068L37.3147 23.7054L38.8877 28.7336L39.8421 28.435ZM38.2691 23.4068L38.5678 24.3611C38.5959 24.3523 38.6183 24.3441 38.6295 24.3399C38.6352 24.3377 38.6401 24.3359 38.6417 24.3352C38.6445 24.3342 38.6432 24.3347 38.6419 24.3351C38.6392 24.3362 38.6252 24.3415 38.6062 24.3477C38.5865 24.3541 38.5572 24.3629 38.5209 24.3709L38.3061 23.3942L38.0912 22.4175C38.0484 22.427 38.0129 22.4375 37.987 22.446C37.9617 22.4542 37.9416 22.4617 37.9327 22.4651C37.9285 22.4667 37.9241 22.4684 37.9238 22.4685C37.9225 22.469 37.9243 22.4683 37.927 22.4673C37.9321 22.4654 37.9483 22.4593 37.9703 22.4525L38.2691 23.4068ZM33.9348 27.5286L34.8892 27.23C34.5379 26.1068 35.1635 24.9115 36.2867 24.5601L35.9881 23.6057L35.6895 22.6513C33.5122 23.3325 32.2993 25.6498 32.9804 27.8271L33.9348 27.5286ZM35.9881 23.6057L36.2866 24.5601C36.5955 24.4635 36.9104 24.4437 37.2165 24.4882L37.3605 23.4987L37.5046 22.5091C36.9179 22.4237 36.2996 22.4605 35.6895 22.6513L35.9881 23.6057ZM37.3605 23.4987L36.4061 23.7972L38.0923 29.1871L39.0467 28.8885L40.0011 28.5899L38.3149 23.2001L37.3605 23.4987ZM39.0467 28.8885L38.3651 28.1568C38.1389 28.3675 37.8685 28.5306 37.5591 28.6274L37.8577 29.5818L38.1563 30.5362C38.7654 30.3456 39.2946 30.0243 39.7283 29.6202L39.0467 28.8885ZM37.8577 29.5818L37.5591 28.6274C36.436 28.9788 35.2406 28.3531 34.8892 27.23L33.9348 27.5286L32.9804 27.8271C33.6616 30.0045 35.9789 31.2174 38.1563 30.5362L37.8577 29.5818Z" fill="black"/>
</svg>
