<svg width="74" height="79" viewBox="0 0 74 79" fill="none" xmlns="http://www.w3.org/2000/svg">
<path d="M65.9793 7.01004C65.997 6.97475 67.5365 3.91854 69.5067 5.41043C72.9187 7.99567 61.4998 19.5003 59.9999 21.5003C59.645 21.9733 59.0618 22.5761 58.3153 23.2718C57.3431 24.0349 56.161 24.9036 54.8778 25.8186C52.1368 27.7733 48.9289 29.9592 46.453 31.7854L46.4295 31.804L45.16 32.8616C44.9483 33.0384 44.9199 33.3537 45.0965 33.5657C45.2732 33.7776 45.5885 33.8066 45.8006 33.6302L47.0555 32.5823C47.3605 32.3574 47.6758 32.1269 47.9999 31.8929V34.5003C47.9996 37.316 45.0974 44.0806 44.1209 46.2776C42.9425 46.2549 41.8013 46.2199 40.8534 46.1673L40.826 46.6673L40.7977 47.1663C42.7158 47.2729 45.3959 47.3069 47.5887 47.3147C48.6866 47.3186 49.6658 47.3155 50.37 47.3118V47.3108C53.4695 47.7614 56.4999 48.7712 56.4999 51.0003C56.4999 54.617 57.9995 55.1695 55.4413 75.5999C55.0153 79.0014 50.3161 78.5098 49.9999 77.5003C48.942 74.1151 51.5003 58.9998 50.4657 55.553C50.0374 54.1267 42.0931 54.6874 38.576 55.0071C38.5366 55.001 38.496 54.9985 38.4549 55.0022H38.453C38.451 55.0024 38.4475 55.0028 38.4432 55.0032C38.4342 55.0039 38.4198 55.0048 38.4012 55.0061C38.3638 55.0089 38.3076 55.013 38.2352 55.0169C38.0894 55.0246 37.8773 55.0325 37.619 55.0335C37.1004 55.0355 36.3997 55.0094 35.6659 54.8977C34.9288 54.7856 34.1796 54.5905 33.5506 54.2679C32.9247 53.9467 32.4437 53.513 32.1854 52.9309L31.7284 53.1341L31.2713 53.3362C31.6489 54.187 32.3319 54.7663 33.0946 55.1575C33.8543 55.5472 34.7188 55.7648 35.5155 55.886C35.6987 55.9139 35.8799 55.9348 36.0565 55.9534C34.0481 57.7767 28.8367 62.4938 23.5272 67.1536C18.1131 71.5438 12.7234 75.8301 10.3124 77.4876C10.1066 77.6292 10.0412 77.8971 10.1463 78.1155C8.37988 78.7638 3.57718 79.0467 4.34165 77.1341C5.18789 75.0183 12.6779 68.127 17.6708 63.1702C20.4212 59.9966 31.1681 47.1354 32.3631 44.2473C34.3942 39.339 36.3141 33.0849 36.9237 30.7991C37.77 27.6255 43.9999 25.9329 43.9999 25.9329C53.9916 19.103 58.4607 14.823 65.9793 7.01004ZM32.1854 52.9309C32.0734 52.6785 31.7777 52.565 31.5252 52.677C31.2732 52.7892 31.1596 53.084 31.2713 53.3362L32.1854 52.9309ZM40.8534 46.1673C40.5779 46.1522 40.3424 46.3634 40.327 46.6389C40.3119 46.9144 40.5224 47.1507 40.7977 47.1663L40.8534 46.1673Z" fill="black"/>
<path d="M44.7543 15.1448C47.7916 15.145 50.2543 17.6074 50.2543 20.6448C50.2543 20.6467 50.2533 20.6487 50.2533 20.6506C48.3294 22.1225 46.1977 23.6582 43.724 25.3508C43.6777 25.3643 43.6169 25.3824 43.5443 25.4045C43.3655 25.4591 43.111 25.5407 42.8041 25.6477C42.7442 25.6686 42.6824 25.6912 42.6185 25.7141C40.6417 24.8805 39.2545 22.9248 39.2543 20.6448C39.2543 17.6072 41.7167 15.1448 44.7543 15.1448Z" fill="black"/>
<path d="M1 78.25L70 78.25" stroke="black" stroke-width="1.5" stroke-linecap="round"/>
</svg>
