<svg width="74" height="79" viewBox="0 0 74 79" fill="none" xmlns="http://www.w3.org/2000/svg">
<path d="M45.4807 30.2455L46.75 29.1876M46.75 29.1876C51.6979 25.5381 58.5 20.5 60 18.5C61.5 16.5 72.9197 4.9947 69.5064 2.41003C67.5248 0.909491 65.979 4.01026 65.979 4.01026C58.4603 11.8233 53.9914 16.1028 43.9996 22.9327C43.9996 22.9327 37.7703 24.6254 36.924 27.799C36.3145 30.0846 34.3942 36.3389 32.3631 41.2474C31.168 44.1355 20.4212 56.9962 17.6707 60.1698C12.6778 65.1267 5.18778 72.0179 4.34153 74.1337C3.49528 76.2494 9.46094 75.6799 10.5957 74.8998C16.3088 70.9723 36.924 52.169 36.924 52.169M46.75 29.1876C46.75 29.1876 47.3847 31.2852 47.3847 32.996C47.3847 36.3812 43.9996 43.3631 43.9996 43.3631M43.9996 43.3631C43.9996 43.3631 44.6344 43.5747 40.826 43.3631M43.9996 43.3631C43.9996 43.3631 56.694 42.8208 56.694 47.383C56.694 51 57.5 53.5 56 73C55.6914 77.0117 50.8739 75.9095 50.5584 74.8998C49.5005 71.5146 50.6663 54.3621 50.4654 52.5532C50.2538 50.649 36.924 52.169 36.924 52.169M31.7283 50.1335C32.3631 52.2492 36.924 52.169 36.924 52.169" stroke="black" stroke-width="3" stroke-linecap="round" stroke-linejoin="round"/>
<path d="M44.7543 10.8948C48.171 10.895 50.9925 13.4337 51.4398 16.7278C50.6232 17.3704 49.7715 18.0219 48.8724 18.6897C48.9571 18.3553 49.0042 18.0055 49.0043 17.6448C49.0043 15.2977 47.1013 13.395 44.7543 13.3948C42.4071 13.3948 40.5043 15.2976 40.5043 17.6448C40.5045 19.8742 42.221 21.7005 44.4047 21.8782C44.1799 22.0333 43.9546 22.1931 43.724 22.3508C43.6777 22.3643 43.6169 22.3824 43.5443 22.4045C43.3655 22.4591 43.111 22.5407 42.8041 22.6477C42.3364 22.8108 41.7423 23.0357 41.1049 23.3215C39.2401 22.1205 38.0044 20.0277 38.0043 17.6448C38.0043 13.9169 41.0264 10.8948 44.7543 10.8948Z" fill="black"/>
<path d="M1 77.25L70 77.25" stroke="black" stroke-width="1.5" stroke-linecap="round"/>
</svg>
