<svg width="45" height="77" viewBox="0 0 45 77" fill="none" xmlns="http://www.w3.org/2000/svg">
<g clip-path="url(#clip0_829_1366)">
<circle cx="22.5" cy="14.5" r="4.5" fill="black" stroke="black"/>
<path d="M18.2258 22.0547C19.0269 22.3128 25.7258 23.0547 26.7258 23.0547C27.7258 23.0547 32.0592 15.388 32.2258 14.0547C32.3925 12.7214 33.7258 5.55469 34.2258 4.05469C34.7258 2.55469 36.9691 1.80063 38.2258 2.55469C39.4826 3.30874 37.3708 12.7748 37 15C36.6292 17.2252 32.2258 25.0547 30.5 27.5C28.7742 29.9453 34.0046 39.3426 34.2258 41.5547C34.447 43.7668 35.3059 51.7814 35.2258 55.5547C36.1279 64.6047 34.5 73.5 33.2258 75.0547C31.9517 76.6094 29.9517 76.6094 29.2258 75.0547C28.5 73.5 29.7258 63.5547 29.7258 60.5547C29.7258 57.5547 28.8697 49.7618 28.4158 46.0547L26.7258 59.5547C26.2258 61.5547 19.9962 73.6795 17.5 75.3436C16 76.3436 14.7257 76.8982 12.9999 75.3436C11.2742 73.7889 19.7258 61.0547 20.2258 58.0547C20.7258 55.0547 22.7258 44.0547 22.2258 42.5547C21.7258 41.0547 18.9899 35.2384 18.2258 33.5547C16.8469 30.5163 16.0664 27.2634 14.2258 25.0547C11.7258 22.0547 9.22576 15.0547 10.2258 12.5547C11.2258 10.0547 15.6015 0.179944 18.2258 1.05467C19.7258 1.55465 20.7258 2.0547 20.2258 3.5547C19.7258 5.0547 15.7297 12.1499 15.2258 13.5547C14.7218 14.9595 17.4246 21.7966 18.2258 22.0547Z" fill="black"/>
<path d="M29.7258 46.0547H28.4158M28.4158 46.0547L26.7258 59.5547C26.2258 61.5547 19.9962 73.6795 17.5 75.3436C16 76.3436 14.7257 76.8982 12.9999 75.3436C11.2742 73.7889 19.7258 61.0547 20.2258 58.0547C20.7258 55.0547 22.7258 44.0547 22.2258 42.5547C21.7258 41.0547 18.9899 35.2384 18.2258 33.5547C16.8469 30.5163 16.0664 27.2634 14.2258 25.0547C11.7258 22.0547 9.22576 15.0547 10.2258 12.5547C11.2258 10.0547 15.6015 0.179944 18.2258 1.05467C19.7258 1.55465 20.7258 2.0547 20.2258 3.5547C19.7258 5.0547 15.7297 12.1499 15.2258 13.5547C14.7218 14.9595 17.4246 21.7966 18.2258 22.0547C19.0269 22.3128 25.7258 23.0547 26.7258 23.0547C27.7258 23.0547 32.0592 15.388 32.2258 14.0547C32.3925 12.7214 33.7258 5.55469 34.2258 4.05469C34.7258 2.55469 36.9691 1.80063 38.2258 2.55469C39.4826 3.30874 37.3708 12.7748 37 15C36.6292 17.2252 32.2258 25.0547 30.5 27.5C28.7742 29.9453 34.0046 39.3426 34.2258 41.5547C34.447 43.7668 35.3059 51.7814 35.2258 55.5547C36.1279 64.6047 34.5 73.5 33.2258 75.0547C31.9517 76.6094 29.9517 76.6094 29.2258 75.0547C28.5 73.5 29.7258 63.5547 29.7258 60.5547C29.7258 57.5547 28.8697 49.7618 28.4158 46.0547Z" stroke="black" stroke-linecap="round"/>
<path d="M8.37832 4.18264C8.15005 4.12598 7.92075 4.14692 7.71734 4.22686C7.65094 4.24232 7.58452 4.26383 7.51992 4.29256L5.0282 5.4007C4.47791 5.64551 4.23017 6.28963 4.47472 6.84002C4.71951 7.39054 5.36447 7.63853 5.91499 7.39374L6.52467 7.12247L5.12343 12.7676C4.88851 12.6333 4.63277 12.5261 4.35717 12.4576C2.74926 12.0585 1.12214 13.0387 0.722795 14.6465C0.32364 16.2546 1.30365 17.8818 2.9117 18.2809C4.51968 18.6799 6.14694 17.7 6.54608 16.092L9.17422 5.50413C9.31915 4.91959 8.96277 4.32791 8.37832 4.18264Z" fill="black"/>
<path d="M39.3009 21.3513C39.0956 21.4267 38.93 21.5623 38.8147 21.7297C38.771 21.7767 38.731 21.8283 38.6958 21.8847L37.3499 24.046C37.0529 24.5233 37.1988 25.1511 37.6758 25.4484C38.1532 25.7456 38.7818 25.5994 39.0791 25.1221L39.4072 24.5937L41.2792 29.6884C41.0278 29.7076 40.7747 29.7594 40.5263 29.8506C39.0749 30.3839 38.33 31.9932 38.863 33.4446C39.3964 34.8961 41.0064 35.6409 42.458 35.1075C43.9092 34.574 44.6533 32.9643 44.12 31.5129C44.1177 31.5068 44.1146 31.501 44.1123 31.4949L40.6073 21.9564C40.4134 21.4287 39.8287 21.1575 39.3009 21.3513Z" fill="black"/>
<path d="M14.2335 41.066C14.106 41.0442 13.9714 41.0525 13.84 41.0956L7.60685 43.1414C7.28002 43.2488 7.06734 43.5426 7.04555 43.866C7.02118 43.9514 7.00938 44.042 7.01454 44.1357L7.34099 50.0183C7.14249 49.9738 6.93504 49.9537 6.72188 49.9656C5.47837 50.0346 4.5264 51.0984 4.5954 52.3419C4.66443 53.5854 5.72826 54.5374 6.97176 54.4684C8.08792 54.4065 8.96685 53.5428 9.08581 52.4673C9.10352 52.3924 9.11052 52.3132 9.10603 52.2324L8.67786 44.5168L13.5181 42.9268L13.797 47.9533C13.5985 47.9087 13.3911 47.8888 13.1779 47.9006C11.9344 47.9696 10.9825 49.0334 11.0515 50.2769C11.1205 51.5205 12.1843 52.4724 13.4278 52.4034C14.6712 52.3343 15.6233 51.2705 15.5543 50.027L15.0999 41.8394C15.0748 41.3873 14.6876 41.0408 14.2354 41.0658L14.2335 41.066Z" fill="black"/>
</g>
<defs>
<clipPath id="clip0_829_1366">
<rect width="45" height="77" fill="white"/>
</clipPath>
</defs>
</svg>
