<svg width="45" height="77" viewBox="0 0 45 77" fill="none" xmlns="http://www.w3.org/2000/svg">
<g clip-path="url(#clip0_829_1365)">
<circle cx="23.5" cy="14.5" r="4.5" stroke="black" stroke-width="2"/>
<path d="M29.7258 46.0547H28.4158M28.4158 46.0547L26.7258 59.5547C26.2258 61.5547 19.9962 73.6795 17.5 75.3436C16 76.3436 14.7257 76.8982 12.9999 75.3436C11.2742 73.7889 19.7258 61.0547 20.2258 58.0547C20.7258 55.0547 22.7258 44.0547 22.2258 42.5547C21.7258 41.0547 18.9899 35.2384 18.2258 33.5547C16.8469 30.5163 16.0664 27.2634 14.2258 25.0547C11.7258 22.0547 9.22576 15.0547 10.2258 12.5547C11.2258 10.0547 15.6015 0.179944 18.2258 1.05467C19.7258 1.55465 20.7258 2.0547 20.2258 3.5547C19.7258 5.0547 15.7297 12.1499 15.2258 13.5547C14.7218 14.9595 17.4246 21.7966 18.2258 22.0547C19.0269 22.3128 25.7258 23.0547 26.7258 23.0547C27.7258 23.0547 32.0592 15.388 32.2258 14.0547C32.3925 12.7214 33.7258 5.55469 34.2258 4.05469C34.7258 2.55469 36.9691 1.80063 38.2258 2.55469C39.4826 3.30874 37.3708 12.7748 37 15C36.6292 17.2252 32.2258 25.0547 30.5 27.5C28.7742 29.9453 34.0046 39.3426 34.2258 41.5547C34.447 43.7668 35.3059 51.7814 35.2258 55.5547C36.1279 64.6047 34.5 73.5 33.2258 75.0547C31.9517 76.6094 29.9517 76.6094 29.2258 75.0547C28.5 73.5 29.7258 63.5547 29.7258 60.5547C29.7258 57.5547 28.8697 49.7618 28.4158 46.0547Z" stroke="black" stroke-width="2.5" stroke-linecap="round"/>
<mask id="path-3-inside-1_829_1365" fill="white">
<path d="M8.37832 4.18264C8.15005 4.12598 7.92075 4.14692 7.71734 4.22686C7.65094 4.24232 7.58452 4.26383 7.51992 4.29256L5.0282 5.4007C4.47791 5.64551 4.23017 6.28963 4.47472 6.84002C4.71951 7.39054 5.36447 7.63853 5.91499 7.39374L6.52467 7.12247L5.12343 12.7676C4.88851 12.6333 4.63277 12.5261 4.35717 12.4576C2.74926 12.0585 1.12214 13.0387 0.722795 14.6465C0.32364 16.2546 1.30365 17.8818 2.9117 18.2809C4.51968 18.6799 6.14694 17.7 6.54608 16.092L9.17422 5.50413C9.31915 4.91959 8.96277 4.32791 8.37832 4.18264Z"/>
</mask>
<path d="M8.37832 4.18264L8.86014 2.24155L8.86075 2.2417L8.37832 4.18264ZM7.71734 4.22686L8.44888 6.08827L8.31312 6.14162L8.17105 6.17471L7.71734 4.22686ZM7.51992 4.29256L6.70721 2.46513L6.7073 2.46509L7.51992 4.29256ZM5.0282 5.4007L4.21526 3.57337L4.21549 3.57326L5.0282 5.4007ZM4.47472 6.84002L2.64724 7.65264L2.64701 7.6521L4.47472 6.84002ZM5.91499 7.39374L6.72802 9.22103L6.7276 9.22121L5.91499 7.39374ZM6.52467 7.12247L5.71164 5.29518L9.45204 3.63093L8.46576 7.60429L6.52467 7.12247ZM5.12343 12.7676L7.06452 13.2494L6.42726 15.8167L4.13082 14.5039L5.12343 12.7676ZM4.35717 12.4576L4.83899 10.5165L4.83914 10.5166L4.35717 12.4576ZM0.722795 14.6465L-1.2183 14.1647L-1.21823 14.1644L0.722795 14.6465ZM2.9117 18.2809L2.43003 20.222L2.42988 20.222L2.9117 18.2809ZM9.17422 5.50413L11.1154 5.98542L11.1153 5.98595L9.17422 5.50413ZM8.37832 4.18264L7.8965 6.12374C8.09121 6.17207 8.28559 6.15244 8.44888 6.08827L7.71734 4.22686L6.9858 2.36545C7.5559 2.1414 8.2089 2.0799 8.86014 2.24155L8.37832 4.18264ZM7.71734 4.22686L8.17105 6.17471C8.21608 6.16422 8.27105 6.14737 8.33253 6.12003L7.51992 4.29256L6.7073 2.46509C6.89798 2.3803 7.0858 2.32042 7.26363 2.279L7.71734 4.22686ZM7.51992 4.29256L8.33263 6.11999L5.84091 7.22813L5.0282 5.4007L4.21549 3.57326L6.70721 2.46513L7.51992 4.29256ZM5.0282 5.4007L5.84114 7.22802C6.29943 7.02414 6.50636 6.48692 6.30243 6.02794L4.47472 6.84002L2.64701 7.6521C1.95398 6.09234 2.65638 4.26688 4.21526 3.57337L5.0282 5.4007ZM4.47472 6.84002L6.30219 6.02741C6.09828 5.56884 5.56134 5.36218 5.10238 5.56626L5.91499 7.39374L6.7276 9.22121C5.1676 9.91489 3.34075 9.21224 2.64724 7.65263L4.47472 6.84002ZM5.91499 7.39374L5.10196 5.56645L5.71164 5.29518L6.52467 7.12247L7.3377 8.94976L6.72802 9.22103L5.91499 7.39374ZM6.52467 7.12247L8.46576 7.60429L7.06452 13.2494L5.12343 12.7676L3.18234 12.2857L4.58357 6.64065L6.52467 7.12247ZM5.12343 12.7676L4.13082 14.5039C4.04113 14.4526 3.9562 14.4188 3.8752 14.3987L4.35717 12.4576L4.83914 10.5166C5.30934 10.6333 5.73589 10.8139 6.11604 11.0313L5.12343 12.7676ZM4.35717 12.4576L3.87535 14.3987C3.33977 14.2658 2.79703 14.5923 2.66382 15.1286L0.722795 14.6465L-1.21823 14.1644C-0.552748 11.4851 2.15876 9.85124 4.83899 10.5165L4.35717 12.4576ZM0.722795 14.6465L2.66389 15.1284C2.53084 15.6644 2.85751 16.2068 3.39353 16.3398L2.9117 18.2809L2.42988 20.222C-0.250211 19.5567 -1.88356 16.8448 -1.2183 14.1647L0.722795 14.6465ZM2.9117 18.2809L3.39337 16.3398C3.92957 16.4728 4.47199 16.146 4.60498 15.6102L6.54608 16.092L8.48717 16.5738C7.8219 19.254 5.1098 20.887 2.43003 20.222L2.9117 18.2809ZM6.54608 16.092L4.60498 15.6102L7.23313 5.0223L9.17422 5.50413L11.1153 5.98595L8.48717 16.5738L6.54608 16.092ZM9.17422 5.50413L7.233 5.02283C7.11219 5.51008 7.40894 6.00255 7.89589 6.12359L8.37832 4.18264L8.86075 2.2417C10.5166 2.65327 11.5261 4.3291 11.1154 5.98542L9.17422 5.50413Z" fill="black" mask="url(#path-3-inside-1_829_1365)"/>
<mask id="path-5-inside-2_829_1365" fill="white">
<path d="M39.3009 21.3513C39.0956 21.4267 38.93 21.5623 38.8147 21.7297C38.771 21.7767 38.731 21.8283 38.6958 21.8847L37.3499 24.046C37.0529 24.5233 37.1988 25.1511 37.6758 25.4484C38.1532 25.7456 38.7818 25.5994 39.0791 25.1221L39.4072 24.5937L41.2792 29.6884C41.0278 29.7076 40.7747 29.7594 40.5263 29.8506C39.0749 30.3839 38.33 31.9932 38.863 33.4446C39.3964 34.8961 41.0064 35.6409 42.458 35.1075C43.9092 34.574 44.6533 32.9643 44.12 31.5129C44.1177 31.5068 44.1146 31.501 44.1123 31.4949L40.6073 21.9564C40.4134 21.4287 39.8287 21.1575 39.3009 21.3513Z"/>
</mask>
<path d="M39.3009 21.3513L38.6111 19.474L38.6114 19.4739L39.3009 21.3513ZM38.8147 21.7297L40.4619 22.8641L40.3793 22.9839L40.2803 23.0906L38.8147 21.7297ZM38.6958 21.8847L36.9981 20.8275L36.9984 20.827L38.6958 21.8847ZM37.3499 24.046L35.6518 22.9893L35.6522 22.9888L37.3499 24.046ZM37.6758 25.4484L36.6186 27.1461L36.6181 27.1458L37.6758 25.4484ZM39.0791 25.1221L40.7781 26.1771L40.7768 26.1793L39.0791 25.1221ZM39.4072 24.5937L37.7081 23.5386L39.8706 20.0561L41.2845 23.9039L39.4072 24.5937ZM41.2792 29.6884L43.1565 28.9986L44.0685 31.4805L41.4321 31.6825L41.2792 29.6884ZM40.5263 29.8506L39.8365 27.9733L39.8368 27.9732L40.5263 29.8506ZM38.863 33.4446L36.9858 34.1344L36.9856 34.1341L38.863 33.4446ZM42.458 35.1075L43.1481 36.9847L43.1478 36.9848L42.458 35.1075ZM44.12 31.5129L45.9971 30.8228L45.9972 30.8231L44.12 31.5129ZM44.1123 31.4949L42.2399 32.1979L42.235 32.1847L44.1123 31.4949ZM40.6073 21.9564L42.4846 21.2664L42.4846 21.2666L40.6073 21.9564ZM39.3009 21.3513L39.9907 23.2286C40.1938 23.1539 40.355 23.0193 40.4619 22.8641L38.8147 21.7297L37.1675 20.5954C37.5049 20.1054 37.9974 19.6995 38.6111 19.474L39.3009 21.3513ZM38.8147 21.7297L40.2803 23.0906C40.3178 23.0502 40.3568 23.001 40.3932 22.9425L38.6958 21.8847L36.9984 20.827C37.1052 20.6556 37.2243 20.5033 37.349 20.3689L38.8147 21.7297ZM38.6958 21.8847L40.3935 22.942L39.0476 25.1033L37.3499 24.046L35.6522 22.9888L36.9981 20.8275L38.6958 21.8847ZM37.3499 24.046L39.0479 25.1027C39.3341 24.6428 39.1938 24.0378 38.7336 23.751L37.6758 25.4484L36.6181 27.1458C35.2037 26.2644 34.7716 24.4037 35.6518 22.9893L37.3499 24.046ZM37.6758 25.4484L38.733 23.7506C38.2727 23.464 37.6679 23.6046 37.3813 24.0649L39.0791 25.1221L40.7768 26.1793C39.8957 27.5943 38.0336 28.0272 36.6186 27.1461L37.6758 25.4484ZM39.0791 25.1221L37.38 24.067L37.7081 23.5386L39.4072 24.5937L41.1063 25.6487L40.7781 26.1771L39.0791 25.1221ZM39.4072 24.5937L41.2845 23.9039L43.1565 28.9986L41.2792 29.6884L39.402 30.3782L37.5299 25.2835L39.4072 24.5937ZM41.2792 29.6884L41.4321 31.6825C41.3513 31.6887 41.2798 31.7045 41.2158 31.728L40.5263 29.8506L39.8368 27.9732C40.2695 27.8143 40.7044 27.7266 41.1264 27.6942L41.2792 29.6884ZM40.5263 29.8506L41.2161 31.7279C40.801 31.8804 40.5883 32.3408 40.7404 32.7551L38.863 33.4446L36.9856 34.1341C36.0717 31.6455 37.3488 28.8874 39.8365 27.9733L40.5263 29.8506ZM38.863 33.4446L40.7403 32.7548C40.8927 33.1695 41.3534 33.3826 41.7681 33.2302L42.458 35.1075L43.1478 36.9848C40.6594 37.8991 37.9001 36.6227 36.9858 34.1344L38.863 33.4446ZM42.458 35.1075L41.7678 33.2303C42.1821 33.0781 42.3952 32.6179 42.2427 32.2027L44.12 31.5129L45.9972 30.8231C46.9113 33.3108 45.6363 36.0699 43.1481 36.9847L42.458 35.1075ZM44.12 31.5129L42.2428 32.203C42.2507 32.2245 42.258 32.2433 42.2644 32.2591C42.2708 32.2749 42.2764 32.2883 42.2808 32.2986C42.2852 32.3088 42.2888 32.3169 42.291 32.3217C42.293 32.3262 42.2946 32.3297 42.2943 32.329C42.2942 32.3289 42.2942 32.3289 42.2942 32.3288C42.2941 32.3287 42.294 32.3285 42.294 32.3283C42.2938 32.328 42.2935 32.3274 42.2932 32.3267C42.2926 32.3253 42.2916 32.3231 42.2904 32.3204C42.288 32.3152 42.2842 32.3066 42.2796 32.296C42.275 32.2853 42.2691 32.2714 42.2624 32.2553C42.2558 32.239 42.2481 32.2197 42.2399 32.1979L44.1123 31.4949L45.9847 30.792C45.9697 30.752 45.9564 30.7207 45.9487 30.7029C45.9448 30.6938 45.9416 30.6867 45.9399 30.683C45.9385 30.6798 45.9371 30.6768 45.938 30.6789C45.9384 30.6796 45.9406 30.6846 45.9433 30.6906C45.9461 30.6969 45.9504 30.7065 45.9554 30.7182C45.9653 30.7412 45.9805 30.7776 45.9971 30.8228L44.12 31.5129ZM44.1123 31.4949L42.235 32.1847L38.7301 22.6462L40.6073 21.9564L42.4846 21.2666L45.9896 30.8051L44.1123 31.4949ZM40.6073 21.9564L38.7301 22.6463C38.9164 23.1531 39.4794 23.4164 39.9904 23.2287L39.3009 21.3513L38.6114 19.4739C40.178 18.8986 41.9104 19.7042 42.4846 21.2664L40.6073 21.9564Z" fill="black" mask="url(#path-5-inside-2_829_1365)"/>
<mask id="path-7-inside-3_829_1365" fill="white">
<path d="M14.2335 41.066C14.106 41.0442 13.9714 41.0525 13.84 41.0956L7.60685 43.1414C7.28002 43.2488 7.06734 43.5426 7.04555 43.866C7.02118 43.9514 7.00938 44.042 7.01454 44.1357L7.34099 50.0183C7.14249 49.9738 6.93504 49.9537 6.72188 49.9656C5.47837 50.0346 4.5264 51.0984 4.5954 52.3419C4.66443 53.5854 5.72826 54.5374 6.97176 54.4684C8.08792 54.4065 8.96685 53.5428 9.08581 52.4673C9.10352 52.3924 9.11052 52.3132 9.10603 52.2324L8.67786 44.5168L13.5181 42.9268L13.797 47.9533C13.5985 47.9087 13.3911 47.8888 13.1779 47.9006C11.9344 47.9696 10.9825 49.0334 11.0515 50.2769C11.1205 51.5205 12.1843 52.4724 13.4278 52.4034C14.6712 52.3343 15.6233 51.2705 15.5543 50.027L15.0999 41.8394C15.0748 41.3873 14.6876 41.0408 14.2354 41.0658L14.2335 41.066Z"/>
</mask>
<path d="M14.2335 41.066L14.3443 43.0629L14.119 43.0754L13.8965 43.0374L14.2335 41.066ZM13.84 41.0956L14.4639 42.9958L14.4637 42.9959L13.84 41.0956ZM7.60685 43.1414L6.98224 41.2414L6.98316 41.2411L7.60685 43.1414ZM7.04555 43.866L9.04102 44.0005L9.02681 44.2112L8.9689 44.4144L7.04555 43.866ZM7.01454 44.1357L5.01762 44.2465L5.01757 44.2457L7.01454 44.1357ZM7.34099 50.0183L9.33792 49.9074L9.48448 52.5484L6.90347 51.9698L7.34099 50.0183ZM6.72188 49.9656L6.61102 47.9686L6.61107 47.9686L6.72188 49.9656ZM4.5954 52.3419L2.59848 52.4528L2.59848 52.4527L4.5954 52.3419ZM6.97176 54.4684L7.08258 56.4653L7.08253 56.4653L6.97176 54.4684ZM9.08581 52.4673L7.09794 52.2474L7.11136 52.1261L7.13942 52.0074L9.08581 52.4673ZM9.10603 52.2324L7.10911 52.3433L9.10603 52.2324ZM8.67786 44.5168L6.68094 44.6276L6.59592 43.0955L8.0537 42.6167L8.67786 44.5168ZM13.5181 42.9268L12.8939 41.0267L15.3706 40.2131L15.515 42.816L13.5181 42.9268ZM13.797 47.9533L15.794 47.8424L15.9405 50.4837L13.3593 49.9048L13.797 47.9533ZM13.1779 47.9006L13.0671 45.9036L13.0673 45.9036L13.1779 47.9006ZM11.0515 50.2769L9.05452 50.3877L9.05452 50.3876L11.0515 50.2769ZM13.4278 52.4034L13.5388 54.4003L13.5386 54.4003L13.4278 52.4034ZM15.5543 50.027L17.5512 49.9162L15.5543 50.027ZM15.0999 41.8394L13.103 41.9503L15.0999 41.8394ZM14.2335 41.066L13.8965 43.0374C14.0844 43.0695 14.2798 43.0562 14.4639 42.9958L13.84 41.0956L13.2161 39.1954C13.6629 39.0487 14.1277 39.0189 14.5704 39.0945L14.2335 41.066ZM13.84 41.0956L14.4637 42.9959L8.23053 45.0417L7.60685 43.1414L6.98316 41.2411L13.2163 39.1954L13.84 41.0956ZM7.60685 43.1414L8.23145 45.0414C8.70985 44.8841 9.01029 44.4564 9.04102 44.0005L7.04555 43.866L5.05007 43.7315C5.1244 42.6288 5.85019 41.6136 6.98224 41.2414L7.60685 43.1414ZM7.04555 43.866L8.9689 44.4144C9.00028 44.3043 9.01959 44.1723 9.01152 44.0257L7.01454 44.1357L5.01757 44.2457C4.99917 43.9117 5.04208 43.5986 5.12219 43.3176L7.04555 43.866ZM7.01454 44.1357L9.01147 44.0249L9.33792 49.9074L7.34099 50.0183L5.34406 50.1291L5.01762 44.2465L7.01454 44.1357ZM7.34099 50.0183L6.90347 51.9698C6.8709 51.9625 6.84817 51.9616 6.8327 51.9625L6.72188 49.9656L6.61107 47.9686C7.0219 47.9458 7.41408 47.985 7.77851 48.0667L7.34099 50.0183ZM6.72188 49.9656L6.83275 51.9625C6.69202 51.9703 6.58453 52.0905 6.59233 52.2311L4.5954 52.3419L2.59848 52.4527C2.46826 50.1063 4.26472 48.0989 6.61102 47.9686L6.72188 49.9656ZM4.5954 52.3419L6.59233 52.2311C6.60014 52.3717 6.72031 52.4793 6.86099 52.4715L6.97176 54.4684L7.08253 56.4653C4.7362 56.5955 2.72873 54.7991 2.59848 52.4528L4.5954 52.3419ZM6.97176 54.4684L6.86095 52.4715C6.98223 52.4647 7.08432 52.3706 7.09794 52.2474L9.08581 52.4673L11.0737 52.6872C10.8494 54.715 9.19361 56.3482 7.08258 56.4653L6.97176 54.4684ZM9.08581 52.4673L7.13942 52.0074C7.11183 52.1241 7.10323 52.2374 7.10911 52.3433L9.10603 52.2324L11.103 52.1216C11.1178 52.3891 11.0952 52.6607 11.0322 52.9273L9.08581 52.4673ZM9.10603 52.2324L7.10911 52.3433L6.68094 44.6276L8.67786 44.5168L10.6748 44.406L11.103 52.1216L9.10603 52.2324ZM8.67786 44.5168L8.0537 42.6167L12.8939 41.0267L13.5181 42.9268L14.1423 44.8269L9.30203 46.4169L8.67786 44.5168ZM13.5181 42.9268L15.515 42.816L15.794 47.8424L13.797 47.9533L11.8001 48.0641L11.5212 43.0376L13.5181 42.9268ZM13.797 47.9533L13.3593 49.9048C13.3272 49.8976 13.3044 49.8966 13.2886 49.8975L13.1779 47.9006L13.0673 45.9036C13.4778 45.8809 13.8699 45.9199 14.2347 46.0017L13.797 47.9533ZM13.1779 47.9006L13.2887 49.8975C13.1482 49.9053 13.0406 50.0254 13.0484 50.1662L11.0515 50.2769L9.05452 50.3876C8.92444 48.0415 10.7206 46.0339 13.0671 45.9036L13.1779 47.9006ZM11.0515 50.2769L13.0484 50.1661C13.0562 50.3068 13.1763 50.4143 13.317 50.4065L13.4278 52.4034L13.5386 54.4003C11.1922 54.5305 9.18473 52.7342 9.05452 50.3877L11.0515 50.2769ZM13.4278 52.4034L13.3168 50.4065C13.4577 50.3987 13.5652 50.2783 13.5574 50.1379L15.5543 50.027L17.5512 49.9162C17.6814 52.2628 15.8848 54.2699 13.5388 54.4003L13.4278 52.4034ZM15.5543 50.027L13.5574 50.1379L13.103 41.9503L15.0999 41.8394L17.0969 41.7286L17.5512 49.9162L15.5543 50.027ZM15.0999 41.8394L13.103 41.9503C13.1391 42.6009 13.6956 43.0989 14.3462 43.0628L14.2354 41.0658L14.1246 39.0689C15.6797 38.9826 17.0106 40.1736 17.0969 41.7286L15.0999 41.8394ZM14.2354 41.0658L14.3462 43.0628L14.3443 43.0629L14.2335 41.066L14.1227 39.069L14.1246 39.0689L14.2354 41.0658Z" fill="black" mask="url(#path-7-inside-3_829_1365)"/>
</g>
<defs>
<clipPath id="clip0_829_1365">
<rect width="45" height="77" fill="white"/>
</clipPath>
</defs>
</svg>
