<svg width="52" height="50" viewBox="0 0 52 50" fill="none" xmlns="http://www.w3.org/2000/svg">
<path d="M25.8147 39.7865C25.3146 40.7865 32.8145 46.7864 31.3145 47.7864C30.7261 48.1787 22.3145 47.7865 21.3147 47.7864C20.3149 47.7864 16.7527 44.3319 16.1715 42.2863C15.5903 40.2408 15.1715 39.7863 15.6715 36.2863C15.9656 34.2277 16.026 23.9318 15.6715 24.2863C15.1715 24.7863 12.3145 34.2865 12.3145 34.2865C12.3145 34.2865 6.31454 45.7863 5.31455 46.2865C4.31456 46.7866 0.671527 46.7863 1.67155 44.2863C2.67157 41.7863 6.65318 34.3414 7.67155 31.2863C9.17156 26.7863 11.8145 18.2864 13.8145 16.2863C15.2287 14.8722 25.3145 13.7865 26.8145 15.2865C28.3145 16.7865 32.3143 20.7865 33.8143 20.7865C35.3143 20.7865 39.8145 10.2865 41.3145 10.7863C43.869 11.6376 43.8145 13.2865 42.8145 15.7865C41.2832 19.6146 37.3147 24.7865 35.8145 26.2865C34.3144 27.7865 26.3145 22.2865 26.3145 22.2865M25.8147 39.7865C25.7973 39.2956 26.9173 38.8582 27.9576 38.7866M25.8147 39.7865C29.3294 40.958 37.8143 48.2865 40.3145 48.2865C41.4323 48.2865 52.3932 49.0758 49.8145 47.7864C46.8145 46.2864 28.3148 34.2865 28.3148 34.2865C26.5237 30.4125 24.9717 27.1044 26.3145 22.2865M26.4575 19.2865L26.3145 22.2865" stroke="black" stroke-width="2" stroke-linecap="round"/>
<mask id="path-2-inside-1_849_996" fill="white">
<path d="M20.9424 3.47931C22.7426 4.27306 24 6.072 24 8.16583C23.9999 10.9939 21.707 13.2869 18.8789 13.2869C16.7807 13.2868 14.9786 12.0239 14.1875 10.2176C14.3246 9.96347 14.4256 9.67516 14.5176 9.40509C14.8309 8.48537 15.1821 7.28952 16.25 6.0799C17.3014 4.8892 18.6632 4.36487 19.6953 4.00275C19.9469 3.91449 20.1934 3.83115 20.3975 3.75177C20.5858 3.67849 20.7843 3.59055 20.9424 3.47931ZM16.2959 5.31818C16.2278 5.38188 16.1603 5.44754 16.0938 5.51544H16.0928C16.1595 5.44735 16.2275 5.38191 16.2959 5.31818Z"/>
</mask>
<path d="M20.9424 3.47931L21.5475 2.1068L20.7721 1.76491L20.0791 2.25262L20.9424 3.47931ZM24 8.16583L25.5 8.16589V8.16583H24ZM18.8789 13.2869L18.8788 14.7869H18.8789V13.2869ZM14.1875 10.2176L12.8673 9.50543L12.52 10.1493L12.8135 10.8194L14.1875 10.2176ZM14.5176 9.40509L15.9374 9.88883L15.9374 9.88882L14.5176 9.40509ZM16.25 6.0799L15.1256 5.08703L15.1255 5.08716L16.25 6.0799ZM19.6953 4.00275L19.1987 2.58733L19.1987 2.58733L19.6953 4.00275ZM20.3975 3.75177L20.9413 5.1497L20.9415 5.14963L20.3975 3.75177ZM16.2959 5.31818L17.3208 6.41346L15.2731 4.22097L16.2959 5.31818ZM16.0938 5.51544V7.01544H16.7238L17.1648 6.56559L16.0938 5.51544ZM16.0928 5.51544L15.0216 4.46542L12.522 7.01544H16.0928V5.51544ZM20.9424 3.47931L20.3372 4.85182C21.6141 5.41481 22.5 6.68846 22.5 8.16583H24H25.5C25.5 5.45553 23.8712 3.13131 21.5475 2.1068L20.9424 3.47931ZM24 8.16583L22.5 8.16578C22.4999 10.1655 20.8785 11.7869 18.8789 11.7869V13.2869V14.7869C22.5355 14.7869 25.4999 11.8223 25.5 8.16589L24 8.16583ZM18.8789 13.2869L18.879 11.7869C17.3987 11.7869 16.1227 10.897 15.5615 9.6158L14.1875 10.2176L12.8135 10.8194C13.8346 13.1507 16.1628 14.7868 18.8788 14.7869L18.8789 13.2869ZM14.1875 10.2176L15.5077 10.9298C15.7124 10.5503 15.8491 10.1482 15.9374 9.88883L14.5176 9.40509L13.0977 8.92135C13.0021 9.20211 12.9368 9.37665 12.8673 9.50543L14.1875 10.2176ZM14.5176 9.40509L15.9374 9.88882C16.2631 8.93293 16.5346 8.02403 17.3745 7.07263L16.25 6.0799L15.1255 5.08716C13.8296 6.55502 13.3987 8.03781 13.0977 8.92136L14.5176 9.40509ZM16.25 6.0799L17.3744 7.07276C18.1488 6.19576 19.1793 5.77344 20.1919 5.41816L19.6953 4.00275L19.1987 2.58733C18.1471 2.95631 16.4541 3.58264 15.1256 5.08703L16.25 6.0799ZM19.6953 4.00275L20.1919 5.41816C20.4168 5.33925 20.7061 5.24122 20.9413 5.1497L20.3975 3.75177L19.8536 2.35384C19.6808 2.42107 19.4769 2.48973 19.1987 2.58733L19.6953 4.00275ZM20.3975 3.75177L20.9415 5.14963C21.1532 5.06723 21.4925 4.92636 21.8057 4.706L20.9424 3.47931L20.0791 2.25262C20.0858 2.24788 20.0723 2.25804 20.027 2.28C19.9832 2.3012 19.9268 2.32535 19.8534 2.35391L20.3975 3.75177ZM16.2959 5.31818L15.271 4.22289C15.1886 4.3 15.1056 4.38071 15.0227 4.46529L16.0938 5.51544L17.1648 6.56559C17.215 6.51437 17.267 6.46376 17.3208 6.41346L16.2959 5.31818ZM16.0938 5.51544V4.01544H16.0928V5.51544V7.01544H16.0938V5.51544ZM16.0928 5.51544L17.164 6.56546C17.2107 6.51776 17.2617 6.46849 17.3187 6.41538L16.2959 5.31818L15.2731 4.22097C15.1933 4.29533 15.1083 4.37694 15.0216 4.46542L16.0928 5.51544Z" fill="black" mask="url(#path-2-inside-1_849_996)"/>
<path d="M20.7756 2.78689C21.8107 3.70068 18.6458 3.38667 16.6356 5.66376C14.6253 7.94085 15.3106 10.2007 13.7756 9.7869C12.2405 9.37312 12.2653 6.06398 14.2756 3.78689C16.2859 1.5098 19.7405 1.8731 20.7756 2.78689Z" stroke="black"/>
<circle cx="12" cy="5" r="1" stroke="black"/>
<path d="M41.9998 6.95108L41.8867 6.46403L41.0885 6.64936L41.6184 7.27443L41.9998 6.95108ZM43.4828 6.08241L43.9265 5.85193L43.5924 5.20885L43.1098 5.7494L43.4828 6.08241ZM46.1102 10.9089L45.6911 11.1815L45.6911 11.1816L46.1102 10.9089ZM48.0952 13.6477L48.4949 13.3473L48.4948 13.3471L48.0952 13.6477ZM47.9327 14.4716L48.1852 14.9031L48.1857 14.9028L47.9327 14.4716ZM47.0634 14.2231L46.6221 14.4582L46.6223 14.4584L47.0634 14.2231ZM45.3694 11.3434L45.7885 11.0707L45.7885 11.0707L45.3694 11.3434ZM40.0453 3.11259L39.9503 2.62169L39.0951 2.78714L39.6693 3.44219L40.0453 3.11259ZM42.6353 4.12547L43.1007 3.9428L43.1007 3.9427L42.6353 4.12547ZM41.8796 5.69019L42.0624 6.15558L42.0624 6.15558L41.8796 5.69019ZM40.2606 5.05744L39.7952 5.24003L39.7952 5.24022L40.2606 5.05744ZM41.9998 6.95108L42.1129 7.43812C42.4404 7.36209 42.7372 7.2769 43.0272 7.11548C43.3199 6.95256 43.5756 6.72918 43.8557 6.41542L43.4828 6.08241L43.1098 5.7494C42.874 6.0135 42.7032 6.15135 42.5408 6.24174C42.3757 6.33364 42.189 6.39384 41.8867 6.46403L41.9998 6.95108ZM43.4828 6.08241L43.0391 6.31289C43.0538 6.34126 45.0775 10.2383 45.6911 11.1815L46.1102 10.9089L46.5293 10.6362C45.9504 9.74632 43.9587 5.91386 43.9265 5.85193L43.4828 6.08241ZM46.1102 10.9089L45.6911 11.1816C46.1266 11.8509 47.1459 13.2177 47.6957 13.9484L48.0952 13.6477L48.4948 13.3471C47.937 12.6059 46.9419 11.2704 46.5293 10.6362L46.1102 10.9089ZM48.0952 13.6477L47.6956 13.9482C47.7118 13.9698 47.713 13.988 47.7105 14.0008C47.708 14.0135 47.7006 14.028 47.6796 14.0403L47.9327 14.4716L48.1857 14.9028C48.7399 14.5776 48.8776 13.8564 48.4949 13.3473L48.0952 13.6477ZM47.9327 14.4716L47.6802 14.04C47.6569 14.0536 47.6234 14.0597 47.5845 14.0485C47.5453 14.0373 47.5182 14.0133 47.5046 13.9878L47.0634 14.2231L46.6223 14.4584C46.918 15.0129 47.6343 15.2255 48.1852 14.9031L47.9327 14.4716ZM47.0634 14.2231L47.5047 13.9881C47.16 13.3408 46.5464 12.2357 45.7885 11.0707L45.3694 11.3434L44.9503 11.616C45.6869 12.7484 46.2855 13.8261 46.6221 14.4582L47.0634 14.2231ZM45.3694 11.3434L45.7885 11.0707C44.6023 9.24738 42.3986 6.64828 42.3812 6.62773L41.9998 6.95108L41.6184 7.27443C41.6443 7.3049 43.8048 9.85527 44.9503 11.616L45.3694 11.3434ZM40.0453 3.11259L40.1403 3.60349C40.7221 3.49094 41.1762 3.51829 41.503 3.64112C41.8124 3.75742 42.0365 3.9685 42.1699 4.30825L42.6353 4.12547L43.1007 3.9427C42.8638 3.33957 42.4295 2.92105 41.8548 2.70506C41.2975 2.4956 40.6417 2.48794 39.9503 2.62169L40.0453 3.11259ZM42.6353 4.12547L42.1699 4.30815C42.2941 4.62475 42.1299 5.0547 41.6968 5.2248L41.8796 5.69019L42.0624 6.15558C42.9401 5.81082 43.4529 4.84008 43.1007 3.9428L42.6353 4.12547ZM41.8796 5.69019L41.6968 5.22479C41.2638 5.39487 40.8504 5.19138 40.726 4.87466L40.2606 5.05744L39.7952 5.24022C40.1477 6.13752 41.1844 6.50039 42.0624 6.15558L41.8796 5.69019ZM40.2606 5.05744L40.7261 4.87486C40.7024 4.81433 40.69 4.7308 40.6958 4.59938C40.7023 4.45461 40.7242 4.3266 40.7467 4.12525C40.786 3.77409 40.8221 3.24021 40.4213 2.78299L40.0453 3.11259L39.6693 3.44219C39.7648 3.5511 39.7896 3.68616 39.7529 4.01415C39.7374 4.15238 39.7052 4.3665 39.6968 4.55484C39.6879 4.75652 39.6999 4.99707 39.7952 5.24003L40.2606 5.05744Z" fill="black"/>
</svg>
