<svg width="54" height="52" viewBox="0 0 54 52" fill="none" xmlns="http://www.w3.org/2000/svg">
<path d="M27.913 15.1961C26.3183 13.6014 15.5958 14.7557 14.0924 16.2591C11.9661 18.3854 9.15633 27.4219 7.56164 32.206C6.47898 35.4539 2.24604 43.3687 1.18289 46.0266C0.11975 48.6844 3.99274 48.6847 5.05586 48.1529C6.11897 47.6212 12.4977 35.3955 12.4977 35.3955C12.4977 35.3955 15.535 25.2957 16.0666 24.7641C16.4435 24.3872 16.3792 35.333 16.0666 37.5216C15.535 41.2425 15.9802 41.7257 16.5981 43.9003C17.216 46.075 21.0031 49.7476 22.066 49.7476C23.1289 49.7476 32.0714 50.1647 32.697 49.7476C34.2917 48.6845 26.3184 42.3058 26.85 41.2426C30.5866 42.4882 39.6071 50.2792 42.2651 50.2792C43.4535 50.2792 55.1063 51.1183 52.3648 49.7476C49.1754 48.1529 29.508 35.3955 29.508 35.3955C27.6038 31.277 25.9538 27.7601 27.3814 22.638C27.3814 22.638 35.8862 28.4852 37.4811 26.8905C39.076 25.2958 43.295 19.7975 44.923 15.7277C45.9861 13.0699 46.044 11.317 43.3283 10.4119C41.7336 9.8805 36.9493 21.0433 35.3546 21.0433C33.76 21.0433 29.5077 16.7908 27.913 15.1961Z" fill="black"/>
<path d="M26.8501 41.2426C26.3184 42.3058 34.2917 48.6845 32.697 49.7476C32.0714 50.1647 23.1289 49.7476 22.066 49.7476C21.0031 49.7476 17.216 46.075 16.5981 43.9003C15.9802 41.7257 15.535 41.2425 16.0666 37.5216C16.3792 35.333 16.4435 24.3872 16.0666 24.7641C15.535 25.2957 12.4977 35.3955 12.4977 35.3955C12.4977 35.3955 6.11897 47.6212 5.05586 48.1529C3.99274 48.6847 0.11975 48.6844 1.18289 46.0266C2.24604 43.3687 6.47898 35.4539 7.56164 32.206C9.15633 27.4219 11.9661 18.3854 14.0924 16.2591C15.5958 14.7557 26.3183 13.6014 27.913 15.1961C29.5077 16.7908 33.76 21.0433 35.3546 21.0433C36.9493 21.0433 41.7336 9.8805 43.3283 10.4119C46.044 11.317 45.9861 13.0699 44.923 15.7277C43.295 19.7975 39.076 25.2958 37.4811 26.8905C35.8862 28.4852 27.3814 22.638 27.3814 22.638M26.8501 41.2426C26.8316 40.7208 28.0222 40.2557 29.1282 40.1797M26.8501 41.2426C30.5866 42.4882 39.6071 50.2792 42.2651 50.2792C43.4535 50.2792 55.1063 51.1183 52.3648 49.7476C49.1754 48.1529 29.508 35.3955 29.508 35.3955C27.6038 31.277 25.9538 27.7601 27.3814 22.638M27.5334 19.4487L27.3814 22.638" stroke="black" stroke-width="1.06312" stroke-linecap="round"/>
<path d="M20.8701 3.93652C22.5169 4.69247 23.6611 6.35548 23.6611 8.28613C23.661 10.9281 21.519 13.0703 18.877 13.0703C16.9438 13.0703 15.28 11.9226 14.5254 10.2725C14.6693 10.0185 14.7724 9.72864 14.8623 9.46484C15.1555 8.60412 15.4799 7.49881 16.4678 6.37988C17.4381 5.28112 18.6959 4.79599 19.6592 4.45801C19.8933 4.37586 20.1254 4.2964 20.3174 4.22168C20.5022 4.14976 20.7041 4.06102 20.8623 3.94434C20.8652 3.9422 20.8672 3.93874 20.8701 3.93652Z" fill="black"/>
<path d="M20.4708 2.97039C21.5712 3.94186 18.2066 3.60804 16.0694 6.02886C13.9322 8.44969 14.6608 10.8522 13.0289 10.4123C11.397 9.97237 11.4233 6.45434 13.5605 4.03352C15.6977 1.61269 19.3704 1.99892 20.4708 2.97039Z" fill="black"/>
<circle cx="11.9655" cy="4.56483" r="1.06312" fill="black"/>
<path d="M42.6529 5.22174C43.3248 5.08006 43.6843 4.93436 44.2347 4.3377C44.2605 4.38697 46.4043 8.47774 47.0407 9.45004C47.4944 10.143 48.5728 11.5825 49.1632 12.3637C49.3806 12.6518 49.2991 13.0458 48.9855 13.2211C48.6629 13.4011 48.2348 13.2729 48.061 12.9496C47.6977 12.273 47.0495 11.114 46.2498 9.89206C45.0077 7.99448 42.6857 5.26037 42.6529 5.22174ZM41.1726 2.16796C42.5261 1.90611 43.5321 2.24241 43.9259 3.24461C44.1793 3.88993 43.8196 4.63527 43.1227 4.90896C42.426 5.18237 41.6553 4.88125 41.402 4.23606C41.1486 3.59075 41.7003 2.7699 41.1726 2.16796Z" fill="black"/>
</svg>
