<svg width="81" height="75" viewBox="0 0 81 75" fill="none" xmlns="http://www.w3.org/2000/svg">
<circle cx="40.9091" cy="20.4545" r="5.45455" stroke="black" stroke-width="2.72727"/>
<path d="M31.258 57.5485C31.7867 56.3678 32.349 54.8792 32.6536 53.3559C33.8645 47.3016 34.1371 38.8915 34.0173 39.0377C31.3637 42.2727 18.4092 48.4091 15.6819 47.0454C10.4714 44.4402 13.7764 23.7937 16.3637 22.5C16.9773 22.1932 19.2473 20.7821 20.6894 23.484C21.0438 24.1481 21.0448 24.9376 20.8798 25.672C19.091 33.6342 19.091 36.1189 19.091 39.5454C19.091 40.6355 27.5685 37.5508 31.0811 33.9389C31.7889 33.2111 32.5208 32.4752 33.4304 32.0243C35.9386 30.7811 38.6545 29.7946 44.3734 30.9021C44.7707 30.979 45.1841 30.887 45.4955 30.6286C51.5415 25.611 57.9205 15.6781 60.6333 9.40373C60.6789 9.29817 60.7351 9.19994 60.8097 9.1124C62.1756 7.50947 64.5461 7.70663 65.4546 9.54542C66.4332 11.5261 63.6674 22.2637 49.3401 37.5321C49.2167 37.6635 49.1173 37.8201 49.0554 37.9894C47.8834 41.1937 46.8014 45.9366 46.9083 49.1089C47.0128 52.209 47.5413 55.5387 48.4092 57.9883" stroke="black" stroke-width="2.72727" stroke-linecap="round"/>
<rect x="53.9164" y="1.9104" width="5.83919" height="10.4081" rx="2.72727" transform="rotate(28.2277 53.9164 1.9104)" stroke="black" stroke-width="2.72727"/>
<rect x="69.9" y="9.96659" width="5.83919" height="10.4081" rx="2.72727" transform="rotate(22.746 69.9 9.96659)" stroke="black" stroke-width="2.72727"/>
<rect x="24.0558" y="21.9161" width="5.83919" height="10.4081" rx="2.72727" transform="rotate(4.27612 24.0558 21.9161)" stroke="black" stroke-width="2.72727"/>
<rect x="6.79816" y="20.735" width="5.83919" height="10.4081" rx="2.72727" transform="rotate(13.4838 6.79816 20.735)" stroke="black" stroke-width="2.72727"/>
<path d="M5.45456 57.2727C5.45456 57.2727 12.3196 61.3636 17.0455 61.3636C21.7713 61.3636 23.9105 57.2727 28.6364 57.2727C33.3622 57.2727 35.5014 61.3636 40.2273 61.3636C44.9531 61.3636 47.0924 57.2727 51.8182 57.2727C56.544 57.2727 58.6833 61.3636 63.4091 61.3636C68.1349 61.3636 75 57.2727 75 57.2727" stroke="black" stroke-width="2.72727" stroke-linecap="square"/>
</svg>
