<svg width="73" height="75" viewBox="0 0 73 75" fill="none" xmlns="http://www.w3.org/2000/svg">
<g clip-path="url(#clip0_829_1314)">
<path d="M41.0809 19.0909C41.0809 22.1034 38.6388 24.5454 35.6264 24.5454C32.6139 24.5454 30.1718 22.1034 30.1718 19.0909C30.1718 16.0784 32.6139 13.6364 35.6264 13.6364C38.6388 13.6364 41.0809 16.0784 41.0809 19.0909Z" fill="black"/>
<path d="M41.0821 27.0437C35.5684 26.6821 32.1267 26.9888 29.3766 28.0144C28.4253 28.3691 27.6982 29.1172 27.0242 29.8764C23.9371 33.3537 17.7273 35.8579 17.7273 34.7728C17.7273 31.2331 18.3927 28.0331 21.0381 21.3829C21.1022 21.2217 21.1394 21.0468 21.1277 20.8737C20.9583 18.3657 18.3643 17.7497 17.0455 18.4091C14.4582 19.7028 8.42599 40.3494 13.6364 42.9546C16.3637 44.3182 27.9546 37.5 28.6364 36.8182C28.7701 36.6846 29.6068 44.8161 28.6364 47.7273C28.1515 49.182 27.2444 50.7292 26.5706 51.9263C26.1906 52.6015 26.5083 53.4216 27.2277 53.7093L35.6676 57.0853C35.9701 57.2063 36.3059 57.215 36.6143 57.1098L44.824 54.3092C45.5427 54.064 45.9184 53.2805 45.6264 52.5795C44.5915 50.0945 42.9546 46.6713 42.9546 44.3182C42.9546 40.4373 43.3901 36.6627 43.565 35.3034C43.6091 34.9604 43.7855 34.6536 44.0535 34.4351C45.0255 33.643 47.4808 31.6102 49.091 30C61.3637 15.6819 60.448 10.8269 58.6364 9.54551C56.0751 7.73386 54.6426 10.0956 54.3336 10.9449C54.3043 11.0253 54.2736 11.1068 54.2353 11.1833C49.615 20.4096 47.902 22.1133 42.0265 26.7514C41.76 26.9617 41.4208 27.066 41.0821 27.0437Z" fill="black"/>
<path d="M63.6964 12.4782L65.1859 13.0172C66.2481 13.4017 66.7979 14.575 66.4135 15.6372L64.7066 20.3535C64.3222 21.4158 63.1489 21.9655 62.0866 21.5811L60.5972 21.0421C59.5349 20.6576 58.9852 19.4843 59.3696 18.422L61.0764 13.7058C61.4609 12.6435 62.6342 12.0938 63.6964 12.4782Z" fill="black" stroke="black" stroke-width="1.36364"/>
<path d="M50.8001 6.1117L52.2053 6.84259C53.2076 7.36385 53.5976 8.59947 53.0764 9.6017L50.7621 14.0515C50.2408 15.0537 49.0052 15.4438 48.003 14.9225L46.5977 14.1916C45.5954 13.6704 45.2054 12.4347 45.7266 11.4325L48.0409 6.98276C48.5622 5.98053 49.7978 5.59044 50.8001 6.1117Z" fill="black" stroke="black" stroke-width="1.36364"/>
<rect x="23.7784" y="18.7057" width="5.67553" height="9.10712" rx="2.04545" transform="rotate(22.6054 23.7784 18.7057)" fill="black" stroke="black" stroke-width="1.36364"/>
<path d="M12.818 14.1491L14.2187 14.8887C15.2177 15.4162 15.6001 16.6542 15.0726 17.6531L12.7306 22.0884C12.2031 23.0874 10.9651 23.4698 9.96615 22.9423L8.56545 22.2027C7.56649 21.6752 7.18409 20.4372 7.71158 19.4382L10.0535 15.0029C10.581 14.004 11.8191 13.6216 12.818 14.1491Z" fill="black" stroke="black" stroke-width="1.36364"/>
<path d="M2.04547 53.1818C2.04547 53.1818 8.22872 57.2727 12.9546 57.2727C17.6804 57.2727 19.8196 53.1818 24.5455 53.1818C29.2713 53.1818 31.4105 57.2727 36.1364 57.2727C40.8622 57.2727 43.0015 53.1818 47.7273 53.1818C52.4531 53.1818 54.5924 57.2727 59.3182 57.2727C64.044 57.2727 70.2273 53.1818 70.2273 53.1818" stroke="black" stroke-width="2.72727" stroke-linecap="square"/>
</g>
<defs>
<clipPath id="clip0_829_1314">
<rect width="72.2727" height="75" fill="white"/>
</clipPath>
</defs>
</svg>
