<svg width="68" height="49" viewBox="0 0 68 49" fill="none" xmlns="http://www.w3.org/2000/svg">
<g clip-path="url(#clip0_941_1261)">
<circle cx="6.70192" cy="6.70192" r="5.95192" transform="matrix(-1 0 0 1 45.4043 2)" fill="black" stroke="black" stroke-width="1.5"/>
<path d="M65.9043 48.1436H3" stroke="black" stroke-width="2" stroke-linecap="round"/>
<path d="M10.999 10.8193C13.207 11.6241 14.6921 12.1129 16.1846 12.0908C17.6684 12.0689 19.0556 11.5381 21.0049 10.8174L19.9639 8.00293C17.8404 8.78799 16.9967 9.07908 16.1406 9.0918C15.2932 9.10431 14.3288 8.84019 12.0264 8.00098L10.999 10.8193Z" fill="black"/>
<mask id="path-4-inside-1_941_1261" fill="white">
<path d="M15.6304 5.80511C14.8624 5.79049 14.1955 6.15965 13.6011 6.74065L13.3511 7.00237L13.2876 7.07952C13.1479 7.26751 13.0612 7.50185 13.0034 7.67718C12.9253 7.91417 12.8517 8.20649 12.7817 8.53557C12.6414 9.19631 12.505 10.0625 12.3853 11.0571C12.1456 13.0485 11.9639 15.6019 11.94 18.1518C11.9161 20.6939 12.0486 23.2713 12.4517 25.2953C12.6526 26.3043 12.9293 27.2194 13.314 27.933C13.6937 28.6374 14.2422 29.2583 15.0347 29.4565C16.3858 29.7942 17.798 29.5476 19.1001 29.0658C20.4073 28.5822 21.6692 27.8371 22.7554 27.0912C23.6622 26.4685 24.4637 25.8323 25.0835 25.3276C25.0725 25.4178 25.0622 25.5111 25.0503 25.6069C24.921 26.6512 24.7434 28.0051 24.5493 29.4145C24.1595 32.2456 23.7099 35.2602 23.4605 36.4584C23.1856 37.7787 23.129 40.5889 23.1323 42.977C23.134 44.1909 23.1512 45.3274 23.1685 46.1596C23.1771 46.5756 23.1855 46.9161 23.1919 47.1528C23.1951 47.2711 23.1979 47.3642 23.1997 47.4272C23.2006 47.4583 23.2021 47.4822 23.2026 47.4985V47.5239L23.2261 48.2446H43.0728L42.5796 47.186C42.2831 46.5495 42.0082 45.9046 41.7466 45.2436C42.0594 45.3638 42.3898 45.3824 42.6909 45.3539C43.064 45.3186 43.4572 45.2086 43.8442 45.0629C44.6187 44.7714 45.4813 44.2913 46.312 43.7573C47.9746 42.6884 49.6392 41.3187 50.4312 40.5268C51.1772 39.7807 52.0566 38.8631 52.5757 37.7504C53.1159 36.5923 53.2572 35.2444 52.5874 33.7035C52.1493 32.6958 50.906 30.7339 49.4165 28.5766C48.2329 26.8623 46.8645 24.9825 45.5523 23.2787C43.7536 20.9434 41.9966 18.8538 40.9653 18.0287L40.8765 17.9574L40.77 17.9164C36.8066 16.3738 34.4175 15.7461 30.0493 14.8803C28.797 14.6321 27.5003 14.8314 26.2935 15.2162C25.0831 15.6022 23.9136 16.1905 22.8941 16.7739C21.8823 17.3528 20.9687 17.9573 20.3355 18.3491C20.2365 18.4103 20.1447 18.464 20.062 18.5131C20.041 18.2734 20.0183 17.9855 19.9995 17.6537C19.9444 16.6809 19.8937 15.3584 19.7935 14.0073C19.693 12.653 19.5406 11.2214 19.2739 9.99065C19.1405 9.37486 18.974 8.79106 18.7632 8.28362C18.5552 7.78307 18.2848 7.31097 17.9185 6.96136C17.2332 6.30743 16.48 5.82133 15.6304 5.80511ZM39.4526 29.0297C39.9163 29.5844 40.6691 30.513 41.4741 31.5317C42.6172 32.978 43.7966 34.5162 44.2964 35.2563C44.2678 35.3048 44.2089 35.3912 44.0835 35.5121C43.7301 35.8529 43.1542 36.2276 42.4409 36.6977C41.7646 37.1434 40.9894 37.661 40.3775 38.2387C40.1531 38.4505 39.9335 38.6865 39.7437 38.9467C39.6145 38.4569 39.4845 37.9521 39.354 37.4301C38.8865 35.5599 38.8592 33.0033 39.0806 31.0239C39.1742 30.187 39.308 29.498 39.4526 29.0297Z"/>
</mask>
<path d="M15.6304 5.80511C14.8624 5.79049 14.1955 6.15965 13.6011 6.74065L13.3511 7.00237L13.2876 7.07952C13.1479 7.26751 13.0612 7.50185 13.0034 7.67718C12.9253 7.91417 12.8517 8.20649 12.7817 8.53557C12.6414 9.19631 12.505 10.0625 12.3853 11.0571C12.1456 13.0485 11.9639 15.6019 11.94 18.1518C11.9161 20.6939 12.0486 23.2713 12.4517 25.2953C12.6526 26.3043 12.9293 27.2194 13.314 27.933C13.6937 28.6374 14.2422 29.2583 15.0347 29.4565C16.3858 29.7942 17.798 29.5476 19.1001 29.0658C20.4073 28.5822 21.6692 27.8371 22.7554 27.0912C23.6622 26.4685 24.4637 25.8323 25.0835 25.3276C25.0725 25.4178 25.0622 25.5111 25.0503 25.6069C24.921 26.6512 24.7434 28.0051 24.5493 29.4145C24.1595 32.2456 23.7099 35.2602 23.4605 36.4584C23.1856 37.7787 23.129 40.5889 23.1323 42.977C23.134 44.1909 23.1512 45.3274 23.1685 46.1596C23.1771 46.5756 23.1855 46.9161 23.1919 47.1528C23.1951 47.2711 23.1979 47.3642 23.1997 47.4272C23.2006 47.4583 23.2021 47.4822 23.2026 47.4985V47.5239L23.2261 48.2446H43.0728L42.5796 47.186C42.2831 46.5495 42.0082 45.9046 41.7466 45.2436C42.0594 45.3638 42.3898 45.3824 42.6909 45.3539C43.064 45.3186 43.4572 45.2086 43.8442 45.0629C44.6187 44.7714 45.4813 44.2913 46.312 43.7573C47.9746 42.6884 49.6392 41.3187 50.4312 40.5268C51.1772 39.7807 52.0566 38.8631 52.5757 37.7504C53.1159 36.5923 53.2572 35.2444 52.5874 33.7035C52.1493 32.6958 50.906 30.7339 49.4165 28.5766C48.2329 26.8623 46.8645 24.9825 45.5523 23.2787C43.7536 20.9434 41.9966 18.8538 40.9653 18.0287L40.8765 17.9574L40.77 17.9164C36.8066 16.3738 34.4175 15.7461 30.0493 14.8803C28.797 14.6321 27.5003 14.8314 26.2935 15.2162C25.0831 15.6022 23.9136 16.1905 22.8941 16.7739C21.8823 17.3528 20.9687 17.9573 20.3355 18.3491C20.2365 18.4103 20.1447 18.464 20.062 18.5131C20.041 18.2734 20.0183 17.9855 19.9995 17.6537C19.9444 16.6809 19.8937 15.3584 19.7935 14.0073C19.693 12.653 19.5406 11.2214 19.2739 9.99065C19.1405 9.37486 18.974 8.79106 18.7632 8.28362C18.5552 7.78307 18.2848 7.31097 17.9185 6.96136C17.2332 6.30743 16.48 5.82133 15.6304 5.80511ZM39.4526 29.0297C39.9163 29.5844 40.6691 30.513 41.4741 31.5317C42.6172 32.978 43.7966 34.5162 44.2964 35.2563C44.2678 35.3048 44.2089 35.3912 44.0835 35.5121C43.7301 35.8529 43.1542 36.2276 42.4409 36.6977C41.7646 37.1434 40.9894 37.661 40.3775 38.2387C40.1531 38.4505 39.9335 38.6865 39.7437 38.9467C39.6145 38.4569 39.4845 37.9521 39.354 37.4301C38.8865 35.5599 38.8592 33.0033 39.0806 31.0239C39.1742 30.187 39.308 29.498 39.4526 29.0297Z" fill="black"/>
<path d="M15.6304 5.80511L15.6494 4.80529L15.6495 4.80529L15.6304 5.80511ZM13.6011 6.74065L12.878 6.04992L12.8898 6.03751L12.9021 6.02552L13.6011 6.74065ZM13.3511 7.00237L12.5789 6.36701L12.6024 6.33841L12.628 6.31164L13.3511 7.00237ZM13.2876 7.07952L12.485 6.48297L12.4997 6.46319L12.5154 6.44416L13.2876 7.07952ZM13.0034 7.67718L12.0537 7.36423L12.0537 7.36415L13.0034 7.67718ZM12.7817 8.53557L11.8036 8.32776V8.32775L12.7817 8.53557ZM12.3853 11.0571L11.3924 10.9376V10.9375L12.3853 11.0571ZM11.94 18.1518L10.94 18.1424V18.1424L11.94 18.1518ZM12.4517 25.2953L11.4709 25.4907L11.4709 25.4906L12.4517 25.2953ZM13.314 27.933L12.4338 28.4076L12.4337 28.4076L13.314 27.933ZM15.0347 29.4565L14.7922 30.4266L14.7921 30.4266L15.0347 29.4565ZM19.1001 29.0658L19.4471 30.0037L19.4471 30.0037L19.1001 29.0658ZM22.7554 27.0912L23.3214 27.9156L23.3214 27.9156L22.7554 27.0912ZM25.0835 25.3276L24.4521 24.5521L26.3764 22.9851L26.0762 25.4486L25.0835 25.3276ZM25.0503 25.6069L26.0427 25.7297V25.7297L25.0503 25.6069ZM24.5493 29.4145L25.54 29.5509L24.5493 29.4145ZM23.4605 36.4584L24.4395 36.6622L24.4395 36.6622L23.4605 36.4584ZM23.1323 42.977L22.1323 42.9784V42.9784L23.1323 42.977ZM23.1685 46.1596L22.1687 46.1804L23.1685 46.1596ZM23.1919 47.1528L22.1923 47.1798V47.1798L23.1919 47.1528ZM23.1997 47.4272L22.2002 47.4568V47.4568L23.1997 47.4272ZM23.2026 47.4985L24.2022 47.4677L24.2026 47.4831V47.4985H23.2026ZM23.2026 47.5239L22.2032 47.5564L22.2026 47.5401V47.5239H23.2026ZM23.2261 48.2446V49.2446H22.2581L22.2266 48.2771L23.2261 48.2446ZM43.0728 48.2446L43.9792 47.8223L44.6418 49.2446H43.0728V48.2446ZM42.5796 47.186L41.6731 47.6083L41.6731 47.6082L42.5796 47.186ZM41.7466 45.2436L40.8168 45.6116L39.9782 43.4925L42.1054 44.3102L41.7466 45.2436ZM42.6909 45.3539L42.7851 46.3495L42.7851 46.3495L42.6909 45.3539ZM43.8442 45.0629L44.1966 45.9988L44.1965 45.9988L43.8442 45.0629ZM46.312 43.7573L46.8528 44.5984L46.8528 44.5984L46.312 43.7573ZM50.4312 40.5268L51.1383 41.2339H51.1383L50.4312 40.5268ZM52.5757 37.7504L53.4819 38.1732L53.4819 38.1732L52.5757 37.7504ZM52.5874 33.7035L53.5045 33.3049L53.5045 33.3049L52.5874 33.7035ZM49.4165 28.5766L50.2394 28.0084L50.2394 28.0084L49.4165 28.5766ZM45.5523 23.2787L46.3445 22.6686H46.3445L45.5523 23.2787ZM40.9653 18.0287L40.3406 18.8096L40.3396 18.8088L40.9653 18.0287ZM40.8765 17.9574L41.236 17.0243L41.381 17.0802L41.5022 17.1774L40.8765 17.9574ZM40.77 17.9164L40.4105 18.8496L40.4073 18.8483L40.77 17.9164ZM30.0493 14.8803L30.2437 13.8994L30.2437 13.8994L30.0493 14.8803ZM26.2935 15.2162L25.9897 14.2635L25.9897 14.2635L26.2935 15.2162ZM22.8941 16.7739L22.3974 15.9059L22.3974 15.9059L22.8941 16.7739ZM20.3355 18.3491L20.8616 19.1994L20.8616 19.1995L20.3355 18.3491ZM20.062 18.5131L20.5727 19.3729L19.2049 20.1854L19.0658 18.6005L20.062 18.5131ZM19.9995 17.6537L19.0011 17.7103V17.7103L19.9995 17.6537ZM19.7935 14.0073L20.7907 13.9332V13.9332L19.7935 14.0073ZM19.2739 9.99065L20.2513 9.77885V9.77886L19.2739 9.99065ZM18.7632 8.28362L19.6866 7.89988L19.6867 7.89992L18.7632 8.28362ZM17.9185 6.96136L18.6088 6.2379L18.6089 6.23792L17.9185 6.96136ZM39.4526 29.0297L38.4972 28.7347L39.04 26.9768L40.2199 28.3884L39.4526 29.0297ZM41.4741 31.5317L42.2587 30.9116L41.4741 31.5317ZM44.2964 35.2563L45.1251 34.6966L45.4789 35.2204L45.1575 35.7647L44.2964 35.2563ZM44.0835 35.5121L44.7778 36.2319L44.7777 36.2319L44.0835 35.5121ZM42.4409 36.6977L41.8906 35.8627H41.8906L42.4409 36.6977ZM40.3775 38.2387L39.6909 37.5116L39.691 37.5116L40.3775 38.2387ZM39.7437 38.9467L40.5516 39.536L39.3128 41.2342L38.7767 39.2018L39.7437 38.9467ZM39.354 37.4301L38.3839 37.6726H38.3839L39.354 37.4301ZM39.0806 31.0239L38.0868 30.9127L39.0806 31.0239ZM15.6304 5.80511L15.6114 6.80493C15.2077 6.79724 14.7852 6.98164 14.3001 7.45579L13.6011 6.74065L12.9021 6.02552C13.6058 5.33767 14.5172 4.78374 15.6494 4.80529L15.6304 5.80511ZM13.6011 6.74065L14.3242 7.43139L14.0742 7.6931L13.3511 7.00237L12.628 6.31164L12.878 6.04992L13.6011 6.74065ZM13.3511 7.00237L14.1233 7.63774L14.0598 7.71488L13.2876 7.07952L12.5154 6.44416L12.5789 6.36701L13.3511 7.00237ZM13.2876 7.07952L14.0902 7.67607C14.0775 7.69318 14.0554 7.72907 14.0282 7.79021C14.0016 7.8499 13.9775 7.91629 13.9532 7.9902L13.0034 7.67718L12.0537 7.36415C12.1153 7.17734 12.2423 6.80958 12.485 6.48297L13.2876 7.07952ZM13.0034 7.67718L13.9532 7.99012C13.8911 8.17851 13.8262 8.43153 13.7599 8.7434L12.7817 8.53557L11.8036 8.32775C11.8772 7.98146 11.9596 7.64983 12.0537 7.36423L13.0034 7.67718ZM12.7817 8.53557L13.7599 8.74339C13.6279 9.36483 13.4957 10.1992 13.3781 11.1766L12.3853 11.0571L11.3924 10.9375C11.5142 9.92576 11.6549 9.0278 11.8036 8.32776L12.7817 8.53557ZM12.3853 11.0571L13.3781 11.1766C13.1427 13.1318 12.9635 15.6485 12.9399 18.1612L11.94 18.1518L10.94 18.1424C10.9643 15.5553 11.1484 12.9651 11.3924 10.9376L12.3853 11.0571ZM11.94 18.1518L12.9399 18.1612C12.9163 20.6762 13.049 23.1746 13.4324 25.1L12.4517 25.2953L11.4709 25.4906C11.0482 23.3679 10.9159 20.7116 10.94 18.1424L11.94 18.1518ZM12.4517 25.2953L13.4324 25.1C13.6243 26.0636 13.8766 26.8694 14.1942 27.4585L13.314 27.933L12.4337 28.4076C11.9819 27.5695 11.6809 26.545 11.4709 25.4907L12.4517 25.2953ZM13.314 27.933L14.1942 27.4585C14.5144 28.0524 14.8788 28.3867 15.2772 28.4863L15.0347 29.4565L14.7921 30.4266C13.6055 30.13 12.873 29.2223 12.4338 28.4076L13.314 27.933ZM15.0347 29.4565L15.2772 28.4863C16.3585 28.7566 17.5519 28.5724 18.7531 28.128L19.1001 29.0658L19.4471 30.0037C18.044 30.5228 16.4131 30.8318 14.7922 30.4266L15.0347 29.4565ZM19.1001 29.0658L18.7531 28.128C19.9524 27.6843 21.1377 26.9889 22.1893 26.2669L22.7554 27.0912L23.3214 27.9156C22.2006 28.6852 20.8623 29.4801 19.4471 30.0037L19.1001 29.0658ZM22.7554 27.0912L22.1893 26.2669C23.0627 25.6671 23.8397 25.0508 24.4521 24.5521L25.0835 25.3276L25.7149 26.103C25.0878 26.6137 24.2617 27.27 23.3214 27.9156L22.7554 27.0912ZM25.0835 25.3276L26.0762 25.4486C26.069 25.5076 26.0527 25.6496 26.0427 25.7297L25.0503 25.6069L24.0579 25.484C24.0717 25.3726 24.0761 25.328 24.0909 25.2066L25.0835 25.3276ZM25.0503 25.6069L26.0427 25.7297C25.9128 26.7795 25.7345 28.138 25.54 29.5509L24.5493 29.4145L23.5587 29.2781C23.7522 27.8722 23.9293 26.5229 24.0579 25.484L25.0503 25.6069ZM24.5493 29.4145L25.54 29.5509C25.1516 32.372 24.6973 35.4236 24.4395 36.6622L23.4605 36.4584L22.4814 36.2547C22.7224 35.0968 23.1675 32.1192 23.5587 29.2781L24.5493 29.4145ZM23.4605 36.4584L24.4395 36.6622C24.1904 37.8587 24.129 40.5513 24.1323 42.9756L23.1323 42.977L22.1323 42.9784C22.1291 40.6265 22.1809 37.6987 22.4814 36.2546L23.4605 36.4584ZM23.1323 42.977L24.1323 42.9756C24.134 44.1815 24.151 45.3113 24.1683 46.1388L23.1685 46.1596L22.1687 46.1804C22.1513 45.3435 22.134 44.2003 22.1323 42.9784L23.1323 42.977ZM23.1685 46.1596L24.1683 46.1388C24.1769 46.5528 24.1852 46.8912 24.1915 47.1258L23.1919 47.1528L22.1923 47.1798C22.1858 46.9409 22.1774 46.5984 22.1687 46.1804L23.1685 46.1596ZM23.1919 47.1528L24.1915 47.1258C24.1947 47.2428 24.1974 47.3348 24.1993 47.3976L23.1997 47.4272L22.2002 47.4568C22.1983 47.3936 22.1955 47.2995 22.1923 47.1798L23.1919 47.1528ZM23.1997 47.4272L24.1993 47.3976C24.1995 47.4047 24.1998 47.4119 24.2003 47.4218C24.2004 47.4255 24.2008 47.4339 24.2011 47.4398C24.2014 47.4463 24.2018 47.4565 24.2022 47.4677L23.2026 47.4985L22.2031 47.5292C22.2032 47.5323 22.2033 47.5334 22.2031 47.5299C22.2029 47.5257 22.2028 47.5232 22.2024 47.515C22.2018 47.5012 22.2009 47.4808 22.2002 47.4568L23.1997 47.4272ZM23.2026 47.4985H24.2026V47.5239H23.2026H22.2026V47.4985H23.2026ZM23.2026 47.5239L24.2021 47.4914L24.2256 48.2121L23.2261 48.2446L22.2266 48.2771L22.2032 47.5564L23.2026 47.5239ZM23.2261 48.2446V47.2446H43.0728V48.2446V49.2446H23.2261V48.2446ZM43.0728 48.2446L42.1663 48.6669L41.6731 47.6083L42.5796 47.186L43.4861 46.7637L43.9792 47.8223L43.0728 48.2446ZM42.5796 47.186L41.6731 47.6082C41.3674 46.9518 41.0847 46.2886 40.8168 45.6116L41.7466 45.2436L42.6764 44.8756C42.9317 45.5206 43.1989 46.1472 43.4861 46.7637L42.5796 47.186ZM41.7466 45.2436L42.1054 44.3102C42.2321 44.3589 42.3973 44.3772 42.5968 44.3584L42.6909 45.3539L42.7851 46.3495C42.3824 46.3876 41.8868 46.3688 41.3878 46.177L41.7466 45.2436ZM42.6909 45.3539L42.5967 44.3584C42.8495 44.3345 43.1512 44.2553 43.492 44.127L43.8442 45.0629L44.1965 45.9988C43.7633 46.1619 43.2786 46.3028 42.7851 46.3495L42.6909 45.3539ZM43.8442 45.0629L43.4919 44.127C44.1713 43.8713 44.9663 43.4336 45.7712 42.9161L46.312 43.7573L46.8528 44.5984C45.9964 45.149 45.0661 45.6715 44.1966 45.9988L43.8442 45.0629ZM46.312 43.7573L45.7712 42.9161C47.3813 41.881 48.9886 40.5552 49.7241 39.8197L50.4312 40.5268L51.1383 41.2339C50.2899 42.0823 48.5679 43.4958 46.8528 44.5984L46.312 43.7573ZM50.4312 40.5268L49.7241 39.8197C50.4747 39.069 51.2334 38.2623 51.6695 37.3276L52.5757 37.7504L53.4819 38.1732C52.8798 39.4639 51.8797 40.4924 51.1383 41.2339L50.4312 40.5268ZM52.5757 37.7504L51.6695 37.3277C52.0981 36.4088 52.2172 35.3604 51.6703 34.1022L52.5874 33.7035L53.5045 33.3049C54.2971 35.1284 54.1338 36.7759 53.4819 38.1732L52.5757 37.7504ZM52.5874 33.7035L51.6703 34.1022C51.2779 33.1994 50.0938 31.3176 48.5936 29.1448L49.4165 28.5766L50.2394 28.0084C51.7182 30.1501 53.0208 32.1922 53.5045 33.3049L52.5874 33.7035ZM49.4165 28.5766L48.5936 29.1448C47.4196 27.4444 46.0614 25.5786 44.76 23.8889L45.5523 23.2787L46.3445 22.6686C47.6676 24.3864 49.0462 26.2803 50.2394 28.0084L49.4165 28.5766ZM45.5523 23.2787L44.76 23.8889C42.9446 21.5318 41.2604 19.5455 40.3406 18.8096L40.9653 18.0287L41.5901 17.2479C42.7327 18.1621 44.5626 20.355 46.3445 22.6686L45.5523 23.2787ZM40.9653 18.0287L40.3396 18.8088L40.2507 18.7375L40.8765 17.9574L41.5022 17.1774L41.5911 17.2487L40.9653 18.0287ZM40.8765 17.9574L40.5169 18.8906L40.4105 18.8496L40.77 17.9164L41.1296 16.9833L41.236 17.0243L40.8765 17.9574ZM40.77 17.9164L40.4073 18.8483C36.5112 17.3319 34.1808 16.7186 29.8549 15.8612L30.0493 14.8803L30.2437 13.8994C34.6541 14.7735 37.102 15.4157 41.1327 16.9845L40.77 17.9164ZM30.0493 14.8803L29.8549 15.8612C28.8283 15.6577 27.7135 15.813 26.5973 16.169L26.2935 15.2162L25.9897 14.2635C27.2871 13.8498 28.7657 13.6064 30.2437 13.8994L30.0493 14.8803ZM26.2935 15.2162L26.5973 16.169C25.4821 16.5246 24.3815 17.0749 23.3907 17.6418L22.8941 16.7739L22.3974 15.9059C23.4457 15.3061 24.6842 14.6798 25.9897 14.2635L26.2935 15.2162ZM22.8941 16.7739L23.3907 17.6418C22.3973 18.2102 21.5305 18.7856 20.8616 19.1994L20.3355 18.3491L19.8093 17.4987C20.4069 17.129 21.3672 16.4954 22.3974 15.9059L22.8941 16.7739ZM20.3355 18.3491L20.8616 19.1995C20.7526 19.2669 20.6487 19.3277 20.5727 19.3729L20.062 18.5131L19.5513 17.6534C19.6406 17.6003 19.7204 17.5537 19.8093 17.4987L20.3355 18.3491ZM20.062 18.5131L19.0658 18.6005C19.0442 18.3534 19.0206 18.0549 19.0011 17.7103L19.9995 17.6537L20.9979 17.5972C21.016 17.9161 21.0378 18.1933 21.0582 18.4257L20.062 18.5131ZM19.9995 17.6537L19.0011 17.7103C18.9445 16.7108 18.8958 15.4226 18.7962 14.0813L19.7935 14.0073L20.7907 13.9332C20.8917 15.2942 20.9443 16.6511 20.9979 17.5972L19.9995 17.6537ZM19.7935 14.0073L18.7962 14.0813C18.6967 12.7411 18.5484 11.3644 18.2966 10.2024L19.2739 9.99065L20.2513 9.77886C20.5329 11.0784 20.6892 12.565 20.7907 13.9332L19.7935 14.0073ZM19.2739 9.99065L18.2966 10.2025C18.1709 9.62238 18.0199 9.10098 17.8397 8.66733L18.7632 8.28362L19.6867 7.89992C19.9282 8.48115 20.1101 9.12733 20.2513 9.77885L19.2739 9.99065ZM18.7632 8.28362L17.8398 8.66736C17.6588 8.23193 17.4542 7.90059 17.2281 7.68479L17.9185 6.96136L18.6089 6.23792C19.1154 6.72135 19.4516 7.33421 19.6866 7.89988L18.7632 8.28362ZM17.9185 6.96136L17.2281 7.68481C16.6015 7.08683 16.0812 6.8139 15.6113 6.80492L15.6304 5.80511L15.6495 4.80529C16.8789 4.82876 17.8649 5.52802 18.6088 6.2379L17.9185 6.96136ZM39.4526 29.0297L40.2199 28.3884C40.6913 28.9524 41.4503 29.8886 42.2587 30.9116L41.4741 31.5317L40.6896 32.1517C39.888 31.1374 39.1412 30.2164 38.6854 29.6711L39.4526 29.0297ZM41.4741 31.5317L42.2587 30.9116C43.3978 32.3531 44.6008 33.9204 45.1251 34.6966L44.2964 35.2563L43.4677 35.816C42.9923 35.1121 41.8365 33.603 40.6896 32.1517L41.4741 31.5317ZM44.2964 35.2563L45.1575 35.7647C45.0812 35.8939 44.9654 36.0508 44.7778 36.2319L44.0835 35.5121L43.3893 34.7924C43.4225 34.7604 43.4385 34.741 43.4431 34.7352C43.4468 34.7305 43.4429 34.735 43.4353 34.7478L44.2964 35.2563ZM44.0835 35.5121L44.7777 36.2319C44.3403 36.6538 43.6632 37.0897 42.9912 37.5326L42.4409 36.6977L41.8906 35.8627C42.6451 35.3654 43.12 35.0521 43.3893 34.7923L44.0835 35.5121ZM42.4409 36.6977L42.9912 37.5326C42.3047 37.9851 41.6026 38.4573 41.0639 38.9658L40.3775 38.2387L39.691 37.5116C40.3763 36.8646 41.2245 36.3017 41.8906 35.8627L42.4409 36.6977ZM40.3775 38.2387L41.064 38.9658C40.8708 39.1482 40.6958 39.3383 40.5516 39.536L39.7437 38.9467L38.9358 38.3574C39.1712 38.0347 39.4354 37.7529 39.6909 37.5116L40.3775 38.2387ZM39.7437 38.9467L38.7767 39.2018C38.6465 38.708 38.5155 38.199 38.3839 37.6726L39.354 37.4301L40.3242 37.1876C40.4536 37.7052 40.5824 38.2058 40.7106 38.6917L39.7437 38.9467ZM39.354 37.4301L38.3839 37.6726C37.8775 35.6472 37.8577 32.9616 38.0868 30.9127L39.0806 31.0239L40.0744 31.135C39.8608 33.045 39.8954 35.4726 40.3242 37.1876L39.354 37.4301ZM39.0806 31.0239L38.0868 30.9127C38.1842 30.0414 38.3273 29.2849 38.4972 28.7347L39.4526 29.0297L40.4081 29.3248C40.2888 29.7112 40.1641 30.3325 40.0744 31.135L39.0806 31.0239Z" fill="black" mask="url(#path-4-inside-1_941_1261)"/>
<path d="M10.8447 4.42729L8.21735 3.89034C7.40587 3.72475 6.61323 4.24811 6.44738 5.0596L5.01386 12.0738C4.84801 12.8853 5.37174 13.6777 6.18313 13.8438L8.81046 14.3807C9.62211 14.5466 10.4146 14.0231 10.5804 13.2115L12.014 6.19727C12.1798 5.38562 11.6563 4.59317 10.8447 4.42729Z" fill="black" stroke="black"/>
<path d="M23.9828 3.67244L21.3114 3.90621C20.4864 3.97867 19.8757 4.70615 19.9479 5.53126L20.572 12.6632C20.6442 13.4883 21.3719 14.0987 22.197 14.0267L24.8685 13.7929C25.6937 13.7207 26.3042 12.9932 26.232 12.1679L25.6079 5.03597C25.5357 4.2107 24.8081 3.60023 23.9828 3.67244Z" fill="black" stroke="black"/>
</g>
<defs>
<clipPath id="clip0_941_1261">
<rect width="68" height="49" fill="white"/>
</clipPath>
</defs>
</svg>
