<svg width="68" height="49" viewBox="0 0 68 49" fill="none" xmlns="http://www.w3.org/2000/svg">
<g clip-path="url(#clip0_829_1368)">
<circle cx="6.70192" cy="6.70192" r="5.45192" transform="matrix(-1 0 0 1 45.4038 3)" stroke="black" stroke-width="2.5"/>
<path d="M65.9043 49.1433H3" stroke="black" stroke-width="2" stroke-linecap="round"/>
<mask id="path-3-inside-1_829_1368" fill="white">
<path d="M15.6446 6.05061C14.4523 6.028 13.5126 6.69358 12.7892 7.4969C12.4949 7.82401 12.351 8.24154 12.2852 8.44123C12.1953 8.71432 12.1149 9.03614 12.0421 9.37873C11.8954 10.0694 11.756 10.9599 11.6349 11.9666C11.3919 13.9852 11.2088 16.5665 11.1847 19.1444C11.1606 21.7069 11.2931 24.3446 11.711 26.4432C11.9187 27.486 12.2131 28.4842 12.6485 29.2918C13.0739 30.0807 13.7619 30.9169 14.8507 31.1893C16.4053 31.5779 17.9838 31.2843 19.3624 30.7742C20.7507 30.2605 22.0697 29.4782 23.1817 28.7147C23.5033 28.4938 23.8117 28.2699 24.1036 28.0526C24.0112 28.7585 23.908 29.527 23.7999 30.3123C23.409 33.1511 22.9638 36.1382 22.7208 37.3055C22.4266 38.7196 22.3728 41.6191 22.3761 43.9793C22.3778 45.1991 22.3958 46.3404 22.4132 47.1756C22.4219 47.5933 22.4302 47.9357 22.4366 48.1737C22.4398 48.2922 22.4425 48.3856 22.4444 48.449C22.4454 48.4806 22.4459 48.5058 22.4464 48.5223C22.4466 48.5301 22.4472 48.5366 22.4474 48.5408V48.5477L23.9474 48.5008L22.4474 48.5487L22.4942 50.0008H44.2579L43.2638 47.867C43.1436 47.6092 43.028 47.349 42.9142 47.0877C43.3258 47.0321 43.7332 46.9119 44.1095 46.7703C44.9557 46.4518 45.8697 45.9399 46.7198 45.3934C48.422 44.2991 50.1302 42.896 50.9649 42.0614C51.7069 41.3194 52.6779 40.3174 53.2599 39.0701C53.8845 37.7313 54.0418 36.1564 53.2794 34.4022C52.8067 33.315 51.518 31.2931 50.0372 29.1483C48.8464 27.4235 47.4709 25.5326 46.1505 23.8182C44.3648 21.4996 42.5521 19.3318 41.4366 18.4393L41.2579 18.2967L41.044 18.2127C37.0296 16.6503 34.5956 16.0116 30.1954 15.1395C28.7726 14.8576 27.3386 15.0913 26.0636 15.4979C24.7815 15.9067 23.5598 16.5233 22.5186 17.119C21.8709 17.4896 21.2529 17.8761 20.7335 18.2049C20.6863 17.2945 20.6332 16.1273 20.546 14.952C20.4447 13.5871 20.2897 12.1135 20.0118 10.8309C19.8727 10.1889 19.6941 9.55741 19.46 8.99397C19.2317 8.4444 18.9116 7.86643 18.4395 7.41584C17.7098 6.71945 16.7809 6.07239 15.6446 6.05061ZM15.6261 9.05744C15.6544 9.06566 15.7019 9.08341 15.7696 9.11994C15.9107 9.19615 16.1082 9.33759 16.3683 9.58576C16.4199 9.63513 16.5433 9.79112 16.6905 10.1453C16.832 10.4859 16.9628 10.9294 17.0792 11.4666C17.3124 12.5431 17.4566 13.8515 17.5548 15.1737C17.6534 16.5023 17.7005 17.75 17.7589 18.7811C17.787 19.2778 17.8185 19.7414 17.8634 20.1063C17.8854 20.2854 17.9152 20.4837 17.961 20.6678C17.984 20.7599 18.0191 20.882 18.0733 21.0106C18.1193 21.1195 18.2258 21.3476 18.4395 21.5613C18.9881 22.1095 19.6634 22.0464 19.8819 22.0125C20.1502 21.9708 20.3833 21.8752 20.5294 21.8094C20.8378 21.6704 21.1891 21.4607 21.5157 21.2586C22.2296 20.8169 23.0374 20.2778 24.0079 19.7225C24.9629 19.1761 25.9779 18.6732 26.9747 18.3553C27.9787 18.0351 28.867 17.9351 29.6124 18.0828C33.8003 18.9129 36.0518 19.5019 39.7286 20.9217C40.5558 21.6545 42.0581 23.4219 43.7735 25.6492C45.0612 27.3212 46.4064 29.1694 47.5684 30.8524C49.0826 33.0454 50.1928 34.8266 50.5284 35.5985C50.9224 36.5051 50.8306 37.181 50.5411 37.8016C50.2088 38.5136 49.6016 39.1825 48.8438 39.9403C48.1782 40.6058 46.6419 41.8772 45.0977 42.8699C44.3247 43.3669 43.6137 43.7516 43.0528 43.9627C42.7978 44.0587 42.6188 44.0997 42.5099 44.1141C42.1752 43.9126 41.9248 43.7053 41.7462 43.4237C41.5537 43.12 41.3497 42.5831 41.4024 41.5789C41.4047 41.5393 41.4503 41.3126 41.9181 40.8709C42.3646 40.4493 42.9744 40.0354 43.6759 39.5731C44.3025 39.1601 45.1006 38.6496 45.6417 38.1278C45.9139 37.8652 46.2613 37.4706 46.4415 36.9471C46.6551 36.3263 46.5879 35.6474 46.1954 35.0584L45.961 34.7176C45.3413 33.8401 44.2453 32.4196 43.2345 31.1405C42.1039 29.7099 40.9327 28.2695 40.6036 27.9403L40.5138 27.8553C40.2876 27.6558 39.9451 27.4459 39.4874 27.4061C38.9471 27.3591 38.5183 27.5719 38.2472 27.786C37.7905 28.1468 37.5579 28.6747 37.4395 28.9813C37.1604 29.7046 36.9681 30.7164 36.8497 31.7752C36.611 33.9104 36.6214 36.7563 37.1759 38.9744C37.9448 42.0501 38.6908 44.6122 39.6309 47.0008H25.4102C25.3939 46.1901 25.3777 45.1159 25.3761 43.9744C25.3726 41.5049 25.4405 38.9595 25.6573 37.9168C25.9256 36.6282 26.3859 33.5299 26.7725 30.7215C26.9676 29.3048 27.1466 27.9394 27.2774 26.8826C27.3427 26.3553 27.397 25.8995 27.4347 25.5506C27.4676 25.2458 27.5 24.9225 27.5001 24.7342C27.5001 24.5559 27.4687 24.2133 27.2345 23.8699C26.9697 23.4821 26.5834 23.2916 26.2462 23.2313C25.9546 23.1792 25.718 23.2238 25.6036 23.2518C25.4758 23.2831 25.3741 23.3251 25.3116 23.3533C25.1026 23.4478 24.9178 23.5836 24.8331 23.6463C24.6161 23.8069 24.3169 24.0542 24.0099 24.3065C23.3604 24.84 22.486 25.5527 21.4835 26.241C20.4751 26.9334 19.3858 27.5669 18.3214 27.9608C17.257 28.3545 16.3428 28.4621 15.6007 28.283C15.5728 28.2651 15.4559 28.1773 15.2892 27.868C15.0554 27.4343 14.8341 26.7645 14.6534 25.8572C14.2944 24.0547 14.1614 21.6541 14.1847 19.1727C14.2078 16.7065 14.3834 14.2353 14.6134 12.325C14.7286 11.3681 14.8553 10.5741 14.9767 10.0028C15.0373 9.71722 15.0914 9.51313 15.1339 9.38362C15.2971 9.21825 15.4181 9.13015 15.4962 9.08674C15.5403 9.0623 15.5673 9.05424 15.5772 9.05158C15.5813 9.05053 15.584 9.04983 15.585 9.04963H15.587C15.5874 9.04964 15.5993 9.04969 15.6261 9.05744ZM40.8809 33.0008C41.8044 34.1693 42.7366 35.3787 43.3155 36.1766C43.0166 36.4129 42.5909 36.6949 42.0245 37.0682C41.4465 37.4491 40.7464 37.9137 40.1358 38.4403C40.1197 38.3762 40.1022 38.3115 40.086 38.2469C39.6479 36.4941 39.6157 34.0349 39.8311 32.1082C39.8452 31.9827 39.8644 31.8616 39.88 31.7449C40.1934 32.134 40.534 32.5618 40.8809 33.0008Z"/>
</mask>
<path d="M15.6446 6.05061C14.4523 6.028 13.5126 6.69358 12.7892 7.4969C12.4949 7.82401 12.351 8.24154 12.2852 8.44123C12.1953 8.71432 12.1149 9.03614 12.0421 9.37873C11.8954 10.0694 11.756 10.9599 11.6349 11.9666C11.3919 13.9852 11.2088 16.5665 11.1847 19.1444C11.1606 21.7069 11.2931 24.3446 11.711 26.4432C11.9187 27.486 12.2131 28.4842 12.6485 29.2918C13.0739 30.0807 13.7619 30.9169 14.8507 31.1893C16.4053 31.5779 17.9838 31.2843 19.3624 30.7742C20.7507 30.2605 22.0697 29.4782 23.1817 28.7147C23.5033 28.4938 23.8117 28.2699 24.1036 28.0526C24.0112 28.7585 23.908 29.527 23.7999 30.3123C23.409 33.1511 22.9638 36.1382 22.7208 37.3055C22.4266 38.7196 22.3728 41.6191 22.3761 43.9793C22.3778 45.1991 22.3958 46.3404 22.4132 47.1756C22.4219 47.5933 22.4302 47.9357 22.4366 48.1737C22.4398 48.2922 22.4425 48.3856 22.4444 48.449C22.4454 48.4806 22.4459 48.5058 22.4464 48.5223C22.4466 48.5301 22.4472 48.5366 22.4474 48.5408V48.5477L23.9474 48.5008L22.4474 48.5487L22.4942 50.0008H44.2579L43.2638 47.867C43.1436 47.6092 43.028 47.349 42.9142 47.0877C43.3258 47.0321 43.7332 46.9119 44.1095 46.7703C44.9557 46.4518 45.8697 45.9399 46.7198 45.3934C48.422 44.2991 50.1302 42.896 50.9649 42.0614C51.7069 41.3194 52.6779 40.3174 53.2599 39.0701C53.8845 37.7313 54.0418 36.1564 53.2794 34.4022C52.8067 33.315 51.518 31.2931 50.0372 29.1483C48.8464 27.4235 47.4709 25.5326 46.1505 23.8182C44.3648 21.4996 42.5521 19.3318 41.4366 18.4393L41.2579 18.2967L41.044 18.2127C37.0296 16.6503 34.5956 16.0116 30.1954 15.1395C28.7726 14.8576 27.3386 15.0913 26.0636 15.4979C24.7815 15.9067 23.5598 16.5233 22.5186 17.119C21.8709 17.4896 21.2529 17.8761 20.7335 18.2049C20.6863 17.2945 20.6332 16.1273 20.546 14.952C20.4447 13.5871 20.2897 12.1135 20.0118 10.8309C19.8727 10.1889 19.6941 9.55741 19.46 8.99397C19.2317 8.4444 18.9116 7.86643 18.4395 7.41584C17.7098 6.71945 16.7809 6.07239 15.6446 6.05061ZM15.6261 9.05744C15.6544 9.06566 15.7019 9.08341 15.7696 9.11994C15.9107 9.19615 16.1082 9.33759 16.3683 9.58576C16.4199 9.63513 16.5433 9.79112 16.6905 10.1453C16.832 10.4859 16.9628 10.9294 17.0792 11.4666C17.3124 12.5431 17.4566 13.8515 17.5548 15.1737C17.6534 16.5023 17.7005 17.75 17.7589 18.7811C17.787 19.2778 17.8185 19.7414 17.8634 20.1063C17.8854 20.2854 17.9152 20.4837 17.961 20.6678C17.984 20.7599 18.0191 20.882 18.0733 21.0106C18.1193 21.1195 18.2258 21.3476 18.4395 21.5613C18.9881 22.1095 19.6634 22.0464 19.8819 22.0125C20.1502 21.9708 20.3833 21.8752 20.5294 21.8094C20.8378 21.6704 21.1891 21.4607 21.5157 21.2586C22.2296 20.8169 23.0374 20.2778 24.0079 19.7225C24.9629 19.1761 25.9779 18.6732 26.9747 18.3553C27.9787 18.0351 28.867 17.9351 29.6124 18.0828C33.8003 18.9129 36.0518 19.5019 39.7286 20.9217C40.5558 21.6545 42.0581 23.4219 43.7735 25.6492C45.0612 27.3212 46.4064 29.1694 47.5684 30.8524C49.0826 33.0454 50.1928 34.8266 50.5284 35.5985C50.9224 36.5051 50.8306 37.181 50.5411 37.8016C50.2088 38.5136 49.6016 39.1825 48.8438 39.9403C48.1782 40.6058 46.6419 41.8772 45.0977 42.8699C44.3247 43.3669 43.6137 43.7516 43.0528 43.9627C42.7978 44.0587 42.6188 44.0997 42.5099 44.1141C42.1752 43.9126 41.9248 43.7053 41.7462 43.4237C41.5537 43.12 41.3497 42.5831 41.4024 41.5789C41.4047 41.5393 41.4503 41.3126 41.9181 40.8709C42.3646 40.4493 42.9744 40.0354 43.6759 39.5731C44.3025 39.1601 45.1006 38.6496 45.6417 38.1278C45.9139 37.8652 46.2613 37.4706 46.4415 36.9471C46.6551 36.3263 46.5879 35.6474 46.1954 35.0584L45.961 34.7176C45.3413 33.8401 44.2453 32.4196 43.2345 31.1405C42.1039 29.7099 40.9327 28.2695 40.6036 27.9403L40.5138 27.8553C40.2876 27.6558 39.9451 27.4459 39.4874 27.4061C38.9471 27.3591 38.5183 27.5719 38.2472 27.786C37.7905 28.1468 37.5579 28.6747 37.4395 28.9813C37.1604 29.7046 36.9681 30.7164 36.8497 31.7752C36.611 33.9104 36.6214 36.7563 37.1759 38.9744C37.9448 42.0501 38.6908 44.6122 39.6309 47.0008H25.4102C25.3939 46.1901 25.3777 45.1159 25.3761 43.9744C25.3726 41.5049 25.4405 38.9595 25.6573 37.9168C25.9256 36.6282 26.3859 33.5299 26.7725 30.7215C26.9676 29.3048 27.1466 27.9394 27.2774 26.8826C27.3427 26.3553 27.397 25.8995 27.4347 25.5506C27.4676 25.2458 27.5 24.9225 27.5001 24.7342C27.5001 24.5559 27.4687 24.2133 27.2345 23.8699C26.9697 23.4821 26.5834 23.2916 26.2462 23.2313C25.9546 23.1792 25.718 23.2238 25.6036 23.2518C25.4758 23.2831 25.3741 23.3251 25.3116 23.3533C25.1026 23.4478 24.9178 23.5836 24.8331 23.6463C24.6161 23.8069 24.3169 24.0542 24.0099 24.3065C23.3604 24.84 22.486 25.5527 21.4835 26.241C20.4751 26.9334 19.3858 27.5669 18.3214 27.9608C17.257 28.3545 16.3428 28.4621 15.6007 28.283C15.5728 28.2651 15.4559 28.1773 15.2892 27.868C15.0554 27.4343 14.8341 26.7645 14.6534 25.8572C14.2944 24.0547 14.1614 21.6541 14.1847 19.1727C14.2078 16.7065 14.3834 14.2353 14.6134 12.325C14.7286 11.3681 14.8553 10.5741 14.9767 10.0028C15.0373 9.71722 15.0914 9.51313 15.1339 9.38362C15.2971 9.21825 15.4181 9.13015 15.4962 9.08674C15.5403 9.0623 15.5673 9.05424 15.5772 9.05158C15.5813 9.05053 15.584 9.04983 15.585 9.04963H15.587C15.5874 9.04964 15.5993 9.04969 15.6261 9.05744ZM40.8809 33.0008C41.8044 34.1693 42.7366 35.3787 43.3155 36.1766C43.0166 36.4129 42.5909 36.6949 42.0245 37.0682C41.4465 37.4491 40.7464 37.9137 40.1358 38.4403C40.1197 38.3762 40.1022 38.3115 40.086 38.2469C39.6479 36.4941 39.6157 34.0349 39.8311 32.1082C39.8452 31.9827 39.8644 31.8616 39.88 31.7449C40.1934 32.134 40.534 32.5618 40.8809 33.0008Z" fill="black"/>
<path d="M15.6446 6.05061L15.6636 5.05079L15.6638 5.05079L15.6446 6.05061ZM12.7892 7.4969L12.0457 6.82805L12.0461 6.82769L12.7892 7.4969ZM12.2852 8.44123L11.3354 8.12839L11.3355 8.12826L12.2852 8.44123ZM12.0421 9.37873L11.0639 9.17095L11.0639 9.1709L12.0421 9.37873ZM11.6349 11.9666L10.642 11.8471V11.8471L11.6349 11.9666ZM11.1847 19.1444L10.1847 19.135V19.135L11.1847 19.1444ZM11.711 26.4432L10.7303 26.6385L10.7303 26.6385L11.711 26.4432ZM12.6485 29.2918L11.7683 29.7664L11.7683 29.7663L12.6485 29.2918ZM14.8507 31.1893L14.6081 32.1594L14.608 32.1594L14.8507 31.1893ZM19.3624 30.7742L19.7094 31.7121L19.7094 31.7121L19.3624 30.7742ZM23.1817 28.7147L23.7478 29.539L23.7477 29.5391L23.1817 28.7147ZM24.1036 28.0526L23.5064 27.2504L25.4017 25.8395L25.0952 28.1823L24.1036 28.0526ZM23.7999 30.3123L24.7905 30.4487V30.4487L23.7999 30.3123ZM22.7208 37.3055L21.7418 37.1018L21.7418 37.1017L22.7208 37.3055ZM22.3761 43.9793L21.3761 43.9807V43.9807L22.3761 43.9793ZM22.4132 47.1756L21.4134 47.1964V47.1964L22.4132 47.1756ZM22.4366 48.1737L21.437 48.2007V48.2007L22.4366 48.1737ZM22.4444 48.449L23.444 48.4195L23.444 48.4195L22.4444 48.449ZM22.4464 48.5223L21.4469 48.555L21.4468 48.5531L22.4464 48.5223ZM22.4474 48.5408L23.4469 48.5095L23.4474 48.5252V48.5408H22.4474ZM22.4474 48.5477L22.4786 49.5472L21.4474 49.5794V48.5477H22.4474ZM23.9474 48.5008L23.9161 47.5013L23.9792 49.5003L23.9474 48.5008ZM22.4474 48.5487L21.4479 48.5809L21.4156 47.5811L22.4155 47.5492L22.4474 48.5487ZM22.4942 50.0008V51.0008H21.526L21.4948 50.0331L22.4942 50.0008ZM44.2579 50.0008L45.1643 49.5785L45.827 51.0008H44.2579V50.0008ZM43.2638 47.867L42.3573 48.2893L42.3573 48.2893L43.2638 47.867ZM42.9142 47.0877L41.9974 47.4872L41.4688 46.274L42.7802 46.0967L42.9142 47.0877ZM44.1095 46.7703L44.4617 47.7062L44.4617 47.7063L44.1095 46.7703ZM46.7198 45.3934L47.2606 46.2345L47.2606 46.2346L46.7198 45.3934ZM50.9649 42.0614L51.672 42.7685L51.672 42.7685L50.9649 42.0614ZM53.2599 39.0701L54.1661 39.4929L54.1661 39.493L53.2599 39.0701ZM53.2794 34.4022L54.1964 34.0034L54.1965 34.0035L53.2794 34.4022ZM50.0372 29.1483L50.8601 28.5801L50.8601 28.5801L50.0372 29.1483ZM46.1505 23.8182L46.9427 23.208L46.9427 23.208L46.1505 23.8182ZM41.4366 18.4393L42.0603 17.6576L42.0613 17.6584L41.4366 18.4393ZM41.2579 18.2967L41.6234 17.3659L41.7637 17.421L41.8816 17.515L41.2579 18.2967ZM41.044 18.2127L41.4067 17.2808L41.4096 17.2819L41.044 18.2127ZM30.1954 15.1395L30.3897 14.1585L30.3898 14.1586L30.1954 15.1395ZM26.0636 15.4979L25.7597 14.5452L25.7598 14.5451L26.0636 15.4979ZM22.5186 17.119L22.022 16.251L22.022 16.251L22.5186 17.119ZM20.7335 18.2049L21.2683 19.0499L19.8233 19.9646L19.7348 18.2566L20.7335 18.2049ZM20.546 14.952L21.5432 14.878V14.878L20.546 14.952ZM20.0118 10.8309L20.9891 10.6191L20.9891 10.6191L20.0118 10.8309ZM19.46 8.99397L20.3835 8.6102L20.3835 8.61031L19.46 8.99397ZM18.4395 7.41584L19.1299 6.69241L19.13 6.69248L18.4395 7.41584ZM15.6261 9.05744L15.9037 8.09677L15.9046 8.09702L15.6261 9.05744ZM15.7696 9.11994L16.2446 8.23995L16.2448 8.24005L15.7696 9.11994ZM16.3683 9.58576L17.0586 8.86231L17.0591 8.86274L16.3683 9.58576ZM16.6905 10.1453L17.614 9.76163L17.614 9.76172L16.6905 10.1453ZM17.0792 11.4666L18.0565 11.2548L18.0565 11.2549L17.0792 11.4666ZM17.5548 15.1737L18.552 15.0996V15.0996L17.5548 15.1737ZM17.7589 18.7811L16.7605 18.8376V18.8376L17.7589 18.7811ZM17.8634 20.1063L16.8708 20.2283L16.8708 20.2282L17.8634 20.1063ZM17.961 20.6678L16.9908 20.9098L16.9907 20.9095L17.961 20.6678ZM18.0733 21.0106L17.1519 21.3991L17.1518 21.3989L18.0733 21.0106ZM18.4395 21.5613L17.7327 22.2687L17.7324 22.2685L18.4395 21.5613ZM19.8819 22.0125L20.0355 23.0007L20.0353 23.0007L19.8819 22.0125ZM20.5294 21.8094L20.9404 22.721L20.9402 22.7211L20.5294 21.8094ZM21.5157 21.2586L22.0418 22.109L22.0418 22.109L21.5157 21.2586ZM24.0079 19.7225L23.5113 18.8545L23.5113 18.8545L24.0079 19.7225ZM26.9747 18.3553L26.6708 17.4026L26.6709 17.4026L26.9747 18.3553ZM29.6124 18.0828L29.8068 17.1019L29.8068 17.1019L29.6124 18.0828ZM39.7286 20.9217L40.0888 19.9888L40.2569 20.0537L40.3917 20.1732L39.7286 20.9217ZM43.7735 25.6492L44.5658 25.0391L44.5658 25.0391L43.7735 25.6492ZM47.5684 30.8524L48.3914 30.2842L48.3914 30.2842L47.5684 30.8524ZM50.5284 35.5985L51.4455 35.1998L51.4455 35.1999L50.5284 35.5985ZM50.5411 37.8016L51.4474 38.2243L51.4473 38.2245L50.5411 37.8016ZM48.8438 39.9403L49.5509 40.6474L49.5509 40.6474L48.8438 39.9403ZM45.0977 42.8699L45.6385 43.7111L45.6385 43.7111L45.0977 42.8699ZM43.0528 43.9627L43.4051 44.8986L43.405 44.8987L43.0528 43.9627ZM42.5099 44.1141L42.6407 45.1055L42.2938 45.1512L41.9941 44.9708L42.5099 44.1141ZM41.7462 43.4237L40.9018 43.9593L40.9015 43.9589L41.7462 43.4237ZM41.4024 41.5789L40.4038 41.5265L40.4041 41.5216L41.4024 41.5789ZM41.9181 40.8709L41.2315 40.1438L41.2316 40.1438L41.9181 40.8709ZM43.6759 39.5731L43.1256 38.7381L43.1256 38.7381L43.6759 39.5731ZM45.6417 38.1278L46.336 38.8475L46.3359 38.8476L45.6417 38.1278ZM46.4415 36.9471L47.3871 37.2724L47.387 37.2726L46.4415 36.9471ZM46.1954 35.0584L47.0194 34.4918L47.0235 34.4978L47.0275 34.5039L46.1954 35.0584ZM45.961 34.7176L46.7779 34.1407L46.785 34.151L45.961 34.7176ZM43.2345 31.1405L44.019 30.5204L44.019 30.5204L43.2345 31.1405ZM40.6036 27.9403L41.2907 27.2137L41.3009 27.2233L41.3108 27.2332L40.6036 27.9403ZM40.5138 27.8553L41.1753 27.1054L41.1883 27.1168L41.2008 27.1287L40.5138 27.8553ZM39.4874 27.4061L39.574 26.4098L39.5741 26.4098L39.4874 27.4061ZM38.2472 27.786L37.6272 27.0013L37.6277 27.001L38.2472 27.786ZM37.4395 28.9813L36.5066 28.6212L36.5067 28.6211L37.4395 28.9813ZM36.8497 31.7752L35.8559 31.6641L35.8559 31.6641L36.8497 31.7752ZM37.1759 38.9744L36.2057 39.217L36.2057 39.2169L37.1759 38.9744ZM39.6309 47.0008L40.5615 46.6346L41.0992 48.0008H39.6309V47.0008ZM25.4102 47.0008V48.0008H24.4302L24.4104 47.021L25.4102 47.0008ZM25.3761 43.9744L24.3761 43.9758V43.9758L25.3761 43.9744ZM25.6573 37.9168L24.6783 37.7132L24.6783 37.713L25.6573 37.9168ZM26.7725 30.7215L27.7632 30.8579V30.8579L26.7725 30.7215ZM27.2774 26.8826L28.2699 27.0055L28.2699 27.0055L27.2774 26.8826ZM27.4347 25.5506L28.4289 25.658L28.4289 25.6581L27.4347 25.5506ZM27.5001 24.7342H28.5001L28.5001 24.7347L27.5001 24.7342ZM27.2345 23.8699L28.0603 23.3061L28.0605 23.3064L27.2345 23.8699ZM26.2462 23.2313L26.4221 22.2469L26.4224 22.2469L26.2462 23.2313ZM25.6036 23.2518L25.3659 22.2804L25.3662 22.2804L25.6036 23.2518ZM25.3116 23.3533L24.8996 22.4422L24.9 22.442L25.3116 23.3533ZM24.8331 23.6463L24.2382 22.8425L24.2383 22.8424L24.8331 23.6463ZM24.0099 24.3065L24.6446 25.0792L24.6446 25.0792L24.0099 24.3065ZM21.4835 26.241L22.0495 27.0654L22.0495 27.0654L21.4835 26.241ZM18.3214 27.9608L18.6684 28.8986L18.6683 28.8986L18.3214 27.9608ZM15.6007 28.283L15.3661 29.2551L15.2014 29.2154L15.059 29.1236L15.6007 28.283ZM15.2892 27.868L14.409 28.3426L14.4089 28.3424L15.2892 27.868ZM14.6534 25.8572L13.6727 26.0526L13.6727 26.0526L14.6534 25.8572ZM14.1847 19.1727L13.1847 19.1633V19.1633L14.1847 19.1727ZM14.6134 12.325L13.6205 12.2055V12.2055L14.6134 12.325ZM14.9767 10.0028L13.9985 9.79501L13.9985 9.79495L14.9767 10.0028ZM15.1339 9.38362L14.1836 9.07225L14.2569 8.84855L14.4223 8.68104L15.1339 9.38362ZM15.4962 9.08674L15.0105 8.21258L15.0114 8.21209L15.4962 9.08674ZM15.5772 9.05158L15.3189 8.08551L15.3227 8.08451L15.5772 9.05158ZM15.585 9.04963L15.4015 8.06662L15.4925 8.04963H15.585V9.04963ZM15.587 9.04963V8.04963H15.5965L15.606 8.04981L15.587 9.04963ZM40.8809 33.0008L41.6655 32.3808L41.6655 32.3808L40.8809 33.0008ZM43.3155 36.1766L44.1249 35.5893L44.6885 36.366L43.9356 36.9611L43.3155 36.1766ZM42.0245 37.0682L41.4742 36.2332L41.4742 36.2332L42.0245 37.0682ZM40.1358 38.4403L40.7889 39.1976L39.5614 40.2561L39.166 38.6842L40.1358 38.4403ZM40.086 38.2469L39.1159 38.4895L39.1159 38.4894L40.086 38.2469ZM39.8311 32.1082L38.8373 31.9971L38.8373 31.9971L39.8311 32.1082ZM39.88 31.7449L38.8888 31.6126L39.1972 29.3032L40.6587 31.1176L39.88 31.7449ZM15.6446 6.05061L15.6257 7.05043C14.8517 7.03576 14.1684 7.45967 13.5322 8.1661L12.7892 7.4969L12.0461 6.82769C12.8568 5.92749 14.0528 5.02025 15.6636 5.05079L15.6446 6.05061ZM12.7892 7.4969L13.5326 8.16574C13.4695 8.23577 13.409 8.3319 13.3546 8.44635C13.3012 8.55859 13.2644 8.66498 13.235 8.7542L12.2852 8.44123L11.3355 8.12826C11.4032 7.92279 11.5989 7.32469 12.0457 6.82805L12.7892 7.4969ZM12.2852 8.44123L13.2351 8.75408C13.161 8.9789 13.0893 9.26165 13.0202 9.58656L12.0421 9.37873L11.0639 9.1709C11.1405 8.81063 11.2296 8.44973 11.3354 8.12839L12.2852 8.44123ZM12.0421 9.37873L13.0203 9.58651C12.8819 10.2377 12.7468 11.0964 12.6277 12.0861L11.6349 11.9666L10.642 11.8471C10.7653 10.8234 10.9088 9.90107 11.0639 9.17095L12.0421 9.37873ZM11.6349 11.9666L12.6277 12.0861C12.3891 14.0685 12.2085 16.613 12.1846 19.1537L11.1847 19.1444L10.1847 19.135C10.2092 16.5201 10.3947 13.902 10.642 11.8471L11.6349 11.9666ZM11.1847 19.1444L12.1846 19.1537C12.1609 21.6891 12.2935 24.2479 12.6918 26.2479L11.711 26.4432L10.7303 26.6385C10.2927 24.4413 10.1604 21.7247 10.1847 19.135L11.1847 19.1444ZM11.711 26.4432L12.6918 26.2478C12.8905 27.2458 13.1606 28.1344 13.5288 28.8173L12.6485 29.2918L11.7683 29.7663C11.2656 28.8339 10.947 27.7263 10.7303 26.6385L11.711 26.4432ZM12.6485 29.2918L13.5287 28.8172C13.8949 29.4964 14.399 30.0455 15.0934 30.2192L14.8507 31.1893L14.608 32.1594C13.1248 31.7883 12.2529 30.6651 11.7683 29.7664L12.6485 29.2918ZM14.8507 31.1893L15.0932 30.2191C16.378 30.5403 17.7377 30.3091 19.0154 29.8364L19.3624 30.7742L19.7094 31.7121C18.2299 32.2594 16.4326 32.6155 14.6081 32.1594L14.8507 31.1893ZM19.3624 30.7742L19.0154 29.8364C20.2958 29.3626 21.5383 28.63 22.6157 27.8903L23.1817 28.7147L23.7477 29.5391C22.6011 30.3264 21.2056 31.1584 19.7094 31.7121L19.3624 30.7742ZM23.1817 28.7147L22.6157 27.8903C22.9234 27.679 23.2209 27.463 23.5064 27.2504L24.1036 28.0526L24.7008 28.8547C24.4026 29.0767 24.0833 29.3087 23.7478 29.539L23.1817 28.7147ZM24.1036 28.0526L25.0952 28.1823C25.0025 28.8906 24.8989 29.6614 24.7905 30.4487L23.7999 30.3123L22.8092 30.1759C22.9171 29.3927 23.02 28.6264 23.1121 27.9228L24.1036 28.0526ZM23.7999 30.3123L24.7905 30.4487C24.4011 33.2771 23.9512 36.3015 23.6998 37.5093L22.7208 37.3055L21.7418 37.1017C21.9763 35.9749 22.417 33.0251 22.8092 30.1759L23.7999 30.3123ZM22.7208 37.3055L23.6998 37.5092C23.4313 38.7998 23.3727 41.5825 23.3761 43.9779L22.3761 43.9793L21.3761 43.9807C21.3728 41.6558 21.4219 38.6395 21.7418 37.1018L22.7208 37.3055ZM22.3761 43.9793L23.3761 43.9779C23.3778 45.1893 23.3957 46.3238 23.413 47.1548L22.4132 47.1756L21.4134 47.1964C21.3959 46.3571 21.3778 45.209 21.3761 43.9807L22.3761 43.9793ZM22.4132 47.1756L23.413 47.1548C23.4216 47.5707 23.4299 47.911 23.4362 48.1466L22.4366 48.1737L21.437 48.2007C21.4305 47.9603 21.4221 47.6158 21.4134 47.1964L22.4132 47.1756ZM22.4366 48.1737L23.4362 48.1466C23.4394 48.264 23.4421 48.3564 23.444 48.4195L22.4444 48.449L21.4449 48.4786C21.443 48.4147 21.4402 48.3204 21.437 48.2007L22.4366 48.1737ZM22.4444 48.449L23.444 48.4195C23.4459 48.485 23.4448 48.4546 23.4459 48.4915L22.4464 48.5223L21.4468 48.5531C21.4465 48.5412 21.4461 48.527 21.4459 48.5163C21.4456 48.5043 21.4453 48.492 21.4449 48.4786L22.4444 48.449ZM22.4464 48.5223L23.4458 48.4895C23.4455 48.4781 23.4449 48.4696 23.445 48.4706C23.445 48.4707 23.445 48.4709 23.445 48.4712C23.445 48.4715 23.4451 48.4721 23.4451 48.4727C23.4452 48.4739 23.4453 48.4761 23.4455 48.4788C23.4456 48.4815 23.4459 48.4855 23.4461 48.4903C23.4463 48.4951 23.4466 48.5017 23.4469 48.5095L22.4474 48.5408L21.4478 48.5722C21.4481 48.5789 21.4483 48.5844 21.4485 48.588C21.4487 48.5916 21.4488 48.5943 21.4489 48.5957C21.449 48.597 21.449 48.5979 21.449 48.5976C21.449 48.5975 21.449 48.5973 21.449 48.5969C21.4489 48.5965 21.4489 48.5958 21.4489 48.5952C21.4485 48.5899 21.4475 48.5743 21.4469 48.555L22.4464 48.5223ZM22.4474 48.5408H23.4474V48.5477H22.4474H21.4474V48.5408H22.4474ZM22.4474 48.5477L22.4161 47.5482L23.9161 47.5013L23.9474 48.5008L23.9786 49.5003L22.4786 49.5472L22.4474 48.5477ZM23.9474 48.5008L23.9792 49.5003L22.4792 49.5481L22.4474 48.5487L22.4155 47.5492L23.9155 47.5013L23.9474 48.5008ZM22.4474 48.5487L23.4468 48.5164L23.4937 49.9685L22.4942 50.0008L21.4948 50.0331L21.4479 48.5809L22.4474 48.5487ZM22.4942 50.0008V49.0008H44.2579V50.0008V51.0008H22.4942V50.0008ZM44.2579 50.0008L43.3515 50.4231L42.3573 48.2893L43.2638 47.867L44.1702 47.4447L45.1643 49.5785L44.2579 50.0008ZM43.2638 47.867L42.3573 48.2893C42.2324 48.0211 42.1131 47.7527 41.9974 47.4872L42.9142 47.0877L43.8309 46.6883C43.9429 46.9454 44.0549 47.1973 44.1702 47.4448L43.2638 47.867ZM42.9142 47.0877L42.7802 46.0967C43.0938 46.0543 43.4251 45.9594 43.7573 45.8344L44.1095 46.7703L44.4617 47.7063C44.0413 47.8644 43.5579 48.0098 43.0481 48.0787L42.9142 47.0877ZM44.1095 46.7703L43.7572 45.8344C44.5085 45.5517 45.3549 45.082 46.1791 44.5522L46.7198 45.3934L47.2606 46.2346C46.3846 46.7977 45.4029 47.352 44.4617 47.7062L44.1095 46.7703ZM46.7198 45.3934L46.179 44.5522C47.8286 43.4917 49.4796 42.1324 50.2579 41.3542L50.9649 42.0614L51.672 42.7685C50.7809 43.6595 49.0153 45.1064 47.2606 46.2345L46.7198 45.3934ZM50.9649 42.0614L50.2578 41.3542C51.0037 40.6083 51.8546 39.7169 52.3537 38.6473L53.2599 39.0701L54.1661 39.493C53.5012 40.9179 52.41 42.0305 51.672 42.7685L50.9649 42.0614ZM53.2599 39.0701L52.3536 38.6474C52.8666 37.5478 53.0019 36.2724 52.3623 34.8008L53.2794 34.4022L54.1965 34.0035C55.0818 36.0404 54.9023 37.9148 54.1661 39.4929L53.2599 39.0701ZM53.2794 34.4022L52.3623 34.8009C51.9352 33.8186 50.7059 31.8768 49.2143 29.7164L50.0372 29.1483L50.8601 28.5801C52.3302 30.7094 53.6781 32.8114 54.1964 34.0034L53.2794 34.4022ZM50.0372 29.1483L49.2143 29.7164C48.0329 28.0054 46.6676 26.1285 45.3582 24.4284L46.1505 23.8182L46.9427 23.208C48.2742 24.9367 49.6598 26.8417 50.8601 28.5801L50.0372 29.1483ZM46.1505 23.8182L45.3582 24.4284C43.5561 22.0885 41.8161 20.0236 40.8119 19.2201L41.4366 18.4393L42.0613 17.6584C43.2881 18.64 45.1735 20.9108 46.9427 23.208L46.1505 23.8182ZM41.4366 18.4393L40.813 19.221L40.6342 19.0784L41.2579 18.2967L41.8816 17.515L42.0603 17.6576L41.4366 18.4393ZM41.2579 18.2967L40.8924 19.2275L40.6785 19.1435L41.044 18.2127L41.4096 17.2819L41.6234 17.3659L41.2579 18.2967ZM41.044 18.2127L40.6813 19.1446C36.7343 17.6084 34.3589 16.9842 30.001 16.1204L30.1954 15.1395L30.3898 14.1586C34.8322 15.039 37.325 15.6922 41.4067 17.2808L41.044 18.2127ZM30.1954 15.1395L30.0011 16.1204C28.8043 15.8833 27.5524 16.0727 26.3674 16.4506L26.0636 15.4979L25.7598 14.5451C27.1248 14.1099 28.7408 13.8319 30.3897 14.1585L30.1954 15.1395ZM26.0636 15.4979L26.3674 16.4506C25.1803 16.8292 24.0274 17.4078 23.0153 17.9869L22.5186 17.119L22.022 16.251C23.0922 15.6387 24.3828 14.9843 25.7597 14.5452L26.0636 15.4979ZM22.5186 17.119L23.0153 17.9869C22.3878 18.346 21.7854 18.7226 21.2683 19.0499L20.7335 18.2049L20.1986 17.36C20.7205 17.0296 21.354 16.6332 22.022 16.251L22.5186 17.119ZM20.7335 18.2049L19.7348 18.2566C19.6872 17.3379 19.6349 16.1869 19.5487 15.026L20.546 14.952L21.5432 14.878C21.6315 16.0677 21.6854 17.251 21.7321 18.1532L20.7335 18.2049ZM20.546 14.952L19.5487 15.026C19.4485 13.675 19.2975 12.2564 19.0345 11.0426L20.0118 10.8309L20.9891 10.6191C21.282 11.9706 21.4409 13.4993 21.5432 14.878L20.546 14.952ZM20.0118 10.8309L19.0345 11.0427C18.9032 10.4368 18.7401 9.86755 18.5366 9.37763L19.46 8.99397L20.3835 8.61031C20.6481 9.24726 20.8422 9.94097 20.9891 10.6191L20.0118 10.8309ZM19.46 8.99397L18.5366 9.37774C18.3354 8.89365 18.0812 8.45619 17.7491 8.1392L18.4395 7.41584L19.13 6.69248C19.742 7.27668 20.1279 7.99515 20.3835 8.6102L19.46 8.99397ZM18.4395 7.41584L17.7491 8.13928C17.0777 7.49854 16.3818 7.06492 15.6255 7.05042L15.6446 6.05061L15.6638 5.05079C17.1801 5.07986 18.3419 5.94036 19.1299 6.69241L18.4395 7.41584ZM15.6261 9.05744L15.9046 8.09702C16.0121 8.12821 16.1255 8.17566 16.2446 8.23995L15.7696 9.11994L15.2946 9.99994C15.2872 9.99593 15.2877 9.99663 15.2959 10.0001C15.3038 10.0034 15.3211 10.0102 15.3475 10.0179L15.6261 9.05744ZM15.7696 9.11994L16.2448 8.24005C16.4893 8.37207 16.7585 8.5759 17.0586 8.86231L16.3683 9.58576L15.6779 10.3092C15.4579 10.0993 15.3322 10.0202 15.2945 9.99984L15.7696 9.11994ZM16.3683 9.58576L17.0591 8.86274C17.2497 9.04488 17.439 9.34046 17.614 9.76163L16.6905 10.1453L15.7671 10.529C15.7112 10.3945 15.6676 10.3166 15.6447 10.2799C15.6334 10.2617 15.6284 10.2557 15.6312 10.2592C15.6325 10.2609 15.6474 10.2801 15.6774 10.3088L16.3683 9.58576ZM16.6905 10.1453L17.614 9.76172C17.7866 10.1772 17.9327 10.6837 18.0565 11.2548L17.0792 11.4666L16.1019 11.6784C15.9928 11.1752 15.8774 10.7947 15.767 10.529L16.6905 10.1453ZM17.0792 11.4666L18.0565 11.2549C18.3046 12.3998 18.4528 13.763 18.552 15.0996L17.5548 15.1737L16.5575 15.2477C16.4605 13.94 16.3203 12.6864 16.1019 11.6784L17.0792 11.4666ZM17.5548 15.1737L18.552 15.0996C18.6514 16.4382 18.7004 17.7198 18.7573 18.7245L17.7589 18.7811L16.7605 18.8376C16.7006 17.7801 16.6554 16.5665 16.5575 15.2477L17.5548 15.1737ZM17.7589 18.7811L18.7573 18.7245C18.7854 19.2211 18.8155 19.6554 18.8559 19.9843L17.8634 20.1063L16.8708 20.2282C16.8216 19.8274 16.7886 19.3345 16.7605 18.8376L17.7589 18.7811ZM17.8634 20.1063L18.8559 19.9843C18.8761 20.1489 18.9001 20.3004 18.9314 20.4261L17.961 20.6678L16.9907 20.9095C16.9303 20.667 16.8946 20.422 16.8708 20.2283L17.8634 20.1063ZM17.961 20.6678L18.9313 20.4258C18.9469 20.4885 18.9675 20.5573 18.9948 20.6222L18.0733 21.0106L17.1518 21.3989C17.0708 21.2067 17.021 21.0313 16.9908 20.9098L17.961 20.6678ZM18.0733 21.0106L18.9948 20.622C19.0181 20.6774 19.0637 20.7713 19.1466 20.8542L18.4395 21.5613L17.7324 22.2685C17.3878 21.9238 17.2204 21.5616 17.1519 21.3991L18.0733 21.0106ZM18.4395 21.5613L19.1464 20.854C19.252 20.9595 19.3613 21.0027 19.4647 21.0216C19.5783 21.0424 19.6795 21.032 19.7285 21.0244L19.8819 22.0125L20.0353 23.0007C19.7257 23.0487 18.6296 23.1651 17.7327 22.2687L18.4395 21.5613ZM19.8819 22.0125L19.7283 21.0244C19.8641 21.0033 20.0008 20.9507 20.1186 20.8977L20.5294 21.8094L20.9402 22.7211C20.7658 22.7997 20.4363 22.9384 20.0355 23.0007L19.8819 22.0125ZM20.5294 21.8094L20.1184 20.8978C20.3602 20.7887 20.6611 20.6115 20.9896 20.4082L21.5157 21.2586L22.0418 22.109C21.7171 22.3099 21.3153 22.552 20.9404 22.721L20.5294 21.8094ZM21.5157 21.2586L20.9896 20.4082C21.6656 19.9899 22.5227 19.4202 23.5113 18.8545L24.0079 19.7225L24.5045 20.5904C23.5521 21.1354 22.7937 21.6439 22.0418 22.109L21.5157 21.2586ZM24.0079 19.7225L23.5113 18.8545C24.495 18.2916 25.579 17.7508 26.6708 17.4026L26.9747 18.3553L27.2786 19.308C26.3769 19.5956 25.4307 20.0605 24.5045 20.5905L24.0079 19.7225ZM26.9747 18.3553L26.6709 17.4026C27.766 17.0534 28.8361 16.9096 29.8068 17.1019L29.6124 18.0828L29.418 19.0638C28.898 18.9607 28.1914 19.0169 27.2785 19.308L26.9747 18.3553ZM29.6124 18.0828L29.8068 17.1019C34.0349 17.9399 36.3447 18.543 40.0888 19.9888L39.7286 20.9217L39.3684 21.8546C35.759 20.4608 33.5658 19.8859 29.418 19.0638L29.6124 18.0828ZM39.7286 20.9217L40.3917 20.1732C41.3002 20.978 42.8563 22.8194 44.5658 25.0391L43.7735 25.6492L42.9813 26.2594C41.2599 24.0244 39.8114 22.331 39.0655 21.6702L39.7286 20.9217ZM43.7735 25.6492L44.5658 25.0391C45.8644 26.7251 47.2198 28.5874 48.3914 30.2842L47.5684 30.8524L46.7455 31.4205C45.5931 29.7514 44.2581 27.9172 42.9813 26.2594L43.7735 25.6492ZM47.5684 30.8524L48.3914 30.2842C49.8941 32.4606 51.0642 34.3226 51.4455 35.1998L50.5284 35.5985L49.6113 35.9972C49.3215 35.3306 48.2711 33.6301 46.7455 31.4205L47.5684 30.8524ZM50.5284 35.5985L51.4455 35.1999C51.9619 36.388 51.849 37.3633 51.4474 38.2243L50.5411 37.8016L49.6348 37.3789C49.8122 36.9987 49.8829 36.6221 49.6113 35.997L50.5284 35.5985ZM50.5411 37.8016L51.4473 38.2245C51.0315 39.1154 50.3024 39.8959 49.5509 40.6474L48.8438 39.9403L48.1367 39.2331C48.9009 38.469 49.3861 37.9119 49.6349 37.3787L50.5411 37.8016ZM48.8438 39.9403L49.5509 40.6474C48.8288 41.3694 47.2352 42.6846 45.6385 43.7111L45.0977 42.8699L44.557 42.0288C46.0486 41.0698 47.5276 39.8422 48.1368 39.2331L48.8438 39.9403ZM45.0977 42.8699L45.6385 43.7111C44.8397 44.2247 44.061 44.6517 43.4051 44.8986L43.0528 43.9627L42.7006 43.0268C43.1664 42.8515 43.8097 42.5092 44.557 42.0288L45.0977 42.8699ZM43.0528 43.9627L43.405 44.8987C43.0984 45.014 42.8438 45.0787 42.6407 45.1055L42.5099 44.1141L42.3791 43.1227C42.3938 43.1207 42.4971 43.1034 42.7006 43.0268L43.0528 43.9627ZM42.5099 44.1141L41.9941 44.9708C41.5899 44.7275 41.1958 44.4228 40.9018 43.9593L41.7462 43.4237L42.5906 42.888C42.6539 42.9877 42.7605 43.0977 43.0256 43.2573L42.5099 44.1141ZM41.7462 43.4237L40.9015 43.9589C40.5765 43.4461 40.3425 42.6937 40.4038 41.5265L41.4024 41.5789L42.4011 41.6314C42.3569 42.4725 42.5309 42.7938 42.5909 42.8884L41.7462 43.4237ZM41.4024 41.5789L40.4041 41.5216C40.4285 41.0968 40.702 40.6439 41.2315 40.1438L41.9181 40.8709L42.6046 41.598C42.4182 41.774 42.3545 41.8713 42.343 41.8905C42.3378 41.8991 42.3479 41.8842 42.3612 41.8465C42.3678 41.8276 42.3758 41.8017 42.3829 41.7692C42.3895 41.7391 42.3975 41.6938 42.4008 41.6362L41.4024 41.5789ZM41.9181 40.8709L41.2316 40.1438C41.7522 39.6523 42.4367 39.1922 43.1256 38.7381L43.6759 39.5731L44.2262 40.408C43.5121 40.8787 42.9771 41.2464 42.6045 41.5981L41.9181 40.8709ZM43.6759 39.5731L43.1256 38.7381C43.788 38.3015 44.4895 37.8497 44.9475 37.4079L45.6417 38.1278L46.3359 38.8476C45.7116 39.4496 44.8169 40.0187 44.2262 40.408L43.6759 39.5731ZM45.6417 38.1278L44.9474 37.408C45.1749 37.1886 45.3913 36.9257 45.496 36.6216L46.4415 36.9471L47.387 37.2726C47.1313 38.0155 46.6529 38.5418 46.336 38.8475L45.6417 38.1278ZM46.4415 36.9471L45.4959 36.6218C45.6113 36.2862 45.5772 35.934 45.3633 35.613L46.1954 35.0584L47.0275 34.5039C47.5986 35.3608 47.6988 36.3663 47.3871 37.2724L46.4415 36.9471ZM46.1954 35.0584L45.3714 35.625L45.1371 35.2842L45.961 34.7176L46.785 34.151L47.0194 34.4918L46.1954 35.0584ZM45.961 34.7176L45.1442 35.2944C44.5417 34.4412 43.4607 33.0396 42.4499 31.7605L43.2345 31.1405L44.019 30.5204C45.0299 31.7996 46.141 33.2389 46.7779 34.1408L45.961 34.7176ZM43.2345 31.1405L42.4499 31.7605C41.2981 30.303 40.1731 28.924 39.8964 28.6473L40.6036 27.9403L41.3108 27.2332C41.6924 27.6149 42.9098 29.1168 44.019 30.5204L43.2345 31.1405ZM40.6036 27.9403L39.9165 28.6668L39.8267 28.5819L40.5138 27.8553L41.2008 27.1287L41.2907 27.2137L40.6036 27.9403ZM40.5138 27.8553L39.8522 28.6052C39.7372 28.5037 39.5881 28.4186 39.4007 28.4023L39.4874 27.4061L39.5741 26.4098C40.302 26.4732 40.838 26.8078 41.1753 27.1054L40.5138 27.8553ZM39.4874 27.4061L39.4008 28.4023C39.1817 28.3833 38.9984 28.467 38.8667 28.5709L38.2472 27.786L37.6277 27.001C38.0382 26.6769 38.7124 26.335 39.574 26.4098L39.4874 27.4061ZM38.2472 27.786L38.8671 28.5706C38.6338 28.7549 38.4799 29.063 38.3724 29.3415L37.4395 28.9813L36.5067 28.6211C36.6359 28.2863 36.9471 27.5387 37.6272 27.0013L38.2472 27.786ZM37.4395 28.9813L38.3725 29.3413C38.1396 29.9447 37.9587 30.856 37.8435 31.8864L36.8497 31.7752L35.8559 31.6641C35.9775 30.5768 36.1812 29.4645 36.5066 28.6212L37.4395 28.9813ZM36.8497 31.7752L37.8435 31.8863C37.6126 33.9522 37.6304 36.669 38.146 38.7319L37.1759 38.9744L36.2057 39.2169C35.6125 36.8435 35.6094 33.8687 35.8559 31.6641L36.8497 31.7752ZM37.1759 38.9744L38.146 38.7319C38.9104 41.7894 39.6442 44.3041 40.5615 46.6346L39.6309 47.0008L38.7004 47.367C37.7374 44.9203 36.9792 42.3108 36.2057 39.217L37.1759 38.9744ZM39.6309 47.0008V48.0008H25.4102V47.0008V46.0008H39.6309V47.0008ZM25.4102 47.0008L24.4104 47.021C24.394 46.2062 24.3777 45.1254 24.3761 43.9758L25.3761 43.9744L26.3761 43.973C26.3777 45.1064 26.3938 46.174 26.41 46.9806L25.4102 47.0008ZM25.3761 43.9744L24.3761 43.9758C24.3743 42.7333 24.3905 41.4644 24.4349 40.37C24.4784 39.2988 24.551 38.3253 24.6783 37.7132L25.6573 37.9168L26.6364 38.1204C26.5468 38.5511 26.4771 39.3716 26.4333 40.4511C26.3904 41.5075 26.3744 42.7461 26.3761 43.973L25.3761 43.9744ZM25.6573 37.9168L24.6783 37.713C24.9381 36.4648 25.3939 33.4033 25.7819 30.5851L26.7725 30.7215L27.7632 30.8579C27.3779 33.6566 26.913 36.7917 26.6363 38.1206L25.6573 37.9168ZM26.7725 30.7215L25.7819 30.5851C25.9764 29.172 26.1548 27.8112 26.285 26.7598L27.2774 26.8826L28.2699 27.0055C28.1383 28.0676 27.9587 29.4376 27.7632 30.8579L26.7725 30.7215ZM27.2774 26.8826L26.285 26.7598C26.3501 26.2341 26.4036 25.7843 26.4404 25.4432L27.4347 25.5506L28.4289 25.6581C28.3903 26.0147 28.3353 26.4766 28.2699 27.0055L27.2774 26.8826ZM27.4347 25.5506L26.4404 25.4432C26.4754 25.1197 26.5 24.8565 26.5001 24.7337L27.5001 24.7342L28.5001 24.7347C28.5 24.9884 28.4598 25.3719 28.4289 25.658L27.4347 25.5506ZM27.5001 24.7342H26.5001C26.5001 24.6684 26.488 24.5502 26.4084 24.4335L27.2345 23.8699L28.0605 23.3064C28.4494 23.8764 28.5001 24.4434 28.5001 24.7342H27.5001ZM27.2345 23.8699L26.4086 24.4338C26.32 24.304 26.1897 24.2371 26.07 24.2156L26.2462 23.2313L26.4224 22.2469C26.977 22.3462 27.6194 22.6602 28.0603 23.3061L27.2345 23.8699ZM26.2462 23.2313L26.0703 24.2157C25.9672 24.1973 25.882 24.2132 25.841 24.2232L25.6036 23.2518L25.3662 22.2804C25.554 22.2345 25.942 22.1611 26.4221 22.2469L26.2462 23.2313ZM25.6036 23.2518L25.8413 24.2231C25.794 24.2347 25.7534 24.2511 25.7232 24.2647L25.3116 23.3533L24.9 22.442C24.9948 22.3992 25.1575 22.3314 25.3659 22.2804L25.6036 23.2518ZM25.3116 23.3533L25.7236 24.2645C25.6787 24.2848 25.6253 24.3149 25.5686 24.3516C25.5134 24.3872 25.4669 24.4213 25.4279 24.4502L24.8331 23.6463L24.2383 22.8424C24.3243 22.7788 24.5841 22.5848 24.8996 22.4422L25.3116 23.3533ZM24.8331 23.6463L25.428 24.4501C25.2368 24.5916 24.963 24.8177 24.6446 25.0792L24.0099 24.3065L23.3751 23.5337C23.6709 23.2908 23.9954 23.0222 24.2382 22.8425L24.8331 23.6463ZM24.0099 24.3065L24.6446 25.0792C23.9936 25.6139 23.0905 26.3506 22.0495 27.0654L21.4835 26.241L20.9174 25.4167C21.8815 24.7547 22.7271 24.066 23.3751 23.5337L24.0099 24.3065ZM21.4835 26.241L22.0495 27.0654C21.0069 27.7812 19.8411 28.4647 18.6684 28.8986L18.3214 27.9608L17.9743 27.0229C18.9306 26.6691 19.9433 26.0855 20.9175 25.4166L21.4835 26.241ZM18.3214 27.9608L18.6683 28.8986C17.5023 29.33 16.3733 29.4982 15.3661 29.2551L15.6007 28.283L15.8352 27.3109C16.3124 27.4261 17.0118 27.379 17.9744 27.0229L18.3214 27.9608ZM15.6007 28.283L15.059 29.1236C14.8457 28.9862 14.6271 28.7471 14.409 28.3426L15.2892 27.868L16.1693 27.3933C16.2258 27.498 16.2584 27.5365 16.2582 27.5362C16.2569 27.5347 16.2209 27.4931 16.1424 27.4425L15.6007 28.283ZM15.2892 27.868L14.4089 28.3424C14.1077 27.7836 13.8622 27.004 13.6727 26.0526L14.6534 25.8572L15.6341 25.6619C15.8061 26.525 16.0031 27.085 16.1694 27.3935L15.2892 27.868ZM14.6534 25.8572L13.6727 26.0526C13.294 24.1513 13.1612 21.6718 13.1847 19.1633L14.1847 19.1727L15.1846 19.182C15.1616 21.6365 15.2948 23.958 15.6342 25.6619L14.6534 25.8572ZM14.1847 19.1727L13.1847 19.1633C13.2082 16.6601 13.3862 14.1521 13.6205 12.2055L14.6134 12.325L15.6062 12.4445C15.3806 14.3185 15.2074 16.7529 15.1846 19.1821L14.1847 19.1727ZM14.6134 12.325L13.6205 12.2055C13.7378 11.2314 13.8688 10.4056 13.9985 9.79501L14.9767 10.0028L15.9548 10.2105C15.8418 10.7425 15.7193 11.5047 15.6062 12.4445L14.6134 12.325ZM14.9767 10.0028L13.9985 9.79495C14.063 9.49131 14.1257 9.24896 14.1836 9.07225L15.1339 9.38362L16.0842 9.69498C16.0572 9.7773 16.0116 9.94312 15.9548 10.2106L14.9767 10.0028ZM15.1339 9.38362L14.4223 8.68104C14.6285 8.47217 14.8241 8.31615 15.0105 8.21258L15.4962 9.08674L15.9818 9.9609C16.0002 9.95071 15.9963 9.9507 15.9701 9.97157C15.9449 9.99166 15.9032 10.0277 15.8455 10.0862L15.1339 9.38362ZM15.4962 9.08674L15.0114 8.21209C15.1308 8.14592 15.2344 8.10812 15.3189 8.08552L15.5772 9.05158L15.8355 10.0176C15.8626 10.0104 15.8918 10.0011 15.9208 9.98952C15.9478 9.97874 15.9678 9.96866 15.9809 9.96139L15.4962 9.08674ZM15.5772 9.05158L15.3227 8.08451C15.3253 8.08383 15.3314 8.08223 15.3383 8.08049C15.3418 8.07961 15.3481 8.07805 15.3558 8.07624C15.3611 8.07501 15.3788 8.07086 15.4015 8.06662L15.585 9.04963L15.7686 10.0326C15.7811 10.0303 15.7911 10.0282 15.797 10.0269C15.8034 10.0255 15.8085 10.0243 15.812 10.0235C15.8188 10.0219 15.824 10.0206 15.8262 10.0201C15.8304 10.019 15.8332 10.0183 15.8317 10.0187L15.5772 9.05158ZM15.585 9.04963V8.04963H15.587V9.04963V10.0496H15.585V9.04963ZM15.587 9.04963L15.606 8.04981C15.6016 8.04973 15.615 8.04992 15.6295 8.05052C15.6427 8.05108 15.656 8.05189 15.6695 8.05297C15.6964 8.05513 15.723 8.0583 15.7494 8.06237C15.8019 8.07049 15.8534 8.08222 15.9037 8.09677L15.6261 9.05744L15.3484 10.0181C15.3719 10.0249 15.4041 10.0327 15.4439 10.0389C15.4639 10.042 15.4858 10.0447 15.5095 10.0466C15.5214 10.0475 15.5336 10.0483 15.5459 10.0488C15.5595 10.0493 15.5725 10.0495 15.568 10.0495L15.587 9.04963ZM40.8809 33.0008L41.6655 32.3808C42.5912 33.5521 43.5336 34.7744 44.1249 35.5893L43.3155 36.1766L42.5061 36.7639C41.9395 35.983 41.0176 34.7865 40.0964 33.6208L40.8809 33.0008ZM43.3155 36.1766L43.9356 36.9611C43.5951 37.2303 43.1272 37.5391 42.5748 37.9031L42.0245 37.0682L41.4742 36.2332C42.0546 35.8507 42.4381 35.5955 42.6954 35.3921L43.3155 36.1766ZM42.0245 37.0682L42.5748 37.9031C41.9913 38.2878 41.3435 38.7192 40.7889 39.1976L40.1358 38.4403L39.4828 37.683C40.1492 37.1082 40.9018 36.6105 41.4742 36.2332L42.0245 37.0682ZM40.1358 38.4403L39.166 38.6842C39.1593 38.6573 39.1521 38.6296 39.1433 38.5963C39.1351 38.5645 39.1254 38.5275 39.1159 38.4895L40.086 38.2469L41.0561 38.0043C41.0628 38.0309 41.07 38.0585 41.0785 38.0913C41.0867 38.1225 41.0963 38.1592 41.1056 38.1964L40.1358 38.4403ZM40.086 38.2469L39.1159 38.4894C38.6389 36.5812 38.6142 33.993 38.8373 31.9971L39.8311 32.1082L40.825 32.2193C40.6173 34.0768 40.6569 36.4069 41.0562 38.0044L40.086 38.2469ZM39.8311 32.1082L38.8373 31.9971C38.8526 31.8602 38.8779 31.6942 38.8888 31.6126L39.88 31.7449L40.8712 31.8773C40.8509 32.0289 40.8377 32.1051 40.8249 32.2194L39.8311 32.1082ZM39.88 31.7449L40.6587 31.1176C40.9746 31.5097 41.3172 31.94 41.6655 32.3808L40.8809 33.0008L40.0964 33.6208C39.7508 33.1836 39.4122 32.7583 39.1012 32.3723L39.88 31.7449Z" fill="black" mask="url(#path-3-inside-1_829_1368)"/>
<path d="M9.53223 10.4102L9.13672 11.8574C10.123 12.1266 10.9848 12.3517 11.7607 12.5361C11.7834 12.367 11.8045 12.2011 11.8281 12.0391C11.9682 11.078 12.1283 10.2343 12.293 9.57812C11.6244 9.4162 10.8491 9.21466 9.92676 8.96289L9.53223 10.4102ZM19.3281 9.45117C19.5435 9.92318 19.7121 10.4398 19.8486 10.96C19.9637 11.3988 20.062 11.8625 20.1455 12.3389C20.689 12.1941 21.2734 12.0326 21.9131 11.8555L21.1123 8.96484C20.4364 9.15199 19.8489 9.31315 19.3281 9.45117Z" fill="black"/>
<path d="M9.98833 6.79897C10.2991 5.73902 9.69176 4.62784 8.63181 4.31707L6.05893 3.56273C4.99898 3.25196 3.88779 3.8593 3.57703 4.91925L1.56269 11.7897C1.25193 12.8496 1.85926 13.9608 2.91921 14.2716L5.49209 15.0259C6.55204 15.3367 7.66323 14.7294 7.974 13.6694L9.98833 6.79897Z" stroke="black" stroke-width="2"/>
<path d="M27.5745 4.5132C27.282 3.44806 26.1815 2.8217 25.1163 3.11419L22.5309 3.82417C21.4657 4.11666 20.8394 5.21723 21.1318 6.28237L23.0277 13.1864C23.3202 14.2516 24.4208 14.8779 25.4859 14.5855L28.0714 13.8755C29.1365 13.583 29.7629 12.4824 29.4704 11.4173L27.5745 4.5132Z" stroke="black" stroke-width="2"/>
</g>
<defs>
<clipPath id="clip0_829_1368">
<rect width="68" height="49" fill="white"/>
</clipPath>
</defs>
</svg>
